<svg width="476" height="342" viewBox="0 0 476 342" fill="none" xmlns="http://www.w3.org/2000/svg">
<g clip-path="url(#clip0_283_683)">
<path d="M209.5 13.5H472.5V312C472.5 317.799 467.799 322.5 462 322.5H220C214.201 322.5 209.5 317.799 209.5 312V13.5Z" fill="white" stroke="#C5C5C5" stroke-width="7"/>
<path d="M445.292 63.0244H342.327C341.886 63.0249 341.449 62.9385 341.041 62.77C340.633 62.6015 340.262 62.3542 339.95 62.0423C339.638 61.7304 339.39 61.3601 339.221 60.9523C339.052 60.5446 338.965 60.1076 338.965 59.6662C338.965 59.2249 339.052 58.7878 339.221 58.3801C339.39 57.9724 339.638 57.602 339.95 57.2901C340.262 56.9782 340.633 56.731 341.041 56.5625C341.449 56.394 341.886 56.3075 342.327 56.3081H445.292C445.734 56.3075 446.171 56.394 446.579 56.5625C446.987 56.731 447.357 56.9782 447.67 57.2901C447.982 57.602 448.23 57.9724 448.399 58.3801C448.568 58.7878 448.655 59.2249 448.655 59.6662C448.655 60.1076 448.568 60.5446 448.399 60.9523C448.23 61.3601 447.982 61.7304 447.67 62.0423C447.357 62.3542 446.987 62.6015 446.579 62.77C446.171 62.9385 445.734 63.0249 445.292 63.0244Z" fill="#6C63FF"/>
<path d="M445.293 76.294H342.327C341.438 76.2928 340.585 75.9385 339.956 75.3088C339.327 74.6792 338.974 73.8256 338.974 72.9357C338.974 72.0458 339.327 71.1922 339.956 70.5626C340.585 69.9329 341.438 69.5786 342.327 69.5774H445.293C446.182 69.5786 447.036 69.9329 447.664 70.5626C448.293 71.1922 448.646 72.0458 448.646 72.9357C448.646 73.8256 448.293 74.6792 447.664 75.3088C447.036 75.9385 446.182 76.2928 445.293 76.294V76.294Z" fill="#6C63FF"/>
<path d="M386.96 89.5637H342.327C341.438 89.5625 340.585 89.2082 339.956 88.5785C339.327 87.9488 338.974 87.0953 338.974 86.2054C338.974 85.3154 339.327 84.4619 339.956 83.8322C340.585 83.2026 341.438 82.8482 342.327 82.8471H386.96C387.402 82.8465 387.839 82.9329 388.247 83.1014C388.655 83.27 389.026 83.5172 389.338 83.8291C389.65 84.141 389.898 84.5115 390.067 84.9192C390.236 85.3269 390.323 85.764 390.323 86.2054C390.323 86.6468 390.236 87.0838 390.067 87.4916C389.898 87.8993 389.65 88.2697 389.338 88.5816C389.026 88.8935 388.655 89.1408 388.247 89.3093C387.839 89.4778 387.402 89.5643 386.96 89.5637V89.5637Z" fill="#6C63FF"/>
<path d="M445.293 138.49H342.328C341.437 138.49 340.583 138.136 339.953 137.506C339.324 136.877 338.97 136.022 338.97 135.132C338.97 134.241 339.324 133.387 339.953 132.757C340.583 132.127 341.437 131.774 342.328 131.774H445.293C446.183 131.774 447.038 132.127 447.667 132.757C448.297 133.387 448.651 134.241 448.651 135.132C448.651 136.022 448.297 136.877 447.667 137.506C447.038 138.136 446.183 138.49 445.293 138.49Z" fill="#E6E6E6"/>
<path d="M445.292 151.76H342.327C341.436 151.76 340.582 151.406 339.952 150.776C339.323 150.146 338.969 149.292 338.969 148.401C338.969 147.511 339.323 146.656 339.952 146.027C340.582 145.397 341.436 145.043 342.327 145.043H445.292C446.183 145.043 447.037 145.397 447.667 146.027C448.296 146.656 448.65 147.511 448.65 148.401C448.65 149.292 448.296 150.146 447.667 150.776C447.037 151.406 446.183 151.76 445.292 151.76V151.76Z" fill="#E6E6E6"/>
<path d="M386.96 165.029H342.327C341.436 165.029 340.582 164.675 339.952 164.046C339.323 163.416 338.969 162.562 338.969 161.671C338.969 160.78 339.323 159.926 339.952 159.296C340.582 158.667 341.436 158.313 342.327 158.313H386.96C387.401 158.312 387.838 158.399 388.246 158.567C388.654 158.736 389.025 158.983 389.337 159.295C389.65 159.607 389.897 159.977 390.066 160.385C390.235 160.793 390.322 161.23 390.322 161.671C390.322 162.112 390.235 162.549 390.066 162.957C389.897 163.365 389.65 163.735 389.337 164.047C389.025 164.359 388.654 164.606 388.246 164.775C387.838 164.943 387.401 165.03 386.96 165.029V165.029Z" fill="#E6E6E6"/>
<path d="M445.293 218.105H342.328C341.887 218.105 341.45 218.018 341.043 217.849C340.635 217.68 340.265 217.433 339.953 217.121C339.641 216.809 339.394 216.439 339.225 216.032C339.057 215.624 338.97 215.188 338.97 214.747C338.97 214.306 339.057 213.869 339.225 213.462C339.394 213.054 339.641 212.684 339.953 212.372C340.265 212.06 340.635 211.813 341.043 211.644C341.45 211.475 341.887 211.389 342.328 211.389H445.293C445.734 211.389 446.171 211.475 446.578 211.644C446.985 211.813 447.356 212.06 447.667 212.372C447.979 212.684 448.227 213.054 448.395 213.462C448.564 213.869 448.651 214.306 448.651 214.747C448.651 215.188 448.564 215.624 448.395 216.032C448.227 216.439 447.979 216.809 447.667 217.121C447.356 217.433 446.985 217.68 446.578 217.849C446.171 218.018 445.734 218.105 445.293 218.105V218.105Z" fill="#E6E6E6"/>
<path d="M445.293 231.374H342.327C341.438 231.373 340.585 231.019 339.956 230.389C339.327 229.76 338.974 228.906 338.974 228.016C338.974 227.126 339.327 226.273 339.956 225.643C340.585 225.013 341.438 224.659 342.327 224.658H445.293C446.182 224.659 447.036 225.013 447.664 225.643C448.293 226.273 448.646 227.126 448.646 228.016C448.646 228.906 448.293 229.76 447.664 230.389C447.036 231.019 446.182 231.373 445.293 231.374Z" fill="#E6E6E6"/>
<path d="M386.96 244.644H342.327C341.436 244.644 340.582 244.29 339.952 243.661C339.323 243.031 338.969 242.177 338.969 241.286C338.969 240.395 339.323 239.541 339.952 238.911C340.582 238.281 341.436 237.928 342.327 237.928H386.96C387.401 237.927 387.838 238.013 388.246 238.182C388.654 238.35 389.025 238.598 389.337 238.91C389.65 239.221 389.897 239.592 390.066 240C390.235 240.407 390.322 240.844 390.322 241.286C390.322 241.727 390.235 242.164 390.066 242.572C389.897 242.98 389.65 243.35 389.337 243.662C389.025 243.974 388.654 244.221 388.246 244.39C387.838 244.558 387.401 244.645 386.96 244.644V244.644Z" fill="#E6E6E6"/>
<path d="M301.25 175.001H239.263C237.602 174.999 236.009 174.338 234.834 173.163C233.66 171.989 232.999 170.396 232.997 168.735V128.068C232.999 126.407 233.66 124.814 234.834 123.64C236.009 122.465 237.602 121.804 239.263 121.802H301.25C302.911 121.804 304.504 122.465 305.679 123.64C306.854 124.814 307.514 126.407 307.516 128.068V168.735C307.514 170.396 306.854 171.989 305.679 173.163C304.504 174.338 302.911 174.999 301.25 175.001Z" fill="#E6E6E6"/>
<path d="M296.894 126.884H243.621C242.108 126.885 240.658 127.487 239.588 128.556C238.518 129.625 237.916 131.075 237.914 132.588V164.213C237.916 165.726 238.518 167.177 239.588 168.247C240.658 169.317 242.108 169.919 243.621 169.921H277.591C284.221 169.914 290.578 167.277 295.266 162.589C299.955 157.9 302.591 151.544 302.598 144.913V132.588C302.596 131.076 301.995 129.626 300.925 128.556C299.856 127.487 298.406 126.885 296.894 126.884V126.884Z" fill="white"/>
<path d="M281.839 137.575L281.679 137.862C283.097 134.37 281.808 130.066 279.28 127.432C276.752 124.799 273.238 123.595 269.777 123.117C267.208 122.763 264.542 122.773 262.099 123.714C258.562 125.077 255.859 128.231 253.603 131.513C252.571 133.014 251.556 134.725 251.659 136.601C251.754 138.342 252.787 139.82 253.634 141.297C254.48 142.774 255.187 144.606 254.579 146.218C254.217 147.179 253.452 147.871 252.832 148.657C252.211 149.443 251.701 150.505 252 151.491C252.133 151.868 252.362 152.205 252.664 152.467C252.966 152.729 253.331 152.909 253.723 152.988C254.482 153.115 255.259 153.097 256.012 152.934L275.737 149.954C277.077 149.751 278.349 149.228 279.443 148.427C280.537 147.627 281.422 146.574 282.021 145.358C282.62 144.143 282.917 142.8 282.885 141.445C282.853 140.089 282.494 138.762 281.839 137.575V137.575Z" fill="#2F2E41"/>
<path d="M267.166 149.816C272.493 149.816 276.81 145.498 276.81 140.172C276.81 134.846 272.493 130.528 267.166 130.528C261.84 130.528 257.522 134.846 257.522 140.172C257.522 145.498 261.84 149.816 267.166 149.816Z" fill="#FFB9B9"/>
<path d="M292.333 165.101C288.059 168.238 282.893 169.927 277.591 169.921H247.998C247.939 169.872 247.882 169.824 247.822 169.773L250.582 162.072C251.206 160.704 252.19 159.532 253.429 158.681C254.669 157.83 256.116 157.332 257.617 157.241L259.373 157.133L263.559 153.522C263.559 153.522 274.84 153.119 274.673 152.927L281.506 157.037L281.5 157.008L284.186 157.173C285.687 157.263 287.135 157.761 288.374 158.612C289.613 159.463 290.598 160.636 291.221 162.004L292.333 165.101Z" fill="#6C63FF"/>
<path d="M276.314 131.221C276.066 129.904 274.722 129.302 273.572 129.01C270.233 128.158 266.761 127.967 263.35 128.448C260.863 128.803 258.317 129.585 256.513 131.526C255.058 133.161 254.234 135.26 254.188 137.448C254.114 138.756 254.407 140.059 255.032 141.21C255.312 141.746 255.726 142.2 256.234 142.528C256.742 142.855 257.327 143.045 257.931 143.079L258.046 143.481C262.888 142.806 267.386 139.794 270.219 135.327C269.687 137.226 268.629 138.935 267.167 140.258C270.436 138.949 273.277 136.759 275.375 133.931C275.948 133.171 276.504 132.223 276.314 131.221Z" fill="#2F2E41"/>
<path d="M301.25 99.5352H239.263C237.602 99.5333 236.009 98.8725 234.834 97.6978C233.66 96.523 232.999 94.9303 232.997 93.269V52.6028C232.999 50.9414 233.66 49.3487 234.834 48.174C236.009 46.9993 237.602 46.3385 239.263 46.3366H301.25C302.911 46.3385 304.504 46.9993 305.679 48.174C306.854 49.3487 307.514 50.9414 307.516 52.6028V93.269C307.514 94.9303 306.854 96.523 305.679 97.6978C304.504 98.8725 302.911 99.5333 301.25 99.5352Z" fill="#CCCCCC"/>
<path d="M296.894 51.4182H243.621C242.109 51.42 240.658 52.0215 239.589 53.0908C238.519 54.1601 237.917 55.61 237.914 57.1226V88.7479C237.916 90.2609 238.518 91.7113 239.588 92.7812C240.658 93.851 242.108 94.453 243.621 94.4551H277.591C284.222 94.4497 290.579 91.8133 295.268 87.1246C299.956 82.436 302.593 76.0784 302.598 69.4476V57.1226C302.596 55.6102 301.995 54.1601 300.925 53.0907C299.856 52.0213 298.406 51.4198 296.894 51.4182V51.4182Z" fill="white"/>
<path d="M257.453 57.5534C259.962 57.5534 261.996 55.5194 261.996 53.0103C261.996 50.5012 259.962 48.4673 257.453 48.4673C254.944 48.4673 252.91 50.5012 252.91 53.0103C252.91 55.5194 254.944 57.5534 257.453 57.5534Z" fill="#2F2E41"/>
<path d="M264.722 74.8169C271.078 74.8169 276.23 69.6642 276.23 63.3079C276.23 56.9516 271.078 51.7988 264.722 51.7988C258.366 51.7988 253.213 56.9516 253.213 63.3079C253.213 69.6642 258.366 74.8169 264.722 74.8169Z" fill="#2F2E41"/>
<path d="M265.674 74.8141C270.839 74.8141 275.027 70.6269 275.027 65.4617C275.027 60.2965 270.839 56.1093 265.674 56.1093C260.509 56.1093 256.322 60.2965 256.322 65.4617C256.322 70.6269 260.509 74.8141 265.674 74.8141Z" fill="#9E616A"/>
<path d="M272.025 55.9282C270.386 54.9291 268.509 54.3887 266.59 54.3634C264.671 54.3381 262.78 54.8288 261.116 55.7844C259.451 56.7399 258.074 58.1251 257.128 59.7951C256.182 61.4652 255.702 63.3587 255.738 65.2777C260.504 66.4742 265.51 67.3898 270.592 65.5639L271.792 62.6266L272.5 65.5661C274.047 66.1987 275.599 66.7339 277.15 65.56C277.214 63.6464 276.774 61.7496 275.874 60.0594C274.975 58.3692 273.648 56.9446 272.025 55.9282V55.9282Z" fill="#2F2E41"/>
<path d="M253.223 40.6776C251.628 39.9968 249.874 39.776 248.16 40.04C246.446 40.3041 244.84 41.0425 243.524 42.1718C242.237 43.3332 241.257 44.7951 240.672 46.4271C240.087 48.0591 239.914 49.8105 240.17 51.5253C240.685 55.0131 242.805 58.0166 244.76 60.9509C246.714 63.8852 248.624 67.1005 248.621 70.6261C248.62 73.1654 247.611 75.6005 245.817 77.3973C244.023 79.1941 241.589 80.206 239.05 80.2111C242.03 81.4941 245.141 82.8023 248.382 82.6502C251.623 82.4981 255.02 80.4144 255.549 77.213C255.93 74.9063 254.798 72.6569 253.854 70.5179C252.317 67.0325 251.205 63.3744 250.544 59.6228C250.229 57.8322 250.024 55.9498 250.608 54.228C251.073 52.952 251.935 51.8592 253.068 51.1107C254.201 50.3623 255.545 49.9977 256.901 50.0708L257.972 49.1073C258.155 47.3828 257.796 45.6441 256.945 44.1331C256.094 42.6222 254.793 41.4143 253.223 40.6776V40.6776Z" fill="#2F2E41"/>
<path d="M290.412 90.9093C286.54 93.2356 282.107 94.4615 277.591 94.4551H245.532L245.481 94.4125L248.241 86.7083C248.865 85.3408 249.85 84.1689 251.089 83.3184C252.328 82.4678 253.776 81.9708 255.276 81.8804L257.032 81.7726L261.218 78.1616C261.218 78.1616 272.499 77.756 272.332 77.5631L279.165 81.6734L279.159 81.6478L281.846 81.8123C283.346 81.9017 284.794 82.3984 286.033 83.2491C287.273 84.0997 288.257 85.2721 288.88 86.6402L290.412 90.9093Z" fill="#6C63FF"/>
<path d="M301.25 254.616H239.263C237.602 254.614 236.009 253.953 234.834 252.778C233.66 251.603 232.999 250.011 232.997 248.349V207.683C232.999 206.022 233.66 204.429 234.834 203.254C236.009 202.08 237.602 201.419 239.263 201.417H301.25C302.911 201.419 304.504 202.08 305.679 203.254C306.854 204.429 307.514 206.022 307.516 207.683V248.349C307.514 250.011 306.854 251.603 305.679 252.778C304.504 253.953 302.911 254.614 301.25 254.616Z" fill="#E6E6E6"/>
<path d="M296.894 206.499H243.621C242.108 206.5 240.658 207.101 239.588 208.171C238.518 209.24 237.916 210.69 237.914 212.203V243.828C237.916 245.341 238.518 246.792 239.588 247.862C240.658 248.931 242.108 249.533 243.621 249.536H277.591C284.221 249.529 290.578 246.892 295.266 242.204C299.955 237.515 302.591 231.158 302.598 224.528V212.203C302.596 210.691 301.995 209.241 300.925 208.171C299.856 207.102 298.406 206.5 296.894 206.499V206.499Z" fill="white"/>
<path d="M270.21 226.617C277.297 226.617 283.042 220.872 283.042 213.785C283.042 206.699 277.297 200.954 270.21 200.954C263.124 200.954 257.379 206.699 257.379 213.785C257.379 220.872 263.124 226.617 270.21 226.617Z" fill="#2F2E41"/>
<path d="M270.216 228.303C276.546 228.303 281.678 223.17 281.678 216.84C281.678 210.509 276.546 205.376 270.216 205.376C263.885 205.376 258.753 210.509 258.753 216.84C258.753 223.17 263.885 228.303 270.216 228.303Z" fill="#FFB8B8"/>
<path d="M293.144 244.098C288.727 247.623 283.242 249.541 277.591 249.536H249.005L251.717 241.97C252.34 240.602 253.325 239.43 254.564 238.579C255.803 237.728 257.251 237.23 258.751 237.14L260.507 237.032L264.694 233.421C264.694 233.421 275.974 233.018 275.807 232.825L282.64 236.935L282.635 236.907L285.321 237.071C286.821 237.162 288.269 237.659 289.508 238.511C290.748 239.362 291.732 240.534 292.355 241.902L293.144 244.098Z" fill="#6C63FF"/>
<path d="M282.308 212.819C282.389 211.964 282.426 211.104 282.419 210.245C282.466 208.545 282.154 206.854 281.504 205.282C280.706 203.542 279.281 202.166 277.515 201.427C275.763 200.721 273.806 200.723 272.056 201.432C270.517 200.372 268.733 199.723 266.872 199.544C265.94 199.47 265.004 199.621 264.144 199.987C263.283 200.352 262.523 200.92 261.93 201.642C261.675 202.041 261.386 202.416 261.066 202.764C260.15 203.612 258.759 203.49 257.541 203.316C258.087 203.784 258.633 204.252 259.18 204.72C258.519 204.893 257.858 205.066 257.197 205.238C257.968 205.706 258.739 206.174 259.51 206.642C257.271 207.985 256.254 210.919 256.523 213.583C256.777 216.105 257.995 218.411 259.45 220.461C260.031 219.236 259.906 217.77 259.896 216.39C259.891 215.942 259.918 215.494 259.978 215.051C264.897 216.23 270.037 216.987 275.25 215.114L276.296 212.554C276.443 212.569 276.59 212.583 276.736 212.599L277.342 215.116C278.716 215.678 280.093 216.169 281.471 215.653C281.538 216.042 281.578 216.439 281.609 216.82C281.727 216.364 281.83 215.904 281.922 215.443C282.104 215.345 282.279 215.234 282.444 215.11C282.477 214.344 282.432 213.576 282.308 212.819V212.819Z" fill="#2F2E41"/>
<path d="M474.502 11.8045H207.145C206.748 11.804 206.367 11.6461 206.087 11.3654C205.806 11.0846 205.648 10.7039 205.647 10.3069V1.4976C205.648 1.10055 205.806 0.719876 206.087 0.439117C206.367 0.158357 206.748 0.000434655 207.145 0H474.502C474.899 0.000433154 475.28 0.158356 475.561 0.439117C475.842 0.719877 476 1.10055 476 1.4976V10.3069C476 10.7039 475.842 11.0846 475.561 11.3654C475.28 11.6461 474.899 11.804 474.502 11.8045V11.8045Z" fill="#E4E4E4"/>
<path d="M214.338 7.59878C215.512 7.59878 216.464 6.64684 216.464 5.47256C216.464 4.29828 215.512 3.34634 214.338 3.34634C213.164 3.34634 212.212 4.29828 212.212 5.47256C212.212 6.64684 213.164 7.59878 214.338 7.59878Z" fill="white"/>
<path d="M222.408 7.59878C223.583 7.59878 224.535 6.64684 224.535 5.47256C224.535 4.29828 223.583 3.34634 222.408 3.34634C221.234 3.34634 220.282 4.29828 220.282 5.47256C220.282 6.64684 221.234 7.59878 222.408 7.59878Z" fill="white"/>
<path d="M230.479 7.59878C231.653 7.59878 232.605 6.64684 232.605 5.47256C232.605 4.29828 231.653 3.34634 230.479 3.34634C229.304 3.34634 228.353 4.29828 228.353 5.47256C228.353 6.64684 229.304 7.59878 230.479 7.59878Z" fill="white"/>
<path d="M466.596 4.00912H457.303C457.12 4.00912 456.945 3.93659 456.816 3.80749C456.687 3.67839 456.614 3.5033 456.614 3.32072C456.614 3.13815 456.687 2.96305 456.816 2.83395C456.945 2.70485 457.12 2.63232 457.303 2.63232H466.596C466.778 2.63232 466.953 2.70485 467.083 2.83395C467.212 2.96305 467.284 3.13815 467.284 3.32072C467.284 3.5033 467.212 3.67839 467.083 3.80749C466.953 3.93659 466.778 4.00912 466.596 4.00912V4.00912Z" fill="white"/>
<path d="M466.596 6.5906H457.303C457.212 6.5906 457.123 6.57279 457.039 6.5382C456.956 6.5036 456.88 6.4529 456.816 6.38897C456.752 6.32505 456.701 6.24916 456.667 6.16564C456.632 6.08212 456.614 5.9926 456.614 5.9022C456.614 5.8118 456.632 5.72228 456.667 5.63876C456.701 5.55524 456.752 5.47935 456.816 5.41543C456.88 5.35151 456.956 5.3008 457.039 5.26621C457.123 5.23161 457.212 5.21381 457.303 5.21381H466.596C466.686 5.21381 466.776 5.23161 466.859 5.26621C466.943 5.3008 467.019 5.35151 467.083 5.41543C467.146 5.47935 467.197 5.55524 467.232 5.63876C467.266 5.72228 467.284 5.8118 467.284 5.9022C467.284 5.9926 467.266 6.08212 467.232 6.16564C467.197 6.24916 467.146 6.32505 467.083 6.38897C467.019 6.4529 466.943 6.5036 466.859 6.5382C466.776 6.57279 466.686 6.5906 466.596 6.5906V6.5906Z" fill="white"/>
<path d="M466.596 9.17209H457.303C457.12 9.17209 456.945 9.09956 456.816 8.97046C456.687 8.84136 456.614 8.66626 456.614 8.48369C456.614 8.30111 456.687 8.12602 456.816 7.99692C456.945 7.86782 457.12 7.79529 457.303 7.79529H466.596C466.778 7.79529 466.953 7.86782 467.083 7.99692C467.212 8.12602 467.284 8.30111 467.284 8.48369C467.284 8.66626 467.212 8.84136 467.083 8.97046C466.953 9.09956 466.778 9.17209 466.596 9.17209V9.17209Z" fill="white"/>
<path d="M419.923 90.4779C422.047 90.4779 423.768 88.7563 423.768 86.6327C423.768 84.509 422.047 82.7875 419.923 82.7875C417.8 82.7875 416.078 84.509 416.078 86.6327C416.078 88.7563 417.8 90.4779 419.923 90.4779Z" fill="#6C63FF"/>
<path d="M432.411 90.4779C434.534 90.4779 436.256 88.7563 436.256 86.6327C436.256 84.509 434.534 82.7875 432.411 82.7875C430.287 82.7875 428.565 84.509 428.565 86.6327C428.565 88.7563 430.287 90.4779 432.411 90.4779Z" fill="#6C63FF"/>
<path d="M444.897 90.4779C447.02 90.4779 448.742 88.7563 448.742 86.6327C448.742 84.509 447.02 82.7875 444.897 82.7875C442.773 82.7875 441.052 84.509 441.052 86.6327C441.052 88.7563 442.773 90.4779 444.897 90.4779Z" fill="#6C63FF"/>
<path d="M419.923 165.4C422.047 165.4 423.768 163.678 423.768 161.555C423.768 159.431 422.047 157.709 419.923 157.709C417.8 157.709 416.078 159.431 416.078 161.555C416.078 163.678 417.8 165.4 419.923 165.4Z" fill="#E6E6E6"/>
<path d="M432.411 165.4C434.534 165.4 436.256 163.678 436.256 161.555C436.256 159.431 434.534 157.709 432.411 157.709C430.287 157.709 428.565 159.431 428.565 161.555C428.565 163.678 430.287 165.4 432.411 165.4Z" fill="#E6E6E6"/>
<path d="M444.897 165.4C447.02 165.4 448.742 163.678 448.742 161.555C448.742 159.431 447.02 157.709 444.897 157.709C442.773 157.709 441.052 159.431 441.052 161.555C441.052 163.678 442.773 165.4 444.897 165.4Z" fill="#E6E6E6"/>
<path d="M419.923 245.155C422.047 245.155 423.768 243.434 423.768 241.31C423.768 239.187 422.047 237.465 419.923 237.465C417.8 237.465 416.078 239.187 416.078 241.31C416.078 243.434 417.8 245.155 419.923 245.155Z" fill="#E6E6E6"/>
<path d="M432.411 245.155C434.534 245.155 436.256 243.434 436.256 241.31C436.256 239.187 434.534 237.465 432.411 237.465C430.287 237.465 428.565 239.187 428.565 241.31C428.565 243.434 430.287 245.155 432.411 245.155Z" fill="#E6E6E6"/>
<path d="M444.897 245.155C447.02 245.155 448.742 243.434 448.742 241.31C448.742 239.187 447.02 237.465 444.897 237.465C442.773 237.465 441.052 239.187 441.052 241.31C441.052 243.434 442.773 245.155 444.897 245.155Z" fill="#E6E6E6"/>
<path d="M310.479 89.9499L290.66 77.4007C290.281 77.161 289.845 77.0279 289.397 77.0152C288.95 77.0025 288.507 77.1107 288.115 77.3285C287.724 77.5462 287.398 77.8655 287.173 78.2526C286.948 78.6398 286.831 79.0805 286.835 79.5285L287.03 101.166C287.035 101.742 287.239 102.297 287.607 102.739C287.975 103.181 288.485 103.482 289.05 103.591C289.614 103.7 290.199 103.61 290.706 103.337C291.212 103.063 291.608 102.623 291.826 102.091L294.405 95.8187L301.595 109.994C301.936 110.665 302.53 111.173 303.246 111.406C303.961 111.639 304.74 111.579 305.412 111.239C306.083 110.898 306.592 110.305 306.826 109.59C307.06 108.875 307.002 108.096 306.662 107.424L299.309 92.926L308.733 94.5125C309.3 94.608 309.883 94.5042 310.383 94.2187C310.882 93.9331 311.268 93.4835 311.473 92.9461C311.679 92.4087 311.693 91.8166 311.511 91.2705C311.33 90.7243 310.965 90.2577 310.479 89.9499V89.9499Z" fill="#3F3D56"/>
<path d="M59.5336 224.674C60.0151 224.15 60.3759 223.527 60.5905 222.848C60.8052 222.17 60.8685 221.453 60.7759 220.747C60.6834 220.042 60.4373 219.365 60.0549 218.765C59.6726 218.165 59.1633 217.656 58.563 217.274L62.5519 200.443L54.1095 203.527L51.6159 219.037C51.041 220.088 50.8716 221.314 51.1399 222.481C51.4081 223.649 52.0953 224.678 53.0713 225.373C54.0472 226.067 55.2441 226.38 56.4352 226.251C57.6262 226.122 58.7287 225.561 59.5336 224.674V224.674Z" fill="#FFB8B8"/>
<path d="M79.8354 154.144L76.4472 162.857C76.4472 162.857 77.8993 171.569 75.4792 173.506C73.0591 175.442 74.0271 175.442 74.0271 176.894C73.9437 177.935 73.6421 178.948 73.1417 179.865C72.6414 180.782 71.9535 181.584 71.1229 182.218C69.1869 183.67 60.4744 213.197 60.4744 213.197H51.762C52.0434 210.947 52.0434 208.67 51.762 206.42C51.2779 203.032 53.214 194.319 54.1821 192.867C55.1501 191.415 54.1821 189.479 54.1821 186.575C54.1821 183.67 56.1182 182.218 56.1182 177.378C56.1182 172.537 61.9265 134.782 61.4424 130.426C60.9584 126.07 66.2827 122.197 66.2827 122.197H71.1229L79.8354 154.144Z" fill="#E6E6E6"/>
<path d="M62.1539 330.685H68.425L71.4097 306.494H62.1533L62.1539 330.685Z" fill="#FFB6B6"/>
<path d="M60.1071 326.389L70.1265 325.791V330.084L79.6523 336.663C80.1228 336.988 80.4772 337.455 80.6636 337.995C80.8501 338.536 80.8589 339.122 80.6887 339.668C80.5185 340.214 80.1783 340.691 79.7178 341.03C79.2572 341.368 78.7004 341.551 78.1286 341.551H66.2001L64.1441 337.305L63.3413 341.551H58.8438L60.1071 326.389Z" fill="#2F2E41"/>
<path d="M97.3814 330.685H103.653L106.637 306.494H97.3809L97.3814 330.685Z" fill="#FFB6B6"/>
<path d="M95.3347 326.389L105.354 325.791V330.084L114.88 336.663C115.35 336.988 115.705 337.455 115.891 337.995C116.078 338.536 116.086 339.122 115.916 339.668C115.746 340.214 115.406 340.691 114.945 341.03C114.485 341.368 113.928 341.551 113.356 341.551H101.428L99.3716 337.305L98.5688 341.551H94.0713L95.3347 326.389Z" fill="#2F2E41"/>
<path d="M59.4484 309.824H59.5166L62.9955 270.491C62.9955 268.105 62.9719 267.196 62.9955 265.5C63.019 263.804 63.1304 262.5 63.1304 260.771L63.3031 260.459L63.3031 258C63.7508 255.117 63.3031 253.307 63.6108 250.427L62.4633 213.736C58.4434 187.683 77.6009 170.693 77.6009 170.693H106.299L112.46 191.862C114.774 214.4 122.008 238.106 121.049 259.956C120.32 276.577 112.123 291.495 109.331 307.682L109.507 307.771C110.142 307.99 110.414 308.869 110.115 309.734C109.816 310.599 109.06 311.123 108.426 310.904L93.2696 310.377C92.6351 310.158 92.3629 309.279 92.6616 308.414C92.9602 307.548 93.7167 307.025 94.3512 307.243L95.3817 307.765L102.843 268.105L103.087 261.172L102.585 253.307L90.6023 219.635L81.8089 263.139L72.8269 310.262C73.0746 310.486 73.2485 310.78 73.3256 311.105C73.4026 311.431 73.3793 311.771 73.2586 312.083C73.1379 312.395 72.9256 312.662 72.6496 312.851C72.3736 313.039 72.0469 313.14 71.7127 313.139H59.4484C59.2308 313.139 59.0153 313.096 58.8142 313.013C58.6131 312.929 58.4304 312.807 58.2765 312.653C58.1226 312.499 58.0005 312.317 57.9172 312.116C57.8339 311.914 57.791 311.699 57.791 311.481C57.791 311.264 57.8339 311.048 57.9172 310.847C58.0005 310.646 58.1226 310.463 58.2765 310.309C58.4304 310.155 58.6131 310.033 58.8142 309.95C59.0153 309.867 59.2308 309.824 59.4484 309.824Z" fill="#2F2E41"/>
<path d="M57.0701 188.388C56.1279 188.388 55.5927 188.203 55.3855 187.807C55.0814 187.225 55.6091 186.465 56.22 185.585C56.6733 185.011 57.0308 184.367 57.2787 183.678C57.6441 182.217 60.1102 145.298 58.6351 137.921C58.2939 136.214 58.5877 134.026 59.5079 131.418C62.0218 124.296 65.4531 122.107 72.2888 117.746C72.8437 117.392 73.4215 117.023 74.0223 116.637C74.7994 116.138 74.7561 114.482 74.7103 112.729C74.6595 110.78 74.6068 108.764 75.5615 107.505L75.6236 107.423L75.7238 107.399C78.0329 106.866 85.7991 105.875 90.3985 107.407L90.462 107.428L90.5094 107.475C91.602 108.568 91.7016 110.684 91.7979 112.731C91.8766 114.411 91.9513 115.997 92.5694 116.687C97.295 121.954 102.654 121.851 102.709 121.85L102.974 121.843L103.001 122.107C105.056 143.015 108.37 174.574 109.074 175.816C109.111 175.872 109.131 175.938 109.134 176.006C109.136 176.074 109.119 176.141 109.086 176.2C108.052 178.131 60.6213 188.388 57.0701 188.388Z" fill="#E6E6E6"/>
<path d="M87.9356 101.481C95.6763 101.481 101.951 95.2056 101.951 87.4647C101.951 79.7238 95.6763 73.4485 87.9356 73.4485C80.195 73.4485 73.9199 79.7238 73.9199 87.4647C73.9199 95.2056 80.195 101.481 87.9356 101.481Z" fill="#FFB8B8"/>
<path d="M49.4338 81.207C51.8035 78.4434 52.9301 74.7769 54.8245 71.6387C56.719 68.5005 60.0156 65.6918 63.4983 66.4221C65.8991 66.9255 67.7545 69.0441 68.6938 71.4061C69.6329 73.768 69.809 76.3727 69.9736 78.9245C69.9155 73.6805 73.3702 68.5969 78.1293 66.9236C82.8879 65.2503 88.5832 67.1168 91.5735 71.3297C92.8785 70.1201 94.5819 69.4314 96.3608 69.394C98.1397 69.3567 99.8704 69.9733 101.225 71.1271C103.9 73.5177 104.492 78.068 102.525 81.1174C101.537 82.6011 100.042 83.6732 98.3194 84.1324C96.5972 84.5917 94.7666 84.4064 93.1713 83.6115L92.0661 84.6282C92.3524 85.7149 92.2477 86.8676 91.7701 87.8849C91.2926 88.9022 90.4727 89.7193 89.4538 90.1933C87.8094 90.8575 85.4878 90.747 84.8725 92.4727C84.4424 93.6786 85.2462 94.9657 86.1012 95.8923C86.956 96.8189 87.9711 97.7758 88.0738 99.0581C88.2289 100.993 86.2297 102.348 84.4123 102.756C82.1842 103.202 79.8739 102.972 77.7771 102.097C75.6802 101.222 73.8922 99.7409 72.6419 97.8436C72.5932 97.769 72.5403 97.6944 72.4831 97.6196C71.066 95.8073 70.0333 93.7252 69.448 91.5003C68.8628 89.2754 68.7373 86.9546 69.0792 84.6796C69.2213 83.7858 69.0781 83.1209 68.4619 82.9092C65.7982 81.9942 58.3353 83.9146 56.0768 85.6502C53.8181 87.3859 52.0094 89.6828 49.8339 91.5304C47.6582 93.3781 44.8859 94.8033 42.1236 94.3001C39.9112 93.8972 38.0291 92.291 36.7632 90.3535C35.5694 88.3485 34.6775 86.1785 34.1162 83.9135C39.0083 86.7397 45.7038 85.5566 49.4338 81.207Z" fill="#2F2E41"/>
<path d="M110.405 224.674C109.923 224.15 109.563 223.527 109.348 222.848C109.133 222.17 109.07 221.453 109.163 220.747C109.255 220.042 109.501 219.365 109.884 218.765C110.266 218.165 110.775 217.656 111.376 217.274L107.387 200.443L115.829 203.527L118.323 219.037C118.898 220.088 119.067 221.314 118.799 222.481C118.531 223.649 117.843 224.678 116.867 225.372C115.891 226.067 114.695 226.38 113.503 226.251C112.312 226.122 111.21 225.561 110.405 224.674H110.405Z" fill="#FFB8B8"/>
<path d="M90.1025 154.144L93.4907 162.857C93.4907 162.857 92.0386 171.569 94.4588 173.506C96.8789 175.442 95.9109 175.442 95.9109 176.894C95.9942 177.935 96.2959 178.948 96.7962 179.865C97.2966 180.782 97.9844 181.584 98.815 182.218C100.751 183.67 109.464 213.197 109.464 213.197H118.176C117.895 210.947 117.895 208.67 118.176 206.42C118.66 203.032 116.724 194.319 115.756 192.867C114.788 191.415 115.756 189.479 115.756 186.575C115.756 183.67 113.82 182.218 113.82 177.378C113.82 172.537 108.011 134.782 108.496 130.426C108.98 126.07 103.655 122.197 103.655 122.197H98.815L90.1025 154.144Z" fill="#E6E6E6"/>
</g>
<defs>
<clipPath id="clip0_283_683">
<rect width="476" height="342" fill="white"/>
</clipPath>
</defs>
</svg>
