<svg width="223" height="218" viewBox="0 0 223 218" fill="none" xmlns="http://www.w3.org/2000/svg">
<g clip-path="url(#clip0_175_481)">
<path d="M141.57 49.0275H81.4808C80.1115 49.0292 78.7987 49.5747 77.8304 50.5444C76.8622 51.5141 76.3175 52.8288 76.3158 54.2001V187.947L75.6272 188.157L60.8864 192.678C60.1878 192.892 59.4333 192.819 58.7883 192.475C58.1434 192.132 57.6609 191.546 57.4467 190.847L13.5997 47.4102C13.3863 46.7105 13.459 45.9547 13.8019 45.3087C14.1447 44.6627 14.7297 44.1795 15.4281 43.9652L38.1436 36.9994L103.997 16.8124L126.712 9.84656C127.057 9.74001 127.421 9.70277 127.781 9.73699C128.141 9.7712 128.491 9.8762 128.81 10.046C129.13 10.2157 129.413 10.4469 129.643 10.7263C129.873 11.0057 130.046 11.3278 130.152 11.6742L141.36 48.3378L141.57 49.0275Z" fill="#F2F2F2"/>
<path d="M154.682 48.3381L141.174 4.15004C140.949 3.41379 140.581 2.7291 140.092 2.1351C139.603 1.5411 139.002 1.04944 138.323 0.688202C137.644 0.326965 136.901 0.103234 136.136 0.0298C135.371 -0.0436337 134.598 0.0346697 133.863 0.260228L101.927 10.0503L36.0775 30.2408L4.14101 40.0343C2.6574 40.4905 1.41516 41.5177 0.686956 42.8902C-0.0412521 44.2628 -0.195934 45.8686 0.25687 47.3553L46.4245 198.372C46.7924 199.572 47.5346 200.622 48.5422 201.369C49.5499 202.116 50.77 202.519 52.0234 202.52C52.6036 202.521 53.1804 202.433 53.7346 202.262L75.6271 195.551L76.3158 195.337V194.617L75.6271 194.827L53.5316 201.603C52.222 202.003 50.8076 201.866 49.5985 201.223C48.3895 200.58 47.4846 199.482 47.0823 198.172L0.918123 47.1518C0.718788 46.5025 0.649314 45.8201 0.713678 45.1438C0.778042 44.4675 0.974974 43.8106 1.29321 43.2106C1.61145 42.6106 2.04473 42.0795 2.56825 41.6474C3.09177 41.2154 3.69523 40.8911 4.3441 40.6929L36.2806 30.8994L102.13 10.7124L134.067 0.918882C134.559 0.768462 135.071 0.691766 135.585 0.691285C136.689 0.693769 137.764 1.05032 138.651 1.70871C139.539 2.36711 140.192 3.29275 140.516 4.35006L153.962 48.3381L154.176 49.0278H154.892L154.682 48.3381Z" fill="#FAFBF6"/>
<path d="M42.2426 44.078C41.5789 44.0775 40.9329 43.864 40.3993 43.4689C39.8656 43.0738 39.4725 42.5178 39.2775 41.8824L34.8424 27.3743C34.7232 26.9846 34.6818 26.5752 34.7207 26.1695C34.7595 25.7638 34.8778 25.3697 35.0687 25.0098C35.2596 24.6498 35.5195 24.3311 35.8334 24.0717C36.1474 23.8124 36.5093 23.6175 36.8984 23.4982L97.4794 4.92375C98.2653 4.68358 99.1142 4.76549 99.8398 5.1515C100.565 5.53752 101.109 6.1961 101.35 6.9827L105.785 21.491C106.025 22.278 105.943 23.1282 105.557 23.8549C105.172 24.5815 104.514 25.1254 103.729 25.3672L43.148 43.9417C42.8546 44.0319 42.5495 44.0778 42.2426 44.078V44.078Z" fill="#6C63FF"/>
<path d="M65.4754 15.5022C69.2788 15.5022 72.362 12.4144 72.362 8.60539C72.362 4.79638 69.2788 1.70856 65.4754 1.70856C61.6721 1.70856 58.5889 4.79638 58.5889 8.60539C58.5889 12.4144 61.6721 15.5022 65.4754 15.5022Z" fill="#6C63FF"/>
<path d="M65.4755 12.9727C67.8839 12.9727 69.8363 11.0174 69.8363 8.60542C69.8363 6.19343 67.8839 4.23813 65.4755 4.23813C63.0671 4.23813 61.1147 6.19343 61.1147 8.60542C61.1147 11.0174 63.0671 12.9727 65.4755 12.9727Z" fill="white"/>
<path d="M207.505 200.758H91.1221C90.3461 200.757 89.6022 200.448 89.0535 199.898C88.5048 199.349 88.1962 198.604 88.1953 197.827V58.1658C88.1962 57.3887 88.5048 56.6436 89.0535 56.0941C89.6022 55.5446 90.3461 55.2355 91.1221 55.2346H207.505C208.281 55.2355 209.025 55.5447 209.574 56.0942C210.123 56.6437 210.431 57.3887 210.432 58.1658V197.827C210.431 198.604 210.123 199.349 209.574 199.898C209.025 200.448 208.281 200.757 207.505 200.758V200.758Z" fill="#E6E6E6"/>
<path d="M153.962 48.3378H81.4805C79.9288 48.34 78.4411 48.9583 77.3439 50.0573C76.2466 51.1562 75.6291 52.646 75.627 54.2001V194.827L76.3156 194.616V54.2001C76.3173 52.8288 76.862 51.514 77.8302 50.5444C78.7985 49.5747 80.1112 49.0292 81.4805 49.0275H154.175L153.962 48.3378ZM217.146 48.3378H81.4805C79.9288 48.34 78.4411 48.9583 77.3439 50.0573C76.2466 51.1562 75.6291 52.646 75.627 54.2001V212.138C75.6291 213.692 76.2466 215.182 77.3439 216.281C78.4411 217.379 79.9288 217.998 81.4805 218H217.146C218.698 217.998 220.186 217.379 221.283 216.281C222.38 215.182 222.998 213.692 223 212.138V54.2001C222.998 52.646 222.38 51.1562 221.283 50.0573C220.186 48.9583 218.698 48.34 217.146 48.3378V48.3378ZM222.311 212.138C222.309 213.509 221.765 214.824 220.797 215.793C219.828 216.763 218.516 217.309 217.146 217.31H81.4805C80.1112 217.309 78.7985 216.763 77.8302 215.793C76.862 214.824 76.3173 213.509 76.3156 212.138V54.2001C76.3173 52.8288 76.862 51.514 77.8302 50.5444C78.7985 49.5747 80.1112 49.0292 81.4805 49.0275H217.146C218.516 49.0292 219.828 49.5747 220.797 50.5444C221.765 51.514 222.309 52.8288 222.311 54.2001V212.138Z" fill="#FAFBF6"/>
<path d="M180.992 63.5108H117.636C116.814 63.5099 116.026 63.1826 115.445 62.6008C114.864 62.019 114.538 61.2301 114.537 60.4073V45.2342C114.538 44.4114 114.864 43.6225 115.445 43.0407C116.026 42.4589 116.814 42.1316 117.636 42.1306H180.992C181.814 42.1316 182.601 42.4589 183.182 43.0407C183.763 43.6225 184.09 44.4114 184.091 45.2342V60.4073C184.09 61.2301 183.763 62.019 183.182 62.6008C182.601 63.1826 181.814 63.5099 180.992 63.5108V63.5108Z" fill="#6C63FF"/>
<path d="M149.313 43.1652C153.117 43.1652 156.2 40.0773 156.2 36.2683C156.2 32.4593 153.117 29.3715 149.313 29.3715C145.51 29.3715 142.427 32.4593 142.427 36.2683C142.427 40.0773 145.51 43.1652 149.313 43.1652Z" fill="#6C63FF"/>
<path d="M149.314 40.4691C151.63 40.4691 153.508 38.5884 153.508 36.2683C153.508 33.9483 151.63 32.0675 149.314 32.0675C146.997 32.0675 145.119 33.9483 145.119 36.2683C145.119 38.5884 146.997 40.4691 149.314 40.4691Z" fill="white"/>
</g>
<defs>
<clipPath id="clip0_175_481">
<rect width="223" height="218" fill="white"/>
</clipPath>
</defs>
</svg>
