<svg width="455" height="357" viewBox="0 0 455 357" fill="none" xmlns="http://www.w3.org/2000/svg">
<path d="M20.1342 346.845C34.2853 357.175 52.6241 357.694 70.3506 356.425C72.8259 356.248 75.2836 356.04 77.7186 355.816C77.7333 355.812 77.7526 355.814 77.7676 355.81C77.8846 355.798 78.0018 355.787 78.1138 355.78C78.6164 355.733 79.1192 355.685 79.6171 355.637L79.4995 355.865L79.1303 356.57C79.263 356.334 79.3955 356.103 79.5282 355.867C79.5672 355.796 79.611 355.725 79.6497 355.654C84.2419 347.557 88.7965 339.162 89.9582 329.916C91.1591 320.319 87.7842 309.452 79.4484 304.735C78.3551 304.118 77.1974 303.627 75.9966 303.27C75.4981 303.117 74.9928 302.992 74.4818 302.882C71.3555 302.179 68.1008 302.332 65.0522 303.325C62.0036 304.319 59.2712 306.117 57.136 308.536C55.0009 310.954 53.5399 313.905 52.9034 317.086C52.2669 320.266 52.4779 323.56 53.5146 326.631C46.4473 319.288 47.7656 307.375 50.2035 297.419C52.6461 287.464 55.6031 276.386 50.6351 267.444C47.8734 262.467 43.0169 259.379 37.5668 258.135C37.3996 258.098 37.2326 258.062 37.0651 258.03C30.5714 256.697 23.8205 257.896 18.1608 261.386C7.73962 268.041 2.38716 280.657 0.64998 293.016C-2.14894 312.904 4.04511 335.1 20.1342 346.845Z" fill="#F2F2F2" fill-opacity="0.23"/>
<path d="M444.895 307.573H444.896C447.444 307.57 449.886 306.543 451.686 304.719C453.486 302.896 454.497 300.424 454.5 297.848V297.848V10.2256V10.2251C454.497 7.64881 453.486 5.17761 451.686 3.35394C449.886 1.53006 447.444 0.502907 444.896 0.5H444.895L210.851 0.5L210.85 0.5C208.302 0.502907 205.86 1.53006 204.06 3.35394C202.26 5.17761 201.249 7.64881 201.246 10.2251V10.2256L201.246 297.848L201.246 297.848C201.249 300.424 202.26 302.896 204.06 304.719C205.86 306.543 208.302 307.57 210.85 307.573H210.851H444.895ZM205.529 4.8235C206.941 3.39185 208.856 2.58774 210.851 2.58537H444.895C446.89 2.58774 448.804 3.39185 450.217 4.82349C451.63 6.25544 452.427 8.19829 452.429 10.2262V297.847C452.427 299.875 451.63 301.818 450.217 303.25C448.804 304.681 446.89 305.486 444.895 305.488H210.851C208.856 305.486 206.941 304.681 205.529 303.25C204.115 301.818 203.319 299.875 203.317 297.847V10.2259C203.319 8.19809 204.115 6.25536 205.529 4.8235Z" fill="#FAFBF6" stroke="#FAFBF6"/>
<path d="M453.964 23.5704V23.0704H453.464H202.281H201.781V23.5704V24.6557V25.1557H202.281H453.464H453.964V24.6557V23.5704Z" fill="#FAFBF6" stroke="#FAFBF6"/>
<path d="M214.6 17.2805C216.966 17.2805 218.884 15.3368 218.884 12.939C218.884 10.5413 216.966 8.59756 214.6 8.59756C212.233 8.59756 210.315 10.5413 210.315 12.939C210.315 15.3368 212.233 17.2805 214.6 17.2805Z" fill="#FAFBF6"/>
<path d="M230.273 12.939C230.273 14.2571 229.226 15.2805 227.989 15.2805C226.752 15.2805 225.704 14.2571 225.704 12.939C225.704 11.6209 226.752 10.5976 227.989 10.5976C229.226 10.5976 230.273 11.6209 230.273 12.939Z" fill="#FAFBF6" stroke="#FAFBF6" stroke-width="4"/>
<path d="M243.663 12.939C243.663 14.2571 242.615 15.2805 241.378 15.2805C240.141 15.2805 239.094 14.2571 239.094 12.939C239.094 11.6209 240.141 10.5976 241.378 10.5976C242.615 10.5976 243.663 11.6209 243.663 12.939Z" fill="#FAFBF6" stroke="#FAFBF6" stroke-width="4"/>
<path d="M241.517 67.1646H408.616C410.597 67.1646 412.496 66.367 413.895 64.9495C415.293 63.5322 416.078 61.6113 416.078 59.6097C416.078 57.6082 415.293 55.6873 413.895 54.27C412.496 52.8525 410.597 52.0549 408.616 52.0549H241.517C239.536 52.0549 237.637 52.8525 236.238 54.27C234.84 55.6873 234.055 57.6082 234.055 59.6097C234.055 61.6113 234.84 63.5322 236.238 64.9495C237.637 66.367 239.536 67.1646 241.517 67.1646ZM237.707 55.7399C238.719 54.7149 240.09 54.1402 241.517 54.1402H408.616C410.043 54.1402 411.414 54.7149 412.426 55.7399C413.437 56.7651 414.007 58.157 414.007 59.6097C414.007 61.0625 413.437 62.4544 412.426 63.4796C411.414 64.5046 410.043 65.0793 408.616 65.0793H241.517C240.09 65.0793 238.719 64.5046 237.707 63.4796C236.696 62.4544 236.126 61.0625 236.126 59.6097C236.126 58.157 236.696 56.7651 237.707 55.7399Z" fill="#FAFBF6" stroke="#FAFBF6"/>
<path d="M304.04 166.476H304.041C306.589 166.473 309.031 165.446 310.831 163.622C312.631 161.798 313.642 159.327 313.645 156.751V156.75V101.939V101.938C313.642 99.3622 312.631 96.891 310.831 95.0674C309.031 93.2435 306.589 92.2163 304.041 92.2134H304.04L238.165 92.2134L238.164 92.2134C235.616 92.2163 233.174 93.2435 231.374 95.0674C229.574 96.891 228.563 99.3622 228.56 101.938V101.939L228.56 156.75L228.56 156.751C228.563 159.327 229.574 161.798 231.374 163.622C233.174 165.446 235.616 166.473 238.164 166.476H238.165H304.04ZM232.843 96.5369C234.256 95.1053 236.17 94.3011 238.165 94.2988H304.04C306.035 94.3011 307.949 95.1053 309.362 96.5369C310.775 97.9689 311.571 99.9117 311.574 101.94V156.749C311.571 158.777 310.775 160.72 309.362 162.152C307.949 163.584 306.035 164.388 304.039 164.39H238.165C236.17 164.388 234.256 163.584 232.843 162.152C231.43 160.72 230.634 158.778 230.631 156.75V101.939C230.634 99.9115 231.43 97.9688 232.843 96.5369Z" fill="#FAFBF6" stroke="#FAFBF6"/>
<path d="M417.581 95.4268H351.706C346.973 95.4268 343.137 99.3143 343.137 104.11V158.921C343.137 163.716 346.973 167.604 351.706 167.604H417.581C422.314 167.604 426.15 163.716 426.15 158.921V104.11C426.15 99.3143 422.314 95.4268 417.581 95.4268Z" fill="#2F2E41"/>
<path d="M304.04 268.5H304.041C306.589 268.497 309.031 267.47 310.831 265.646C312.631 263.822 313.642 261.351 313.645 258.775V258.774V203.963V203.963C313.642 201.387 312.631 198.915 310.831 197.092C309.031 195.268 306.589 194.241 304.041 194.238H304.04L238.165 194.238L238.164 194.238C235.616 194.241 233.174 195.268 231.374 197.092C229.574 198.915 228.563 201.387 228.56 203.963V203.963L228.56 258.774L228.56 258.775C228.563 261.351 229.574 263.822 231.374 265.646C233.174 267.47 235.616 268.497 238.164 268.5H238.165H304.04ZM232.843 198.561C234.256 197.13 236.17 196.326 238.165 196.323H304.04C306.035 196.326 307.949 197.13 309.362 198.561C310.775 199.993 311.571 201.936 311.574 203.964V258.774C311.571 260.802 310.775 262.745 309.362 264.176C307.949 265.608 306.035 266.412 304.039 266.415H238.165C236.17 266.412 234.256 265.608 232.843 264.176C231.43 262.745 230.634 260.802 230.631 258.774V203.964C230.634 201.936 231.43 199.993 232.843 198.561Z" fill="#FAFBF6" stroke="#FAFBF6"/>
<path d="M417.581 197.451H351.706C346.973 197.451 343.137 201.339 343.137 206.134V260.945C343.137 265.741 346.973 269.628 351.706 269.628H417.581C422.314 269.628 426.15 265.741 426.15 260.945V206.134C426.15 201.339 422.314 197.451 417.581 197.451Z" fill="#2F2E41"/>
<path d="M254.709 152.719C254.698 152.719 254.686 152.719 254.674 152.719L247.181 152.437C246.947 152.43 246.724 152.338 246.553 152.177C246.381 152.016 246.273 151.798 246.248 151.562C245.732 146.9 243.61 123.141 252.501 113.266C253.759 111.841 255.315 110.717 257.055 109.976C258.796 109.235 260.677 108.896 262.563 108.984C262.639 108.988 262.716 108.972 262.784 108.936C262.852 108.9 262.909 108.846 262.949 108.779L264.763 105.891C264.862 105.735 265.003 105.61 265.169 105.53C265.334 105.45 265.519 105.419 265.701 105.44C267.156 105.618 274.569 106.459 277.686 105.544C277.87 105.489 278.065 105.491 278.248 105.548C278.432 105.605 278.594 105.715 278.716 105.865L281.098 108.815C281.139 108.869 281.191 108.911 281.252 108.94C281.312 108.968 281.379 108.981 281.445 108.979C282.657 108.954 286.905 109.192 290.622 113.405C294.648 117.967 298.803 128.262 295.734 151.391C295.702 151.628 295.586 151.846 295.408 152.004C295.23 152.162 295.001 152.25 294.765 152.251H288.864C288.629 152.25 288.403 152.164 288.226 152.008C288.049 151.853 287.932 151.638 287.898 151.404L285.97 137.926C285.954 137.815 285.898 137.714 285.812 137.643C285.726 137.573 285.617 137.537 285.507 137.544C285.397 137.551 285.293 137.6 285.217 137.681C285.14 137.761 285.096 137.868 285.094 137.98L284.961 144.308C284.957 144.496 284.9 144.679 284.798 144.835C284.695 144.991 284.551 145.115 284.381 145.191C282.277 146.128 271.162 150.524 258.876 145.019C258.71 144.943 258.568 144.822 258.465 144.669C258.363 144.517 258.304 144.338 258.296 144.154L258.055 138.404C258.05 138.292 258.004 138.186 257.925 138.107C257.846 138.027 257.741 137.981 257.63 137.977C257.519 137.973 257.411 138.012 257.327 138.085C257.243 138.159 257.19 138.262 257.177 138.373L255.68 151.841C255.652 152.082 255.538 152.305 255.359 152.467C255.18 152.628 254.949 152.718 254.709 152.719Z" fill="#FAFBF6"/>
<path d="M285.705 252.012H285.7L256.339 251.824C256.125 251.822 255.92 251.742 255.761 251.597C255.602 251.453 255.5 251.255 255.475 251.04L252.521 225.603C252.503 225.439 252.427 225.287 252.307 225.175C252.188 225.063 252.032 224.999 251.869 224.994C249.538 224.917 243.993 224.378 242.843 221.052C241.82 218.09 244.619 213.721 251.164 208.065C251.275 207.969 251.408 207.902 251.552 207.871C251.695 207.841 251.844 207.847 251.984 207.889C252.124 207.931 252.252 208.009 252.355 208.114C252.459 208.219 252.534 208.349 252.575 208.492L255.973 220.368C256.014 220.511 256.099 220.636 256.216 220.726C256.333 220.815 256.476 220.865 256.622 220.866L284.461 221.056C284.606 221.057 284.749 221.011 284.867 220.924C284.985 220.837 285.072 220.714 285.115 220.572L288.895 208.385C288.937 208.249 289.011 208.125 289.11 208.024C289.209 207.923 289.331 207.848 289.465 207.805C289.599 207.761 289.742 207.752 289.88 207.776C290.019 207.801 290.15 207.859 290.261 207.945C292.841 209.941 301.15 216.795 299.783 221.178C299.066 223.474 295.836 224.753 290.18 224.981C290.017 224.987 289.862 225.052 289.743 225.163C289.624 225.275 289.548 225.427 289.53 225.59L286.575 251.227C286.55 251.444 286.448 251.643 286.288 251.788C286.127 251.932 285.92 252.012 285.705 252.012Z" fill="#FAFBF6"/>
<path d="M414.368 144.894C405.142 146.694 396.441 150.598 388.925 156.312C388.545 155.287 387.829 154.425 386.897 153.87C386.26 153.47 385.565 153.174 384.838 152.994C384.176 152.823 383.54 153.23 382.956 153.818C382.285 154.571 381.721 155.416 381.282 156.329C371.2 149.317 355.905 144.842 355.905 144.842V143.439C355.917 143.109 355.95 142.779 356.004 142.453C356.056 142.076 356.121 141.743 356.203 141.335C357.501 134.647 362.631 119.364 362.631 119.364H368.431L379.678 121.731L392.33 120.946L405.072 118.259L406.725 117.909C409.48 120.1 412.607 135.44 413.836 141.971C413.991 142.799 414.113 143.483 414.203 143.987C414.312 144.557 414.368 144.894 414.368 144.894Z" fill="white"/>
<path d="M379.757 212.222C379.757 212.222 377.063 212.905 372.884 224.372C368.706 235.84 367.226 250.657 367.226 250.657C367.226 250.657 364.876 254.688 374.905 254.958C374.905 254.958 374.098 257.62 379.757 257.212C385.416 256.803 384.601 256.807 384.601 256.807C384.601 256.807 388.239 254.486 389.856 254.894C391.474 255.303 392.484 255.442 394.235 256.942C395.985 258.442 401.581 257.831 401.648 256.672C401.693 256.103 401.693 255.531 401.648 254.962C401.648 254.962 410.204 255.509 408.587 249.228C406.969 242.947 405.622 232.638 405.622 232.638C405.622 232.638 401.244 212.5 396.255 212.226C391.266 211.953 379.757 212.222 379.757 212.222Z" fill="white"/>
<path d="M103.173 192.891C112.046 192.891 119.24 185.601 119.24 176.61C119.24 167.619 112.046 160.33 103.173 160.33C94.299 160.33 87.1055 167.619 87.1055 176.61C87.1055 185.601 94.299 192.891 103.173 192.891Z" fill="#2F2E41"/>
<path d="M104.522 192.921C111.787 192.921 117.676 186.954 117.676 179.593C117.676 172.231 111.787 166.264 104.522 166.264C97.2572 166.264 91.3679 172.231 91.3679 179.593C91.3679 186.954 97.2572 192.921 104.522 192.921Z" fill="#FFB8B8"/>
<path d="M154.619 220.134C154.41 220.347 154.218 220.576 154.045 220.82L127.5 219.869L124.464 214.1L115.273 217.605L119.668 228.348C120.023 229.215 120.646 229.943 121.444 230.422C122.242 230.9 123.172 231.103 124.093 231L154.131 227.659C154.829 228.574 155.785 229.253 156.873 229.604C157.96 229.955 159.128 229.963 160.22 229.625C161.312 229.288 162.277 228.621 162.986 227.715C163.695 226.808 164.115 225.704 164.19 224.55C164.265 223.396 163.991 222.246 163.405 221.253C162.819 220.26 161.949 219.471 160.91 218.992C159.871 218.513 158.712 218.365 157.589 218.569C156.465 218.773 155.429 219.319 154.619 220.134H154.619Z" fill="#FFB8B8"/>
<path d="M111.737 222.792C111.399 222.638 111.097 222.413 110.853 222.13C110.609 221.847 110.427 221.515 110.322 221.155L106.624 208.581C105.822 206.84 105.733 204.847 106.378 203.04C107.023 201.232 108.349 199.758 110.065 198.94C111.781 198.121 113.748 198.026 115.533 198.675C117.319 199.323 118.777 200.663 119.59 202.399L126.751 213.38C126.956 213.694 127.091 214.048 127.148 214.419C127.205 214.79 127.183 215.17 127.082 215.531C126.981 215.893 126.805 216.228 126.565 216.514C126.325 216.8 126.027 217.031 125.691 217.19L113.885 222.776C113.549 222.935 113.184 223.019 112.813 223.022C112.442 223.025 112.075 222.946 111.737 222.792Z" fill="#E0E5F8"/>
<path d="M137.881 350.448L143.648 347.267L134.283 323.214L125.772 327.909L137.881 350.448Z" fill="#FFB8B8"/>
<path d="M135.385 349.352L146.742 343.087L146.742 343.087C147.693 342.563 148.736 342.233 149.812 342.117C150.888 342.002 151.976 342.102 153.014 342.412C154.052 342.722 155.02 343.237 155.861 343.926C156.703 344.615 157.403 345.466 157.92 346.429L158.048 346.667L139.453 356.924L135.385 349.352Z" fill="#2F2E41"/>
<path d="M74.4225 350.474H80.9881L84.1121 324.812L74.4209 324.812L74.4225 350.474Z" fill="#FFB8B8"/>
<path d="M72.7473 348.302L85.678 348.302H85.6786C86.7607 348.302 87.8323 348.518 88.8321 348.937C89.8319 349.357 90.7403 349.972 91.5055 350.747C92.2707 351.523 92.8777 352.443 93.2919 353.456C93.706 354.469 93.9191 355.555 93.9191 356.652V356.923L72.7477 356.924L72.7473 348.302Z" fill="#2F2E41"/>
<path d="M115.223 236.576L117.365 262.625L141.262 335.266C141.356 335.552 141.39 335.855 141.362 336.154C141.335 336.454 141.246 336.745 141.101 337.008C140.957 337.271 140.76 337.501 140.523 337.683C140.286 337.865 140.015 337.995 139.726 338.065L132.402 339.832C131.933 339.945 131.44 339.894 131.002 339.688C130.565 339.483 130.209 339.133 129.992 338.697L99.4412 277.291C99.3417 277.091 99.1834 276.927 98.9881 276.821C98.7929 276.716 98.5702 276.675 98.3508 276.703C98.1313 276.731 97.9258 276.827 97.7625 276.978C97.5991 277.129 97.486 277.328 97.4385 277.547L83.9937 339.609C83.889 340.092 83.6244 340.525 83.2438 340.835C82.8633 341.145 82.3896 341.314 81.9012 341.314H75.0877C74.804 341.315 74.523 341.258 74.2611 341.147C73.9993 341.036 73.7618 340.873 73.5626 340.669C73.3633 340.464 73.2063 340.221 73.1007 339.954C72.9951 339.687 72.9429 339.402 72.9473 339.114C73.5716 296.081 71.5119 247.046 87.9088 239.29L90.5867 232.235L115.223 236.576Z" fill="#2F2E41"/>
<path d="M89.8154 234.082L87.0543 217.163C86.5972 214.388 86.8369 211.542 87.7512 208.885C88.6655 206.229 90.2251 203.849 92.286 201.965C94.3006 200.098 96.7465 198.775 99.3983 198.119C102.05 197.462 104.822 197.492 107.459 198.207C107.616 198.249 107.773 198.293 107.93 198.337C111.174 199.279 114.056 201.207 116.185 203.861C118.314 206.515 119.587 209.767 119.834 213.177C120.361 220.525 119.889 231.186 114.651 240.241L114.549 240.417L89.8154 234.082Z" fill="#E0E5F8"/>
<path d="M117.608 172.509C114.602 174.608 111.034 175.725 107.383 175.71C108.686 176.625 110.168 177.243 111.729 177.522C106.875 178.577 101.858 178.605 96.9932 177.606C95.9118 177.43 94.8682 177.067 93.9085 176.532C93.4302 176.261 93.0135 175.892 92.6854 175.447C92.3574 175.003 92.1253 174.493 92.0044 173.952C91.6811 172.08 93.1202 170.38 94.6158 169.234C96.9057 167.507 99.5459 166.316 102.345 165.749C105.145 165.183 108.034 165.253 110.803 165.957C112.611 166.43 114.423 167.23 115.597 168.702C116.772 170.173 117.12 172.442 116.001 173.957L117.608 172.509Z" fill="#2F2E41"/>
<path d="M102.961 160.249C104.486 154.011 99.0209 147.079 92.6794 147.209C86.2453 147.341 81.5106 153.232 78.2559 158.858C75.0013 164.483 71.7667 170.86 65.7917 173.282C63.8144 174.083 61.6718 174.375 59.5559 174.131C57.44 173.887 55.417 173.114 53.6682 171.883C51.9194 170.652 50.4996 169 49.5359 167.075C48.5722 165.151 48.0949 163.015 48.1467 160.857C47.3445 167.692 48.4559 175.086 52.8055 180.372C57.1552 185.658 65.2486 188.04 71.066 184.488C74.3885 182.459 76.5121 178.932 78.2629 175.425C80.0137 171.917 81.5716 168.218 84.2244 165.351C86.8773 162.483 90.9792 160.579 94.6711 161.786C96.1366 162.265 97.4513 163.199 98.9654 163.483C100.479 163.767 102.386 163.037 102.593 161.491L102.961 160.249Z" fill="#2F2E41"/>
<path d="M71.2571 273.367C70.7112 272.719 70.3121 271.957 70.0881 271.136C69.8641 270.314 69.8206 269.453 69.9607 268.613C70.1007 267.772 70.4209 266.973 70.8987 266.272C71.3765 265.57 72.0002 264.984 72.726 264.553L84.1365 212.728L95.7116 217.542L80.8557 266.97C81.489 268.254 81.6357 269.728 81.268 271.114C80.9002 272.499 80.0437 273.7 78.8605 274.489C77.6774 275.277 76.2499 275.599 74.8486 275.392C73.4472 275.185 72.1694 274.465 71.2572 273.367H71.2571Z" fill="#FFB8B8"/>
<path d="M79.6156 220.163C79.4333 219.836 79.3229 219.473 79.2918 219.098C79.2607 218.724 79.3097 218.347 79.4354 217.994L83.8232 205.65C84.1966 203.766 85.2923 202.109 86.87 201.042C88.4476 199.975 90.3784 199.585 92.2391 199.958C94.0998 200.332 95.7384 201.437 96.7957 203.033C97.853 204.629 98.2427 206.584 97.8793 208.471L97.2127 221.616C97.1937 221.991 97.095 222.357 96.9236 222.69C96.7521 223.023 96.5118 223.315 96.219 223.545C95.9263 223.776 95.588 223.94 95.2271 224.026C94.8662 224.112 94.4913 224.118 94.1279 224.044L81.3542 221.442C80.9907 221.368 80.6471 221.215 80.3471 220.995C80.047 220.774 79.7975 220.49 79.6156 220.163Z" fill="#E0E5F8"/>
<path d="M173.105 214.351L172.914 214.324L173.63 209.048C173.74 208.238 173.528 207.417 173.04 206.765C172.553 206.114 171.83 205.685 171.031 205.574L159.998 204.037C159.199 203.926 158.389 204.141 157.746 204.635C157.103 205.129 156.68 205.862 156.57 206.671L152.643 235.618C152.533 236.428 152.745 237.249 153.233 237.901C153.72 238.552 154.443 238.981 155.242 239.092L166.275 240.629C167.074 240.74 167.885 240.525 168.527 240.031C169.17 239.537 169.593 238.805 169.703 237.995L172.405 218.08L172.595 218.106L173.105 214.351Z" fill="#3F3D56"/>
<path d="M170.684 207.122L169.31 206.931C169.352 207.096 169.353 207.27 169.313 207.436C169.273 207.603 169.194 207.756 169.081 207.884C168.969 208.012 168.827 208.109 168.669 208.168C168.51 208.228 168.34 208.246 168.173 208.223L162.144 207.383C161.977 207.36 161.818 207.295 161.681 207.195C161.544 207.095 161.434 206.962 161.36 206.808C161.285 206.655 161.25 206.485 161.255 206.314C161.261 206.143 161.308 205.976 161.393 205.828L160.11 205.649C159.828 205.61 159.541 205.627 159.266 205.7C158.991 205.773 158.732 205.901 158.505 206.075C158.279 206.249 158.088 206.467 157.944 206.716C157.801 206.965 157.707 207.24 157.668 207.526L153.928 235.096C153.889 235.382 153.906 235.672 153.978 235.951C154.05 236.23 154.176 236.492 154.348 236.722C154.52 236.952 154.735 237.145 154.98 237.29C155.226 237.436 155.497 237.531 155.779 237.571L166.353 239.043C166.923 239.123 167.5 238.97 167.958 238.618C168.416 238.266 168.717 237.744 168.795 237.167L172.536 209.596C172.614 209.019 172.463 208.435 172.116 207.971C171.768 207.507 171.253 207.201 170.684 207.122L170.684 207.122Z" fill="white"/>
<path d="M163.185 230.012C166.438 230.012 169.076 227.34 169.076 224.043C169.076 220.746 166.438 218.073 163.185 218.073C159.931 218.073 157.293 220.746 157.293 224.043C157.293 227.34 159.931 230.012 163.185 230.012Z" fill="#4F55EB"/>
<path d="M162.601 226.32C162.468 226.32 162.339 226.277 162.233 226.196L162.227 226.191L160.842 225.117C160.778 225.067 160.724 225.005 160.683 224.934C160.642 224.864 160.616 224.785 160.605 224.704C160.594 224.623 160.6 224.54 160.62 224.461C160.641 224.382 160.677 224.307 160.726 224.242C160.776 224.177 160.837 224.122 160.907 224.081C160.977 224.04 161.055 224.014 161.135 224.003C161.215 223.993 161.297 223.998 161.375 224.019C161.453 224.041 161.526 224.078 161.59 224.128L162.487 224.824L164.606 222.024C164.655 221.959 164.717 221.904 164.787 221.864C164.857 221.823 164.934 221.796 165.014 221.785C165.094 221.775 165.175 221.78 165.253 221.801C165.331 221.822 165.405 221.859 165.469 221.909L165.455 221.927L165.469 221.909C165.598 222.01 165.683 222.158 165.704 222.322C165.726 222.486 165.682 222.651 165.583 222.783L163.09 226.077C163.032 226.153 162.958 226.214 162.873 226.256C162.789 226.298 162.695 226.32 162.601 226.32Z" fill="white"/>
</svg>
