<svg width="261" height="59" viewBox="0 0 261 59" fill="none" xmlns="http://www.w3.org/2000/svg">
<path d="M50.75 39.1061V19.553C50.7491 18.6958 50.5254 17.8539 50.1012 17.1118C49.677 16.3696 49.0674 15.7533 48.3333 15.3247L31.4167 5.54818C30.6819 5.11915 29.8484 4.89328 29 4.89328C28.1516 4.89328 27.3181 5.11915 26.5833 5.54818L9.66667 15.3247C8.93263 15.7533 8.32295 16.3696 7.89878 17.1118C7.47461 17.8539 7.25087 18.6958 7.25 19.553V39.1061C7.25087 39.9633 7.47461 40.8052 7.89878 41.5474C8.32295 42.2895 8.93263 42.9058 9.66667 43.3344L26.5833 53.1109C27.3181 53.54 28.1516 53.7658 29 53.7658C29.8484 53.7658 30.6819 53.54 31.4167 53.1109L48.3333 43.3344C49.0674 42.9058 49.677 42.2895 50.1012 41.5474C50.5254 40.8052 50.7491 39.9633 50.75 39.1061Z" stroke="#E0E5F8" stroke-width="3.29545" stroke-linecap="round" stroke-linejoin="round"/>
<path d="M18.125 10.2898L29 16.6445L39.875 10.2898" stroke="#E0E5F8" stroke-width="3.29545" stroke-linecap="round" stroke-linejoin="round"/>
<path d="M18.125 48.3693V35.6843L7.25 29.3296" stroke="#E0E5F8" stroke-width="3.29545" stroke-linecap="round" stroke-linejoin="round"/>
<path d="M50.75 29.3296L39.875 35.6843V48.3693" stroke="#E0E5F8" stroke-width="3.29545" stroke-linecap="round" stroke-linejoin="round"/>
<path d="M7.90259 17.0111L29.0001 29.354L50.0976 17.0111" stroke="#E0E5F8" stroke-width="3.29545" stroke-linecap="round" stroke-linejoin="round"/>
<path d="M29 53.9664V29.3296" stroke="#E0E5F8" stroke-width="3.29545" stroke-linecap="round" stroke-linejoin="round"/>
<path d="M78.1047 41.3296V17.1134H87.6588C89.4876 17.1134 91.0484 17.4405 92.3412 18.0948C93.6419 18.7412 94.6312 19.6595 95.3091 20.8498C95.9949 22.0323 96.3378 23.4236 96.3378 25.0238C96.3378 26.6319 95.991 28.0154 95.2973 29.1742C94.6036 30.3251 93.5985 31.2079 92.2821 31.8228C90.9735 32.4377 89.3891 32.7451 87.5287 32.7451H81.1318V28.6302H86.701C87.6785 28.6302 88.4904 28.4962 89.1368 28.2282C89.7832 27.9602 90.2641 27.5582 90.5794 27.0221C90.9026 26.4861 91.0642 25.82 91.0642 25.0238C91.0642 24.2198 90.9026 23.5418 90.5794 22.99C90.2641 22.4382 89.7793 22.0204 89.125 21.7367C88.4786 21.445 87.6627 21.2992 86.6774 21.2992H83.2247V41.3296H78.1047ZM91.1824 30.3093L97.201 41.3296H91.549L85.6605 30.3093H91.1824ZM107.846 41.6843C105.978 41.6843 104.369 41.3059 103.022 40.5492C101.681 39.7845 100.649 38.7046 99.9235 37.3093C99.1983 35.9061 98.8357 34.2468 98.8357 32.3313C98.8357 30.463 99.1983 28.8234 99.9235 27.4123C100.649 26.0013 101.67 24.9016 102.986 24.1134C104.31 23.3251 105.863 22.9309 107.645 22.9309C108.843 22.9309 109.958 23.1241 110.991 23.5103C112.032 23.8887 112.938 24.4602 113.711 25.2248C114.491 25.9895 115.098 26.9512 115.532 28.11C115.965 29.2609 116.182 30.6088 116.182 32.1539V33.5373H100.846V30.4157H111.44C111.44 29.6905 111.283 29.048 110.967 28.4884C110.652 27.9287 110.215 27.4912 109.655 27.1759C109.103 26.8527 108.461 26.6911 107.728 26.6911C106.963 26.6911 106.285 26.8684 105.694 27.2231C105.11 27.57 104.653 28.039 104.322 28.6302C103.991 29.2136 103.822 29.8639 103.814 30.5813V33.5492C103.814 34.4478 103.979 35.2243 104.31 35.8785C104.649 36.5328 105.126 37.0373 105.741 37.3921C106.356 37.7468 107.085 37.9242 107.929 37.9242C108.488 37.9242 109.001 37.8453 109.466 37.6877C109.931 37.53 110.329 37.2935 110.66 36.9782C110.991 36.6629 111.243 36.2766 111.417 35.8194L116.076 36.1269C115.839 37.2462 115.354 38.2237 114.621 39.0593C113.896 39.887 112.958 40.5334 111.807 40.9985C110.664 41.4557 109.344 41.6843 107.846 41.6843ZM124.648 41.6725C123.489 41.6725 122.457 41.4715 121.55 41.0694C120.644 40.6595 119.926 40.0565 119.398 39.2603C118.878 38.4563 118.618 37.4551 118.618 36.2569C118.618 35.2479 118.803 34.4005 119.174 33.7147C119.544 33.0289 120.049 32.4771 120.687 32.0593C121.326 31.6415 122.051 31.3262 122.863 31.1133C123.683 30.9005 124.542 30.7507 125.44 30.664C126.497 30.5537 127.348 30.4512 127.994 30.3566C128.641 30.2541 129.11 30.1043 129.402 29.9073C129.693 29.7102 129.839 29.4185 129.839 29.0323V28.9613C129.839 28.2125 129.603 27.6331 129.13 27.2231C128.665 26.8132 128.002 26.6083 127.143 26.6083C126.237 26.6083 125.515 26.8093 124.979 27.2113C124.443 27.6055 124.089 28.1021 123.915 28.7012L119.256 28.3228C119.493 27.2192 119.958 26.2654 120.652 25.4613C121.345 24.6494 122.24 24.0266 123.336 23.5931C124.439 23.1516 125.716 22.9309 127.167 22.9309C128.176 22.9309 129.141 23.0492 130.064 23.2857C130.994 23.5221 131.818 23.8887 132.535 24.3853C133.26 24.8819 133.832 25.5204 134.25 26.3009C134.667 27.0734 134.876 27.9996 134.876 29.0796V41.3296H130.099V38.811H129.957C129.666 39.3785 129.275 39.8791 128.787 40.3127C128.298 40.7383 127.711 41.0734 127.025 41.3177C126.339 41.5542 125.547 41.6725 124.648 41.6725ZM126.091 38.1961C126.832 38.1961 127.486 38.0503 128.054 37.7586C128.621 37.4591 129.067 37.057 129.39 36.5525C129.713 36.048 129.875 35.4765 129.875 34.838V32.9106C129.717 33.0131 129.5 33.1077 129.224 33.1944C128.956 33.2733 128.653 33.3481 128.314 33.4191C127.975 33.4822 127.636 33.5413 127.297 33.5965C126.958 33.6438 126.65 33.6871 126.375 33.7265C125.783 33.8132 125.267 33.9512 124.826 34.1404C124.384 34.3296 124.041 34.5858 123.797 34.909C123.552 35.2243 123.43 35.6184 123.43 36.0914C123.43 36.7772 123.679 37.3014 124.175 37.664C124.68 38.0188 125.318 38.1961 126.091 38.1961ZM143.821 17.1134V41.3296H138.784V17.1134H143.821ZM147.951 17.1134H154.265L160.934 33.3836H161.218L167.887 17.1134H174.201V41.3296H169.235V25.5677H169.034L162.767 41.2113H159.385L153.118 25.5086H152.917V41.3296H147.951V17.1134ZM183.504 41.6725C182.345 41.6725 181.312 41.4715 180.406 41.0694C179.499 40.6595 178.782 40.0565 178.254 39.2603C177.733 38.4563 177.473 37.4551 177.473 36.2569C177.473 35.2479 177.659 34.4005 178.029 33.7147C178.4 33.0289 178.904 32.4771 179.543 32.0593C180.181 31.6415 180.906 31.3262 181.718 31.1133C182.538 30.9005 183.397 30.7507 184.296 30.664C185.352 30.5537 186.204 30.4512 186.85 30.3566C187.496 30.2541 187.965 30.1043 188.257 29.9073C188.549 29.7102 188.695 29.4185 188.695 29.0323V28.9613C188.695 28.2125 188.458 27.6331 187.985 27.2231C187.52 26.8132 186.858 26.6083 185.999 26.6083C185.092 26.6083 184.371 26.8093 183.835 27.2113C183.299 27.6055 182.944 28.1021 182.771 28.7012L178.112 28.3228C178.348 27.2192 178.813 26.2654 179.507 25.4613C180.201 24.6494 181.096 24.0266 182.191 23.5931C183.295 23.1516 184.572 22.9309 186.022 22.9309C187.031 22.9309 187.997 23.0492 188.919 23.2857C189.849 23.5221 190.673 23.8887 191.391 24.3853C192.116 24.8819 192.687 25.5204 193.105 26.3009C193.523 27.0734 193.732 27.9996 193.732 29.0796V41.3296H188.955V38.811H188.813C188.521 39.3785 188.131 39.8791 187.642 40.3127C187.154 40.7383 186.566 41.0734 185.88 41.3177C185.195 41.5542 184.402 41.6725 183.504 41.6725ZM184.946 38.1961C185.687 38.1961 186.342 38.0503 186.909 37.7586C187.477 37.4591 187.922 37.057 188.245 36.5525C188.568 36.048 188.73 35.4765 188.73 34.838V32.9106C188.572 33.0131 188.356 33.1077 188.08 33.1944C187.812 33.2733 187.508 33.3481 187.169 33.4191C186.83 33.4822 186.491 33.5413 186.152 33.5965C185.813 33.6438 185.506 33.6871 185.23 33.7265C184.639 33.8132 184.123 33.9512 183.681 34.1404C183.24 34.3296 182.897 34.5858 182.652 34.909C182.408 35.2243 182.286 35.6184 182.286 36.0914C182.286 36.7772 182.534 37.3014 183.031 37.664C183.535 38.0188 184.174 38.1961 184.946 38.1961ZM197.64 41.3296V23.1674H202.523V26.3363H202.712C203.043 25.2091 203.599 24.3577 204.38 23.7823C205.16 23.1989 206.059 22.9073 207.076 22.9073C207.328 22.9073 207.6 22.923 207.891 22.9546C208.183 22.9861 208.439 23.0295 208.66 23.0846V27.5542C208.423 27.4833 208.096 27.4202 207.679 27.365C207.261 27.3099 206.878 27.2823 206.532 27.2823C205.791 27.2823 205.128 27.4439 204.545 27.7671C203.97 28.0824 203.512 28.5238 203.173 29.0914C202.842 29.659 202.677 30.3132 202.677 31.0542V41.3296H197.64ZM215.828 36.1032L215.84 30.061H216.573L222.391 23.1674H228.173L220.357 32.2958H219.163L215.828 36.1032ZM211.264 41.3296V17.1134H216.301V41.3296H211.264ZM222.616 41.3296L217.271 33.4191L220.629 29.86L228.516 41.3296H222.616ZM238.173 41.6843C236.305 41.6843 234.697 41.3059 233.349 40.5492C232.009 39.7845 230.976 38.7046 230.251 37.3093C229.526 35.9061 229.163 34.2468 229.163 32.3313C229.163 30.463 229.526 28.8234 230.251 27.4123C230.976 26.0013 231.997 24.9016 233.314 24.1134C234.638 23.3251 236.191 22.9309 237.972 22.9309C239.171 22.9309 240.286 23.1241 241.319 23.5103C242.359 23.8887 243.266 24.4602 244.038 25.2248C244.819 25.9895 245.426 26.9512 245.859 28.11C246.293 29.2609 246.51 30.6088 246.51 32.1539V33.5373H231.173V30.4157H241.768C241.768 29.6905 241.61 29.048 241.295 28.4884C240.98 27.9287 240.542 27.4912 239.983 27.1759C239.431 26.8527 238.788 26.6911 238.055 26.6911C237.291 26.6911 236.613 26.8684 236.021 27.2231C235.438 27.57 234.981 28.039 234.65 28.6302C234.319 29.2136 234.149 29.8639 234.141 30.5813V33.5492C234.141 34.4478 234.307 35.2243 234.638 35.8785C234.977 36.5328 235.454 37.0373 236.069 37.3921C236.684 37.7468 237.413 37.9242 238.256 37.9242C238.816 37.9242 239.328 37.8453 239.793 37.6877C240.258 37.53 240.657 37.2935 240.988 36.9782C241.319 36.6629 241.571 36.2766 241.744 35.8194L246.403 36.1269C246.167 37.2462 245.682 38.2237 244.949 39.0593C244.224 39.887 243.286 40.5334 242.135 40.9985C240.992 41.4557 239.671 41.6843 238.173 41.6843ZM259.457 23.1674V26.9512H248.52V23.1674H259.457ZM251.003 18.8161H256.04V35.7485C256.04 36.2136 256.111 36.5762 256.253 36.8363C256.395 37.0886 256.592 37.2659 256.844 37.3684C257.104 37.4709 257.404 37.5221 257.743 37.5221C257.979 37.5221 258.216 37.5024 258.452 37.463C258.689 37.4157 258.87 37.3802 258.996 37.3566L259.788 41.1049C259.536 41.1837 259.181 41.2744 258.724 41.3769C258.267 41.4872 257.711 41.5542 257.057 41.5779C255.843 41.6252 254.779 41.4636 253.864 41.0931C252.958 40.7226 252.252 40.1471 251.748 39.3667C251.243 38.5863 250.995 37.601 251.003 36.4106V18.8161Z" fill="url(#paint0_linear_17_667)"/>
<defs>
<linearGradient id="paint0_linear_17_667" x1="199.772" y1="29.0017" x2="76" y2="29.0017" gradientUnits="userSpaceOnUse">
<stop stop-color="#F87171"/>
<stop offset="1" stop-color="#D2E2E9"/>
</linearGradient>
</defs>
</svg>
