<svg width="339" height="291" viewBox="0 0 339 291" fill="none" xmlns="http://www.w3.org/2000/svg">
<path d="M68.0801 152.217L77.2701 190.285L257.038 146.646L247.848 108.578C247.737 108.112 247.511 107.683 247.19 107.328C246.869 106.974 246.464 106.707 246.013 106.552C245.679 106.434 245.327 106.381 244.974 106.395L141.06 52.4415C140.451 52.1297 139.751 52.0464 139.087 52.2066C138.422 52.3669 137.836 52.7601 137.435 53.3154L87.3542 123.347L68.4743 149.755C68.44 149.801 68.4161 149.854 68.4042 149.911C68.3922 149.967 68.3925 150.025 68.405 150.081C68.0208 150.723 67.904 151.49 68.0801 152.217V152.217Z" fill="white"/>
<path d="M68.4046 150.081C68.4135 150.131 68.4321 150.178 68.4592 150.22C68.4864 150.263 68.5215 150.299 68.5628 150.328C68.6116 150.361 68.6666 150.385 68.7246 150.396C68.7827 150.408 68.8424 150.407 68.9002 150.395C68.9942 150.37 69.0765 150.312 69.1329 150.233L69.1977 150.143L70.1808 148.764L88.0336 123.807L138.099 53.7921C138.385 53.3953 138.803 53.1144 139.278 53.0003C139.752 52.8863 140.252 52.9466 140.686 53.1704L243.795 106.706L244.72 107.188C244.757 107.203 244.796 107.217 244.835 107.228C244.904 107.215 244.975 107.208 245.046 107.208C245.143 107.175 245.224 107.107 245.272 107.016C245.297 106.969 245.312 106.917 245.317 106.863C245.322 106.81 245.317 106.756 245.301 106.704C245.285 106.653 245.259 106.605 245.225 106.564C245.191 106.522 245.149 106.488 245.101 106.463L244.974 106.395L141.06 52.4415C140.451 52.1297 139.751 52.0464 139.086 52.2066C138.421 52.3669 137.836 52.7601 137.434 53.3154L87.3538 123.347L68.4739 149.755C68.4397 149.801 68.4157 149.854 68.4038 149.911C68.3918 149.967 68.3921 150.025 68.4046 150.081V150.081Z" fill="#3F3D56"/>
<path d="M122.395 153.963L126.396 154.408L156.095 157.707L175.783 159.893L176.946 160.023L201.513 140.78L202.454 140.043L208.257 135.499L228.9 119.332L229.024 118.196L236.367 51.7409C236.467 50.8258 236.201 49.9082 235.628 49.1894C235.054 48.4705 234.22 48.009 233.308 47.906L135.314 37.0206C134.402 36.9206 133.487 37.1874 132.77 37.7624C132.053 38.3374 131.593 39.1738 131.49 40.0884L126.312 86.9646L123.439 112.954L120.87 136.204L119.679 147.002L119.331 150.129C119.232 151.045 119.499 151.962 120.073 152.681C120.647 153.399 121.482 153.86 122.395 153.963V153.963Z" fill="#E6E6E6"/>
<path d="M149.324 95.7121L191.771 100.426L206.825 102.098C207.49 102.172 208.162 102.114 208.804 101.927C209.447 101.74 210.046 101.428 210.568 101.009C211.09 100.59 211.524 100.072 211.847 99.4843C212.169 98.8968 212.373 98.2514 212.446 97.5849C212.52 96.9185 212.462 96.244 212.276 95.6C212.089 94.956 211.778 94.3552 211.36 93.8317C210.943 93.3082 210.426 92.8725 209.84 92.5492C209.254 92.226 208.611 92.0216 207.946 91.9478L189.223 89.8684L150.448 85.557C149.105 85.4083 147.759 85.8003 146.705 86.6468C145.65 87.4933 144.974 88.725 144.825 90.0712C144.676 91.4174 145.066 92.7678 145.91 93.8256C146.753 94.8834 147.981 95.5619 149.324 95.7121Z" fill="white"/>
<path d="M146.907 114.541C147.016 114.561 147.126 114.581 147.237 114.591L196.512 120.065L204.74 120.981C206.082 121.13 207.429 120.738 208.484 119.891C209.538 119.044 210.214 117.812 210.363 116.466C210.511 115.119 210.12 113.769 209.276 112.711C208.431 111.654 207.202 110.976 205.86 110.827L193.964 109.507L154.931 105.17L148.363 104.44C147.049 104.293 145.73 104.664 144.684 105.475C143.638 106.286 142.948 107.472 142.759 108.784C142.57 110.096 142.897 111.43 143.671 112.505C144.445 113.579 145.606 114.309 146.907 114.541V114.541Z" fill="white"/>
<path d="M141.33 131.237C141.734 131.91 142.287 132.48 142.946 132.903C143.605 133.326 144.352 133.591 145.13 133.678L165.326 135.921L201.296 139.917L201.304 139.915L202.454 140.043L208.257 135.499C208.293 135.154 208.293 134.806 208.258 134.461C208.135 133.301 207.622 132.219 206.803 131.392C205.983 130.565 204.907 130.044 203.752 129.913L198.755 129.357L178.934 127.157L164.672 125.571L146.25 123.524C145.306 123.419 144.351 123.581 143.494 123.992C142.637 124.402 141.912 125.045 141.4 125.848C140.888 126.65 140.61 127.58 140.598 128.533C140.586 129.485 140.839 130.422 141.33 131.237L141.33 131.237Z" fill="white"/>
<path d="M169.698 72.696L180.259 73.869L184.924 74.3885L191.971 75.1705C193.313 75.3195 194.66 74.9274 195.715 74.0806C196.769 73.2338 197.445 72.0016 197.594 70.6551C197.742 69.3086 197.351 67.958 196.507 66.9006C195.662 65.8431 194.433 65.1654 193.091 65.0165L170.823 62.5449C169.48 62.3953 168.134 62.7866 167.079 63.6326C166.024 64.4787 165.348 65.7102 165.199 67.0563C165.049 68.4024 165.44 69.7529 166.283 70.8105C167.127 71.8681 168.355 72.5464 169.698 72.696V72.696Z" fill="white"/>
<path d="M83.337 100.97L96.2133 154.308L117.704 158.406L137.584 162.201L158.913 166.271L165.728 167.571C166.127 167.647 166.538 167.636 166.932 167.541C167.327 167.445 167.697 167.266 168.017 167.016L173.484 162.733L176.946 160.023L201.513 140.78L185.893 76.0743C185.738 75.4305 185.402 74.8451 184.924 74.3885C184.505 73.9844 183.991 73.6927 183.429 73.5403C182.868 73.3878 182.277 73.3796 181.712 73.5162L85.8879 96.7777C84.9956 96.995 84.2258 97.5585 83.7475 98.3445C83.2692 99.1305 83.1215 100.075 83.337 100.97V100.97Z" fill="#6C63FF"/>
<path d="M112.862 143.402C113.181 144.718 114.008 145.853 115.16 146.558C116.313 147.264 117.697 147.481 119.01 147.164L175.238 133.515C176.549 133.194 177.681 132.365 178.384 131.21C179.087 130.054 179.305 128.666 178.989 127.35C178.975 127.285 178.956 127.22 178.934 127.157C178.575 125.888 177.74 124.808 176.604 124.142C175.468 123.477 174.12 123.278 172.841 123.588L116.614 137.237C115.302 137.557 114.17 138.386 113.466 139.542C112.763 140.697 112.546 142.086 112.862 143.402Z" fill="white"/>
<path d="M117.704 158.406L137.584 162.201L179.695 151.978C181.008 151.66 182.14 150.831 182.844 149.675C183.547 148.519 183.764 147.13 183.446 145.814C183.129 144.497 182.302 143.361 181.149 142.656C179.997 141.95 178.611 141.733 177.299 142.052L121.071 155.701C119.896 155.984 118.861 156.68 118.153 157.662C117.983 157.897 117.833 158.145 117.704 158.406Z" fill="white"/>
<path d="M158.913 166.271L165.728 167.571C166.127 167.647 166.538 167.636 166.932 167.541C167.327 167.445 167.697 167.266 168.017 167.016L173.485 162.733L158.913 166.271Z" fill="white"/>
<path d="M124.192 114.801C124.51 116.117 125.337 117.252 126.49 117.957C127.642 118.663 129.027 118.881 130.339 118.563L152.118 113.276C153.429 112.956 154.561 112.127 155.264 110.971C155.967 109.816 156.185 108.428 155.869 107.112C155.699 106.404 155.379 105.742 154.931 105.17C154.328 104.397 153.517 103.815 152.593 103.492C151.669 103.169 150.672 103.12 149.721 103.35L127.943 108.636C126.63 108.955 125.498 109.784 124.794 110.94C124.091 112.096 123.874 113.485 124.192 114.801V114.801Z" fill="white"/>
<path d="M137.582 162.201L158.915 166.271L165.728 167.572C166.127 167.647 166.537 167.636 166.931 167.541C167.325 167.445 167.695 167.266 168.015 167.017L173.487 162.734L171.567 163.2L167.514 166.371C167.285 166.549 167.021 166.676 166.739 166.745C166.457 166.813 166.164 166.821 165.879 166.767L160.835 165.805L139.502 161.735L137.582 162.201ZM201.302 139.918L201.51 140.778L202.456 140.041L201.302 139.918ZM137.582 162.201L158.915 166.271L165.728 167.572C166.127 167.647 166.537 167.636 166.931 167.541C167.325 167.445 167.695 167.266 168.015 167.017L173.487 162.734L171.567 163.2L167.514 166.371C167.285 166.549 167.021 166.676 166.739 166.745C166.457 166.813 166.164 166.821 165.879 166.767L160.835 165.805L139.502 161.735L137.582 162.201ZM137.582 162.201L158.915 166.271L165.728 167.572C166.127 167.647 166.537 167.636 166.931 167.541C167.325 167.445 167.695 167.266 168.015 167.017L173.487 162.734L171.567 163.2L167.514 166.371C167.285 166.549 167.021 166.676 166.739 166.745C166.457 166.813 166.164 166.821 165.879 166.767L160.835 165.805L139.502 161.735L137.582 162.201ZM68.0801 152.217L92.1519 251.931C92.3305 252.668 92.7934 253.303 93.4389 253.698C94.0844 254.093 94.8599 254.215 95.595 254.037L269.819 211.744C270.554 211.565 271.188 211.101 271.582 210.454C271.976 209.806 272.098 209.029 271.92 208.292L247.848 108.578C247.737 108.112 247.511 107.683 247.19 107.328C246.869 106.974 246.464 106.707 246.013 106.552C245.679 106.434 245.327 106.381 244.974 106.395C244.563 106.407 244.159 106.513 243.795 106.706C243.627 106.786 243.468 106.885 243.322 107L229.024 118.197L208.258 134.463L201.301 139.912L201.302 139.918L201.296 139.919L175.784 159.89L171.567 163.2L167.514 166.371C167.285 166.549 167.021 166.676 166.739 166.745C166.457 166.813 166.164 166.821 165.879 166.767L160.835 165.805L139.502 161.735L118.151 157.662L71.386 148.738C70.9873 148.659 70.5761 148.668 70.1811 148.764C69.6493 148.895 69.1661 149.175 68.7888 149.573C68.6444 149.729 68.5158 149.9 68.405 150.081C68.0208 150.723 67.904 151.49 68.0801 152.217V152.217ZM137.582 162.201L158.915 166.271L165.728 167.572C166.127 167.647 166.537 167.636 166.931 167.541C167.325 167.445 167.695 167.266 168.015 167.017L173.487 162.734L171.567 163.2L167.514 166.371C167.285 166.549 167.021 166.676 166.739 166.745C166.457 166.813 166.164 166.821 165.879 166.767L160.835 165.805L139.502 161.735L137.582 162.201ZM137.582 162.201L158.915 166.271L165.728 167.572C166.127 167.647 166.537 167.636 166.931 167.541C167.325 167.445 167.695 167.266 168.015 167.017L173.487 162.734L171.567 163.2L167.514 166.371C167.285 166.549 167.021 166.676 166.739 166.745C166.457 166.813 166.164 166.821 165.879 166.767L160.835 165.805L139.502 161.735L137.582 162.201ZM137.582 162.201L158.915 166.271L165.728 167.572C166.127 167.647 166.537 167.636 166.931 167.541C167.325 167.445 167.695 167.266 168.015 167.017L173.487 162.734L171.567 163.2L167.514 166.371C167.285 166.549 167.021 166.676 166.739 166.745C166.457 166.813 166.164 166.821 165.879 166.767L160.835 165.805L139.502 161.735L137.582 162.201Z" fill="white"/>
<path d="M137.582 162.201L158.915 166.271L165.728 167.572C166.127 167.647 166.537 167.636 166.931 167.541C167.325 167.445 167.695 167.266 168.015 167.017L173.487 162.734L171.567 163.2L167.514 166.371C167.285 166.549 167.021 166.676 166.739 166.745C166.457 166.813 166.164 166.821 165.879 166.767L160.835 165.805L139.502 161.735L137.582 162.201ZM201.302 139.918L201.51 140.778L202.456 140.041L201.302 139.918ZM137.582 162.201L158.915 166.271L165.728 167.572C166.127 167.647 166.537 167.636 166.931 167.541C167.325 167.445 167.695 167.266 168.015 167.017L173.487 162.734L171.567 163.2L167.514 166.371C167.285 166.549 167.021 166.676 166.739 166.745C166.457 166.813 166.164 166.821 165.879 166.767L160.835 165.805L139.502 161.735L137.582 162.201ZM137.582 162.201L158.915 166.271L165.728 167.572C166.127 167.647 166.537 167.636 166.931 167.541C167.325 167.445 167.695 167.266 168.015 167.017L173.487 162.734L171.567 163.2L167.514 166.371C167.285 166.549 167.021 166.676 166.739 166.745C166.457 166.813 166.164 166.821 165.879 166.767L160.835 165.805L139.502 161.735L137.582 162.201ZM69.1981 150.143L69.3039 150.222C69.3216 150.193 69.3524 150.167 69.3759 150.137C69.6118 149.891 69.9049 149.707 70.229 149.602C70.5531 149.498 70.8981 149.475 71.2329 149.537L117.705 158.402L137.582 162.201L158.915 166.271L165.728 167.572C166.127 167.647 166.537 167.636 166.931 167.541C167.325 167.445 167.695 167.266 168.015 167.017L173.487 162.734L171.567 163.2L167.514 166.371C167.285 166.549 167.021 166.676 166.739 166.745C166.457 166.813 166.164 166.821 165.879 166.767L160.835 165.805L139.502 161.735L118.151 157.662L71.386 148.738C70.9873 148.659 70.5761 148.668 70.1811 148.764L69.1981 150.143ZM68.0801 152.217L92.1519 251.931C92.3305 252.668 92.7934 253.303 93.4389 253.698C94.0844 254.093 94.8599 254.215 95.595 254.038L269.819 211.744C270.554 211.565 271.188 211.101 271.582 210.454C271.976 209.806 272.098 209.029 271.92 208.292L247.848 108.578C247.737 108.112 247.511 107.683 247.19 107.328C246.869 106.974 246.464 106.707 246.013 106.552C245.679 106.434 245.327 106.381 244.974 106.395C244.563 106.407 244.159 106.513 243.795 106.706C243.627 106.786 243.468 106.885 243.322 107L229.024 118.197L208.258 134.463L201.301 139.912L201.302 139.918L201.296 139.919L175.784 159.89L171.567 163.2L167.514 166.371C167.285 166.549 167.021 166.676 166.739 166.745C166.457 166.813 166.164 166.821 165.879 166.767L160.835 165.805L139.502 161.735L118.151 157.662L71.386 148.738C70.9873 148.659 70.5761 148.668 70.1811 148.764C69.6493 148.895 69.1661 149.175 68.7888 149.573C68.6444 149.729 68.5158 149.9 68.405 150.081C68.0208 150.723 67.904 151.49 68.0801 152.217V152.217ZM68.8741 152.024C68.803 151.73 68.7984 151.424 68.8606 151.128C68.9227 150.832 69.0501 150.554 69.2334 150.314C69.2499 150.279 69.274 150.247 69.3039 150.222C69.3216 150.193 69.3524 150.167 69.3759 150.137C69.6118 149.891 69.9049 149.707 70.229 149.602C70.5531 149.498 70.8981 149.475 71.2329 149.537L117.705 158.402L137.582 162.201L158.915 166.271L165.728 167.572C166.127 167.647 166.537 167.636 166.931 167.541C167.325 167.445 167.695 167.266 168.015 167.017L173.487 162.734L176.947 160.023L201.51 140.778L202.456 140.04L208.254 135.498L228.902 119.329L243.829 107.639C244.056 107.462 244.318 107.335 244.597 107.267C244.676 107.248 244.755 107.235 244.835 107.228C244.905 107.215 244.976 107.208 245.046 107.207C245.285 107.205 245.522 107.244 245.748 107.322C246.069 107.435 246.358 107.626 246.587 107.878C246.817 108.131 246.979 108.437 247.061 108.769L271.132 208.483C271.196 208.744 271.207 209.015 271.166 209.281C271.124 209.547 271.031 209.802 270.892 210.031C270.752 210.261 270.568 210.46 270.352 210.619C270.135 210.777 269.889 210.891 269.628 210.954L95.4043 253.247C94.8787 253.374 94.3244 253.286 93.8633 253.003C93.4023 252.72 93.0722 252.265 92.9458 251.738L68.8741 152.024ZM137.582 162.201L158.915 166.271L165.728 167.572C166.127 167.647 166.537 167.636 166.931 167.541C167.325 167.445 167.695 167.266 168.015 167.017L173.487 162.734L171.567 163.2L167.514 166.371C167.285 166.549 167.021 166.676 166.739 166.745C166.457 166.813 166.164 166.821 165.879 166.767L160.835 165.805L139.502 161.735L137.582 162.201ZM137.582 162.201L158.915 166.271L165.728 167.572C166.127 167.647 166.537 167.636 166.931 167.541C167.325 167.445 167.695 167.266 168.015 167.017L173.487 162.734L171.567 163.2L167.514 166.371C167.285 166.549 167.021 166.676 166.739 166.745C166.457 166.813 166.164 166.821 165.879 166.767L160.835 165.805L139.502 161.735L137.582 162.201ZM137.582 162.201L158.915 166.271L165.728 167.572C166.127 167.647 166.537 167.636 166.931 167.541C167.325 167.445 167.695 167.266 168.015 167.017L173.487 162.734L171.567 163.2L167.514 166.371C167.285 166.549 167.021 166.676 166.739 166.745C166.457 166.813 166.164 166.821 165.879 166.767L160.835 165.805L139.502 161.735L137.582 162.201Z" fill="#3F3D56"/>
<path d="M224.411 192.154C224.019 190.52 224.289 188.797 225.162 187.362C226.035 185.927 227.44 184.899 229.068 184.501L251.057 179.163C252.685 178.774 254.399 179.048 255.826 179.924C257.252 180.8 258.274 182.208 258.667 183.838C259.061 185.468 258.794 187.189 257.925 188.622C257.057 190.056 255.657 191.085 254.032 191.486L232.043 196.824C230.413 197.217 228.695 196.947 227.264 196.071C225.834 195.196 224.808 193.787 224.411 192.154Z" fill="#6C63FF"/>
</svg>
