<svg width="505" height="300" viewBox="0 0 505 300" fill="none" xmlns="http://www.w3.org/2000/svg">
<g clip-path="url(#clip0_261_483)">
<path d="M366.27 144.227C367.001 143.73 367.832 143.399 368.705 143.259C369.577 143.119 370.469 143.171 371.319 143.414C372.169 143.656 372.955 144.082 373.622 144.662C374.29 145.242 374.822 145.961 375.182 146.769L388.988 146.404L391.255 154.753L371.752 154.994C370.357 155.51 368.821 155.495 367.436 154.953C366.051 154.41 364.912 153.377 364.236 152.05C363.561 150.722 363.395 149.193 363.769 147.751C364.144 146.309 365.034 145.055 366.27 144.227L366.27 144.227Z" fill="#FFB8B8"/>
<path d="M381.754 157.572C380.893 156.769 380.37 155.668 380.291 154.492L379.739 146.193C379.688 145.433 379.825 144.673 380.138 143.979C380.451 143.285 380.93 142.68 381.534 142.217L403.791 125.089L416.728 109.358C418.04 107.768 419.906 106.738 421.948 106.477C423.991 106.217 426.055 106.744 427.723 107.954L427.723 107.954C428.591 108.585 429.325 109.382 429.882 110.3C430.439 111.218 430.808 112.237 430.968 113.299C431.128 114.361 431.076 115.444 430.815 116.486C430.553 117.528 430.087 118.507 429.444 119.366L414.374 139.518L403.646 150.899C400.235 154.5 395.768 156.919 390.893 157.808L385.716 158.739C385.077 158.853 384.42 158.832 383.79 158.675C383.159 158.519 382.568 158.231 382.056 157.83C381.951 157.749 381.85 157.662 381.754 157.572Z" fill="#6C63FF"/>
<path d="M483.739 287.5L476.591 289.288L466.303 262.522L476.853 259.883L483.739 287.5Z" fill="#FFB8B8"/>
<path d="M470.974 288.52L484.76 285.071L486.928 293.766L464.462 299.385C464.177 298.243 464.12 297.057 464.293 295.893C464.466 294.729 464.866 293.61 465.471 292.601C466.076 291.593 466.873 290.713 467.817 290.012C468.762 289.312 469.834 288.805 470.974 288.52Z" fill="#2F2E41"/>
<path d="M419.223 292.532L411.855 292.532L408.352 264.066L419.225 264.067L419.223 292.532Z" fill="#FFB8B8"/>
<path d="M406.592 290.423H420.802V299.384H397.646C397.646 298.207 397.877 297.042 398.327 295.955C398.776 294.868 399.435 293.88 400.266 293.048C401.097 292.215 402.083 291.555 403.168 291.105C404.254 290.655 405.417 290.423 406.592 290.423Z" fill="#2F2E41"/>
<path d="M416.028 87.0698C424.771 87.0698 431.858 79.9712 431.858 71.2146C431.858 62.4581 424.771 55.3595 416.028 55.3595C407.286 55.3595 400.199 62.4581 400.199 71.2146C400.199 79.9712 407.286 87.0698 416.028 87.0698Z" fill="#FFB8B8"/>
<path d="M415.998 71.7767C416.027 69.656 419.671 69.3903 420.806 71.1978C421.941 73.0053 421.213 75.3634 420.213 77.2455C419.172 79.2048 417.821 81.1835 418.03 83.4088C418.101 83.9705 418.313 84.505 418.647 84.9624C418.98 85.4198 419.423 85.7853 419.935 86.0249C420.448 86.2645 421.012 86.3704 421.576 86.3327C422.14 86.295 422.686 86.1149 423.162 85.8092C428.332 82.6204 432.697 77.9787 434.628 72.3219C436.659 66.3722 435.644 59.2798 431.251 54.7087C426.858 50.1376 418.983 48.8446 413.769 52.4989L404.869 46.4273C404.659 46.2794 404.409 46.2002 404.153 46.2004C403.897 46.2007 403.647 46.2803 403.437 46.4285C403.228 46.5766 403.07 46.786 402.984 47.028C402.898 47.2699 402.889 47.5325 402.958 47.7797L404.26 52.0162L399.764 50.8834C399.573 50.8302 399.37 50.8361 399.181 50.9004C398.993 50.9648 398.829 51.0845 398.709 51.244C398.59 51.4035 398.522 51.5953 398.513 51.7943C398.505 51.9934 398.556 52.1904 398.661 52.3596L400.205 54.7611C398.146 53.0651 394.591 54.998 394.296 57.6137C394.001 60.2294 396.123 62.6407 398.619 63.6261C401.115 64.6115 403.903 64.4993 406.591 64.3718C406.301 65.6745 406.429 67.0357 406.956 68.2614C407.484 69.4871 408.384 70.5149 409.528 71.1984C411.854 72.5481 415.064 72.23 415.998 71.7767Z" fill="#2F2E41"/>
<path d="M419.427 280.511C419.397 280.511 419.366 280.511 419.336 280.51L407.955 280.155C407.569 280.143 407.189 280.053 406.837 279.892C406.486 279.73 406.17 279.5 405.909 279.215C405.648 278.93 405.446 278.595 405.315 278.231C405.185 277.866 405.129 277.479 405.15 277.093L410.842 172.407L454.576 184.83L483.255 274.42C483.392 274.85 483.428 275.305 483.359 275.751C483.291 276.197 483.119 276.62 482.859 276.988C482.598 277.356 482.256 277.658 481.859 277.871C481.461 278.083 481.02 278.2 480.57 278.212L467.463 278.56C466.871 278.572 466.289 278.404 465.795 278.078C465.3 277.752 464.916 277.284 464.692 276.735L435.194 202.824C435.115 202.627 434.973 202.46 434.791 202.352C434.608 202.243 434.395 202.197 434.184 202.222C433.973 202.247 433.776 202.34 433.623 202.489C433.471 202.637 433.371 202.831 433.34 203.042L422.295 278.03C422.194 278.72 421.848 279.35 421.322 279.805C420.795 280.26 420.123 280.511 419.427 280.511Z" fill="#2F2E41"/>
<path d="M452.454 198.671C449.347 198.669 446.321 197.684 443.806 195.857L429.733 185.681C426.645 183.454 423.068 182.001 419.303 181.448L412.532 180.458C411.492 180.309 410.545 179.778 409.875 178.968C409.205 178.158 408.859 177.127 408.905 176.076L411.604 111.362L410.002 102.136C409.873 101.384 409.961 100.61 410.258 99.9073C410.554 99.2042 411.045 98.6008 411.673 98.1689L424.216 89.5732C425.204 88.8968 426.393 88.5791 427.587 88.6727L428.045 88.709C429.329 88.8097 430.549 89.3124 431.533 90.1459C432.516 90.9795 433.213 92.1018 433.525 93.3538L434.006 95.2807L442.35 110.14C444.816 114.531 446.67 119.24 447.859 124.136L455.77 156.697C456.457 159.529 456.933 162.41 457.194 165.313L459.813 194.594C459.873 195.228 459.726 195.864 459.393 196.406C459.061 196.948 458.562 197.368 457.971 197.602C456.217 198.307 454.344 198.67 452.454 198.671Z" fill="#6C63FF"/>
<path d="M426.202 175.22C426.03 174.352 426.049 173.457 426.26 172.598C426.471 171.738 426.867 170.936 427.42 170.246C427.974 169.556 428.672 168.997 429.465 168.607C430.258 168.217 431.127 168.005 432.01 167.988L437.05 155.109L445.61 156.268L438.238 174.355C438.169 175.843 437.557 177.255 436.519 178.321C435.481 179.388 434.087 180.036 432.604 180.143C431.12 180.249 429.649 179.807 428.469 178.9C427.289 177.993 426.483 176.684 426.202 175.22Z" fill="#FFB8B8"/>
<path d="M444.503 166.131C443.43 166.613 442.213 166.667 441.102 166.282L433.255 163.559C432.536 163.311 431.89 162.888 431.374 162.329C430.858 161.77 430.488 161.092 430.297 160.355L423.213 133.152L413.785 115.091C412.834 113.262 412.613 111.139 413.168 109.153C413.724 107.168 415.013 105.468 416.774 104.4L416.774 104.4C417.693 103.846 418.712 103.479 419.772 103.322C420.833 103.166 421.915 103.222 422.953 103.488C423.992 103.753 424.968 104.223 425.824 104.87C426.68 105.517 427.399 106.328 427.939 107.256L440.603 129.006L446.891 143.336C448.874 147.884 449.36 152.947 448.278 157.791L447.119 162.929C446.975 163.564 446.7 164.162 446.31 164.683C445.921 165.204 445.426 165.636 444.858 165.953C444.742 166.018 444.624 166.077 444.503 166.131Z" fill="#6C63FF"/>
<path d="M360.907 220.066H11.3781C8.55878 220.063 5.85584 218.94 3.86227 216.943C1.86871 214.946 0.747327 212.239 0.744141 209.415V12.0081H371.541V209.415C371.538 212.239 370.416 214.946 368.423 216.943C366.429 218.94 363.726 220.063 360.907 220.066Z" fill="#E6E6E6"/>
<path d="M346.997 199.678H25.2877C23.8353 199.676 22.4429 199.097 21.4159 198.069C20.3889 197.04 19.8112 195.645 19.8096 194.191V37.883C19.8112 36.4283 20.3889 35.0336 21.4159 34.0049C22.4429 32.9762 23.8353 32.3976 25.2877 32.3959H346.997C348.449 32.3976 349.842 32.9762 350.869 34.0049C351.896 35.0335 352.474 36.4283 352.475 37.883V194.191C352.474 195.645 351.896 197.04 350.869 198.069C349.842 199.097 348.449 199.676 346.997 199.678Z" fill="white"/>
<path d="M372.285 19.2033H0V10.6514C0.00318301 7.82748 1.12457 5.1201 3.11813 3.12326C5.1117 1.12642 7.81464 0.00318824 10.634 0H361.651C364.47 0.00318994 367.173 1.12642 369.167 3.12326C371.16 5.1201 372.282 7.82748 372.285 10.6514V19.2033Z" fill="#6C63FF"/>
<path d="M107.146 63.0732H49.8834C48.4308 63.0742 47.038 63.6526 46.0108 64.6815C44.9837 65.7103 44.4062 67.1054 44.4053 68.5603V106.26C44.4062 107.715 44.9837 109.11 46.0108 110.139C47.038 111.168 48.4308 111.746 49.8834 111.747H107.146C108.598 111.745 109.99 111.166 111.017 110.138C112.044 109.109 112.622 107.715 112.624 106.26V68.5603C112.622 67.1057 112.044 65.7112 111.017 64.6826C109.99 63.6541 108.598 63.0753 107.146 63.0732Z" fill="#E6E6E6"/>
<path d="M214.774 63.0732H157.511C156.059 63.0742 154.666 63.6526 153.639 64.6815C152.612 65.7103 152.034 67.1054 152.033 68.5603V106.26C152.034 107.715 152.612 109.11 153.639 110.139C154.666 111.168 156.059 111.746 157.511 111.747H214.774C216.226 111.745 217.618 111.166 218.645 110.138C219.672 109.109 220.25 107.715 220.252 106.26V68.5603C220.25 67.1057 219.672 65.7112 218.645 64.6826C217.618 63.6541 216.226 63.0753 214.774 63.0732Z" fill="#E6E6E6"/>
<path d="M322.403 63.0732H265.14C263.688 63.0742 262.295 63.6526 261.268 64.6815C260.241 65.7103 259.663 67.1054 259.662 68.5603V106.26C259.663 107.715 260.241 109.11 261.268 110.139C262.295 111.168 263.688 111.746 265.14 111.747H322.403C323.855 111.745 325.247 111.166 326.274 110.138C327.301 109.109 327.879 107.715 327.881 106.26V68.5603C327.879 67.1057 327.301 65.7112 326.274 64.6826C325.247 63.6541 323.855 63.0753 322.403 63.0732Z" fill="#E6E6E6"/>
<path d="M99.0446 129.564H57.9846C57.177 129.564 56.4024 129.885 55.8314 130.457C55.2603 131.029 54.9395 131.805 54.9395 132.614C54.9395 133.423 55.2603 134.199 55.8314 134.771C56.4024 135.343 57.177 135.664 57.9846 135.664H99.0446C99.8523 135.664 100.627 135.343 101.198 134.771C101.769 134.199 102.09 133.423 102.09 132.614C102.09 131.805 101.769 131.029 101.198 130.457C100.627 129.885 99.8523 129.564 99.0446 129.564Z" fill="#E6E6E6"/>
<path d="M99.0442 146.232H57.9842C57.2872 146.231 56.6109 146.469 56.0684 146.907C55.5258 147.346 55.1499 147.957 55.0035 148.64C54.857 149.322 54.949 150.034 55.2639 150.657C55.5788 151.28 56.0977 151.776 56.7336 152.061C57.1262 152.24 57.5528 152.333 57.9842 152.332H99.0442C99.8519 152.332 100.626 152.011 101.197 151.439C101.769 150.867 102.089 150.091 102.089 149.282C102.089 148.473 101.769 147.697 101.197 147.125C100.626 146.553 99.8519 146.232 99.0442 146.232Z" fill="#E6E6E6"/>
<path d="M99.0446 162.9H57.9846C57.177 162.9 56.4024 163.221 55.8314 163.793C55.2603 164.365 54.9395 165.141 54.9395 165.95C54.9395 166.759 55.2603 167.535 55.8314 168.107C56.4024 168.679 57.177 169 57.9846 169H99.0446C99.8523 169 100.627 168.679 101.198 168.107C101.769 167.535 102.09 166.759 102.09 165.95C102.09 165.141 101.769 164.365 101.198 163.793C100.627 163.221 99.8523 162.9 99.0446 162.9Z" fill="#E6E6E6"/>
<path d="M206.673 129.564H165.613C164.805 129.564 164.03 129.885 163.459 130.457C162.888 131.029 162.567 131.805 162.567 132.614C162.567 133.423 162.888 134.199 163.459 134.771C164.03 135.343 164.805 135.664 165.613 135.664H206.673C207.48 135.664 208.255 135.343 208.826 134.771C209.397 134.199 209.718 133.423 209.718 132.614C209.718 131.805 209.397 131.029 208.826 130.457C208.255 129.885 207.48 129.564 206.673 129.564Z" fill="#E6E6E6"/>
<path d="M206.673 146.232H165.613C164.805 146.232 164.03 146.553 163.459 147.125C162.888 147.697 162.567 148.473 162.567 149.282C162.567 150.091 162.888 150.867 163.459 151.439C164.03 152.011 164.805 152.332 165.613 152.332H206.673C207.48 152.332 208.255 152.011 208.826 151.439C209.397 150.867 209.718 150.091 209.718 149.282C209.718 148.473 209.397 147.697 208.826 147.125C208.255 146.553 207.48 146.232 206.673 146.232Z" fill="#E6E6E6"/>
<path d="M206.673 162.9H165.613C164.889 162.899 164.189 163.156 163.637 163.626C163.086 164.096 162.719 164.747 162.604 165.463C162.488 166.178 162.631 166.912 163.006 167.532C163.382 168.152 163.965 168.617 164.653 168.845C164.962 168.949 165.287 169.002 165.613 169H206.673C207.481 169 208.255 168.679 208.826 168.107C209.397 167.535 209.718 166.759 209.718 165.95C209.718 165.141 209.397 164.365 208.826 163.793C208.255 163.221 207.481 162.9 206.673 162.9Z" fill="#E6E6E6"/>
<path d="M314.301 129.564H273.241C272.434 129.564 271.659 129.885 271.088 130.457C270.517 131.029 270.196 131.805 270.196 132.614C270.196 133.423 270.517 134.199 271.088 134.771C271.659 135.343 272.434 135.664 273.241 135.664H314.301C315.109 135.664 315.884 135.343 316.455 134.771C317.026 134.199 317.347 133.423 317.347 132.614C317.347 131.805 317.026 131.029 316.455 130.457C315.884 129.885 315.109 129.564 314.301 129.564Z" fill="#E6E6E6"/>
<path d="M314.302 146.232H273.242C272.545 146.231 271.869 146.469 271.326 146.907C270.784 147.346 270.408 147.957 270.261 148.64C270.115 149.322 270.207 150.034 270.522 150.657C270.837 151.28 271.355 151.776 271.991 152.061C272.384 152.24 272.811 152.333 273.242 152.332H314.302C315.11 152.332 315.884 152.011 316.455 151.439C317.026 150.867 317.347 150.091 317.347 149.282C317.347 148.473 317.026 147.697 316.455 147.125C315.884 146.553 315.11 146.232 314.302 146.232Z" fill="#E6E6E6"/>
<path d="M314.301 162.9H273.241C272.434 162.9 271.659 163.221 271.088 163.793C270.517 164.365 270.196 165.141 270.196 165.95C270.196 166.759 270.517 167.535 271.088 168.107C271.659 168.679 272.434 169 273.241 169H314.301C315.109 169 315.884 168.679 316.455 168.107C317.026 167.535 317.347 166.759 317.347 165.95C317.347 165.141 317.026 164.365 316.455 163.793C315.884 163.221 315.109 162.9 314.301 162.9Z" fill="#E6E6E6"/>
<path d="M12.1971 12.4797C13.7217 12.4797 14.9577 11.2417 14.9577 9.71459C14.9577 8.18745 13.7217 6.94946 12.1971 6.94946C10.6725 6.94946 9.43652 8.18745 9.43652 9.71459C9.43652 11.2417 10.6725 12.4797 12.1971 12.4797Z" fill="white"/>
<path d="M22.6756 12.4797C24.2003 12.4797 25.4362 11.2417 25.4362 9.71459C25.4362 8.18745 24.2003 6.94946 22.6756 6.94946C21.151 6.94946 19.915 8.18745 19.915 9.71459C19.915 11.2417 21.151 12.4797 22.6756 12.4797Z" fill="white"/>
<path d="M33.1541 12.4797C34.6788 12.4797 35.9147 11.2417 35.9147 9.71459C35.9147 8.18745 34.6788 6.94946 33.1541 6.94946C31.6295 6.94946 30.3936 8.18745 30.3936 9.71459C30.3936 11.2417 31.6295 12.4797 33.1541 12.4797Z" fill="white"/>
<path d="M87.3599 129.564H57.9846C57.177 129.564 56.4024 129.885 55.8314 130.457C55.2603 131.029 54.9395 131.805 54.9395 132.614C54.9395 133.423 55.2603 134.199 55.8314 134.771C56.4024 135.343 57.177 135.664 57.9846 135.664H86.7478C87.3298 135.426 87.8359 135.033 88.212 134.528C88.5881 134.023 88.82 133.425 88.8829 132.798C88.9458 132.172 88.8373 131.539 88.569 130.97C88.3007 130.4 87.8828 129.914 87.3599 129.564Z" fill="#6C63FF"/>
<path d="M73.7933 146.232H57.9842C57.2872 146.231 56.6109 146.469 56.0684 146.907C55.5258 147.346 55.1499 147.957 55.0035 148.64C54.857 149.322 54.949 150.034 55.2639 150.657C55.5788 151.28 56.0977 151.776 56.7337 152.061H71.254C72.1735 152.061 73.0552 151.695 73.7054 151.044C74.3556 150.392 74.721 149.509 74.7213 148.588C74.7262 147.712 74.3938 146.868 73.7933 146.232Z" fill="#6C63FF"/>
<path d="M95.9767 162.9H57.9846C57.177 162.9 56.4024 163.221 55.8314 163.793C55.2603 164.365 54.9395 165.141 54.9395 165.95C54.9395 166.759 55.2603 167.535 55.8314 168.107C56.4024 168.679 57.177 169 57.9846 169H96.2215C96.7601 168.682 97.2024 168.223 97.5016 167.673C97.8007 167.123 97.9454 166.503 97.9203 165.877C97.8952 165.251 97.7012 164.644 97.3589 164.119C97.0167 163.595 96.539 163.174 95.9767 162.9Z" fill="#6C63FF"/>
<path d="M283.354 129.564H273.242C272.568 129.563 271.912 129.787 271.378 130.199C270.844 130.612 270.462 131.19 270.292 131.844C270.122 132.497 270.173 133.189 270.437 133.81C270.702 134.432 271.165 134.948 271.753 135.277H280.711C281.631 135.277 282.513 134.911 283.163 134.259C283.813 133.608 284.178 132.725 284.179 131.804C284.182 130.982 283.889 130.187 283.354 129.564Z" fill="#6C63FF"/>
<path d="M290.985 146.232H273.242C272.545 146.231 271.869 146.469 271.326 146.907C270.784 147.346 270.408 147.957 270.261 148.64C270.115 149.322 270.207 150.034 270.522 150.657C270.837 151.28 271.355 151.776 271.991 152.061H288.445C289.365 152.061 290.247 151.695 290.897 151.044C291.547 150.392 291.912 149.509 291.913 148.588C291.917 147.712 291.585 146.868 290.985 146.232Z" fill="#6C63FF"/>
<path d="M303.5 162.9H273.241C272.434 162.9 271.659 163.221 271.088 163.793C270.517 164.365 270.196 165.141 270.196 165.95C270.196 166.759 270.517 167.535 271.088 168.107C271.659 168.679 272.434 169 273.241 169H303.745C304.283 168.682 304.726 168.223 305.025 167.673C305.324 167.123 305.468 166.503 305.443 165.877C305.418 165.251 305.224 164.644 304.882 164.119C304.54 163.595 304.062 163.174 303.5 162.9Z" fill="#6C63FF"/>
<path d="M203.817 146.232H165.613C164.805 146.232 164.03 146.553 163.459 147.125C162.888 147.697 162.567 148.473 162.567 149.282C162.567 150.091 162.888 150.867 163.459 151.439C164.03 152.011 164.805 152.332 165.613 152.332H203.643C204.202 152.052 204.674 151.625 205.009 151.097C205.345 150.569 205.532 149.96 205.55 149.334C205.567 148.709 205.416 148.09 205.111 147.544C204.806 146.997 204.359 146.544 203.817 146.232Z" fill="#6C63FF"/>
<path d="M169.712 162.9H165.613C164.889 162.899 164.189 163.156 163.637 163.626C163.086 164.096 162.719 164.747 162.604 165.463C162.488 166.178 162.631 166.912 163.006 167.532C163.382 168.152 163.965 168.617 164.653 168.845H167.282C168.202 168.845 169.083 168.479 169.734 167.828C170.384 167.176 170.749 166.293 170.749 165.372C170.751 164.911 170.66 164.455 170.482 164.03C170.304 163.606 170.042 163.221 169.712 162.9Z" fill="#6C63FF"/>
<path d="M187.899 129.564H165.613C164.805 129.564 164.03 129.885 163.459 130.457C162.888 131.029 162.567 131.805 162.567 132.614C162.567 133.423 162.888 134.199 163.459 134.771C164.03 135.343 164.805 135.664 165.613 135.664H187.286C187.868 135.426 188.375 135.033 188.751 134.528C189.127 134.023 189.359 133.425 189.422 132.798C189.484 132.172 189.376 131.539 189.108 130.97C188.839 130.4 188.421 129.914 187.899 129.564Z" fill="#6C63FF"/>
</g>
<defs>
<clipPath id="clip0_261_483">
<rect width="505" height="300" fill="white"/>
</clipPath>
</defs>
</svg>
