<svg width="24" height="25" viewBox="0 0 24 25" fill="none" xmlns="http://www.w3.org/2000/svg">
<g clip-path="url(#clip0_219_267)">
<path d="M15.0499 5.49408C16.0267 5.68171 16.9243 6.15205 17.628 6.84489C18.3317 7.53773 18.8094 8.42155 18.9999 9.38324M15.0499 1.55569C17.0792 1.77766 18.9715 2.6724 20.4162 4.09301C21.8608 5.51362 22.7719 7.37566 22.9999 9.3734M21.9999 17.2305V20.1843C22.0011 20.4585 21.944 20.7299 21.8324 20.9812C21.7209 21.2324 21.5572 21.4579 21.352 21.6433C21.1468 21.8287 20.9045 21.9698 20.6407 22.0577C20.3769 22.1455 20.0973 22.1781 19.8199 22.1535C16.7428 21.8243 13.7869 20.789 11.1899 19.1308C8.77376 17.6191 6.72527 15.6021 5.18993 13.2232C3.49991 10.6546 2.44818 7.7301 2.11993 4.68671C2.09494 4.41444 2.12781 4.14003 2.21643 3.88094C2.30506 3.62186 2.4475 3.38379 2.6347 3.18188C2.82189 2.97997 3.04974 2.81865 3.30372 2.70819C3.55771 2.59773 3.83227 2.54055 4.10993 2.54029H7.10993C7.59524 2.53559 8.06572 2.7048 8.43369 3.01638C8.80166 3.32796 9.04201 3.76065 9.10993 4.2338C9.23656 5.17908 9.47138 6.10722 9.80993 7.00052C9.94448 7.35293 9.9736 7.73593 9.89384 8.10413C9.81408 8.47234 9.6288 8.81032 9.35993 9.07802L8.08993 10.3285C9.51349 12.7934 11.5864 14.8344 14.0899 16.236L15.3599 14.9856C15.6318 14.7209 15.9751 14.5384 16.3491 14.4599C16.723 14.3814 17.112 14.4101 17.4699 14.5425C18.3772 14.8759 19.3199 15.1071 20.2799 15.2317C20.7657 15.2992 21.2093 15.5401 21.5265 15.9087C21.8436 16.2772 22.0121 16.7476 21.9999 17.2305Z" stroke="#E0E5F8" stroke-width="2" stroke-linecap="round" stroke-linejoin="round"/>
</g>
<defs>
<clipPath id="clip0_219_267">
<rect width="24" height="23.6303" fill="white" transform="translate(0 0.571106)"/>
</clipPath>
</defs>
</svg>
