<svg width="182" height="25" viewBox="0 0 182 25" fill="none" xmlns="http://www.w3.org/2000/svg">
<path d="M0.104728 24.3296V0.113358H9.65878C11.4876 0.113358 13.0484 0.440498 14.3412 1.09478C15.6419 1.74117 16.6312 2.65953 17.3091 3.84984C17.9949 5.03227 18.3378 6.4236 18.3378 8.02383C18.3378 9.63193 17.991 11.0154 17.2973 12.1742C16.6036 13.3251 15.5985 14.2079 14.2821 14.8228C12.9735 15.4377 11.3891 15.7451 9.52871 15.7451H3.13175V11.6302H8.70101C9.67848 11.6302 10.4904 11.4962 11.1368 11.2282C11.7832 10.9602 12.2641 10.5582 12.5794 10.0221C12.9026 9.4861 13.0642 8.82 13.0642 8.02383C13.0642 7.21977 12.9026 6.54185 12.5794 5.99004C12.2641 5.43824 11.7793 5.02045 11.125 4.73667C10.4786 4.445 9.66272 4.29917 8.67736 4.29917H5.22466V24.3296H0.104728ZM13.1824 13.3093L19.201 24.3296H13.549L7.66047 13.3093H13.1824ZM29.8458 24.6843C27.9776 24.6843 26.3695 24.3059 25.0215 23.5492C23.6814 22.7845 22.6488 21.7046 21.9235 20.3093C21.1983 18.9061 20.8357 17.2468 20.8357 15.3313C20.8357 13.463 21.1983 11.8234 21.9235 10.4123C22.6488 9.0013 23.6696 7.90164 24.986 7.11335C26.3104 6.32507 27.8633 5.93092 29.6448 5.93092C30.843 5.93092 31.9585 6.12405 32.9911 6.51031C34.0316 6.88869 34.9382 7.4602 35.7107 8.22484C36.4911 8.98948 37.0981 9.95119 37.5316 11.11C37.9652 12.2609 38.182 13.6088 38.182 15.1539V16.5373H22.8458V13.4157H33.4404C33.4404 12.6905 33.2828 12.048 32.9675 11.4884C32.6521 10.9287 32.2146 10.4912 31.655 10.1759C31.1032 9.85265 30.4607 9.69106 29.7276 9.69106C28.963 9.69106 28.285 9.86842 27.6938 10.2231C27.1105 10.57 26.6533 11.039 26.3222 11.6302C25.9911 12.2136 25.8216 12.8639 25.8137 13.5813V16.5492C25.8137 17.4478 25.9793 18.2243 26.3104 18.8785C26.6493 19.5328 27.1262 20.0373 27.7411 20.3921C28.356 20.7468 29.0851 20.9242 29.9286 20.9242C30.4883 20.9242 31.0007 20.8453 31.4658 20.6877C31.9309 20.53 32.3289 20.2935 32.66 19.9782C32.9911 19.6629 33.2434 19.2766 33.4168 18.8194L38.0756 19.1269C37.8391 20.2462 37.3543 21.2237 36.6212 22.0593C35.8959 22.887 34.9579 23.5334 33.807 23.9985C32.664 24.4557 31.3436 24.6843 29.8458 24.6843ZM46.6482 24.6725C45.4894 24.6725 44.4568 24.4715 43.5502 24.0694C42.6437 23.6595 41.9264 23.0565 41.3982 22.2603C40.8779 21.4563 40.6178 20.4551 40.6178 19.2569C40.6178 18.2479 40.803 17.4005 41.1735 16.7147C41.544 16.0289 42.0485 15.4771 42.687 15.0593C43.3256 14.6415 44.0508 14.3262 44.8627 14.1133C45.6825 13.9005 46.5418 13.7507 47.4404 13.664C48.4967 13.5537 49.3481 13.4512 49.9945 13.3566C50.6409 13.2541 51.1099 13.1043 51.4016 12.9073C51.6932 12.7102 51.8391 12.4185 51.8391 12.0323V11.9613C51.8391 11.2125 51.6026 10.6331 51.1296 10.2231C50.6645 9.81324 50.0024 9.60828 49.1431 9.60828C48.2366 9.60828 47.5153 9.8093 46.9793 10.2113C46.4432 10.6055 46.0885 11.1021 45.9151 11.7012L41.2563 11.3228C41.4928 10.2192 41.9579 9.26538 42.6516 8.46133C43.3453 7.64939 44.24 7.02664 45.3357 6.59308C46.4393 6.15164 47.7163 5.93092 49.1668 5.93092C50.1758 5.93092 51.1414 6.04917 52.0637 6.28565C52.9939 6.52214 53.8177 6.88869 54.535 7.38531C55.2602 7.88193 55.8317 8.52045 56.2495 9.30085C56.6673 10.0734 56.8762 10.9996 56.8762 12.0796V24.3296H52.0992V21.811H51.9573C51.6656 22.3785 51.2754 22.8791 50.7867 23.3127C50.298 23.7383 49.7107 24.0734 49.0249 24.3177C48.3391 24.5542 47.5468 24.6725 46.6482 24.6725ZM48.0908 21.1961C48.8318 21.1961 49.486 21.0503 50.0536 20.7586C50.6212 20.4591 51.0665 20.057 51.3897 19.5525C51.7129 19.048 51.8745 18.4765 51.8745 17.838V15.9106C51.7169 16.0131 51.5001 16.1077 51.2242 16.1944C50.9562 16.2733 50.6527 16.3481 50.3137 16.4191C49.9748 16.4822 49.6358 16.5413 49.2968 16.5965C48.9579 16.6438 48.6504 16.6871 48.3745 16.7265C47.7833 16.8132 47.267 16.9512 46.8256 17.1404C46.3841 17.3296 46.0412 17.5858 45.7968 17.909C45.5525 18.2243 45.4303 18.6184 45.4303 19.0914C45.4303 19.7772 45.6786 20.3014 46.1752 20.664C46.6797 21.0188 47.3182 21.1961 48.0908 21.1961ZM65.8213 0.113358V24.3296H60.7842V0.113358H65.8213ZM69.951 0.113358H76.2652L82.9341 16.3836H83.2178L89.8868 0.113358H96.2009V24.3296H91.2347V8.56774H91.0337L84.7668 24.2113H81.3851L75.1182 8.50862H74.9172V24.3296H69.951V0.113358ZM105.504 24.6725C104.345 24.6725 103.312 24.4715 102.406 24.0694C101.499 23.6595 100.782 23.0565 100.254 22.2603C99.7335 21.4563 99.4733 20.4551 99.4733 19.2569C99.4733 18.2479 99.6586 17.4005 100.029 16.7147C100.4 16.0289 100.904 15.4771 101.543 15.0593C102.181 14.6415 102.906 14.3262 103.718 14.1133C104.538 13.9005 105.397 13.7507 106.296 13.664C107.352 13.5537 108.204 13.4512 108.85 13.3566C109.496 13.2541 109.965 13.1043 110.257 12.9073C110.549 12.7102 110.695 12.4185 110.695 12.0323V11.9613C110.695 11.2125 110.458 10.6331 109.985 10.2231C109.52 9.81324 108.858 9.60828 107.999 9.60828C107.092 9.60828 106.371 9.8093 105.835 10.2113C105.299 10.6055 104.944 11.1021 104.771 11.7012L100.112 11.3228C100.348 10.2192 100.813 9.26538 101.507 8.46133C102.201 7.64939 103.096 7.02664 104.191 6.59308C105.295 6.15164 106.572 5.93092 108.022 5.93092C109.031 5.93092 109.997 6.04917 110.919 6.28565C111.849 6.52214 112.673 6.88869 113.391 7.38531C114.116 7.88193 114.687 8.52045 115.105 9.30085C115.523 10.0734 115.732 10.9996 115.732 12.0796V24.3296H110.955V21.811H110.813C110.521 22.3785 110.131 22.8791 109.642 23.3127C109.154 23.7383 108.566 24.0734 107.88 24.3177C107.195 24.5542 106.402 24.6725 105.504 24.6725ZM106.946 21.1961C107.687 21.1961 108.342 21.0503 108.909 20.7586C109.477 20.4591 109.922 20.057 110.245 19.5525C110.568 19.048 110.73 18.4765 110.73 17.838V15.9106C110.572 16.0131 110.356 16.1077 110.08 16.1944C109.812 16.2733 109.508 16.3481 109.169 16.4191C108.83 16.4822 108.491 16.5413 108.152 16.5965C107.813 16.6438 107.506 16.6871 107.23 16.7265C106.639 16.8132 106.123 16.9512 105.681 17.1404C105.24 17.3296 104.897 17.5858 104.652 17.909C104.408 18.2243 104.286 18.6184 104.286 19.0914C104.286 19.7772 104.534 20.3014 105.031 20.664C105.535 21.0188 106.174 21.1961 106.946 21.1961ZM119.64 24.3296V6.16741H124.523V9.33633H124.712C125.043 8.20907 125.599 7.35772 126.38 6.78227C127.16 6.19894 128.059 5.90727 129.076 5.90727C129.328 5.90727 129.6 5.92304 129.891 5.95457C130.183 5.9861 130.439 6.02946 130.66 6.08464V10.5542C130.423 10.4833 130.096 10.4202 129.679 10.365C129.261 10.3099 128.878 10.2823 128.532 10.2823C127.791 10.2823 127.128 10.4439 126.545 10.7671C125.97 11.0824 125.512 11.5238 125.173 12.0914C124.842 12.659 124.677 13.3132 124.677 14.0542V24.3296H119.64ZM137.828 19.1032L137.84 13.061H138.573L144.391 6.16741H150.173L142.357 15.2958H141.163L137.828 19.1032ZM133.264 24.3296V0.113358H138.301V24.3296H133.264ZM144.616 24.3296L139.271 16.4191L142.629 12.86L150.516 24.3296H144.616ZM160.173 24.6843C158.305 24.6843 156.697 24.3059 155.349 23.5492C154.009 22.7845 152.976 21.7046 152.251 20.3093C151.526 18.9061 151.163 17.2468 151.163 15.3313C151.163 13.463 151.526 11.8234 152.251 10.4123C152.976 9.0013 153.997 7.90164 155.314 7.11335C156.638 6.32507 158.191 5.93092 159.972 5.93092C161.171 5.93092 162.286 6.12405 163.319 6.51031C164.359 6.88869 165.266 7.4602 166.038 8.22484C166.819 8.98948 167.426 9.95119 167.859 11.11C168.293 12.2609 168.51 13.6088 168.51 15.1539V16.5373H153.173V13.4157H163.768C163.768 12.6905 163.61 12.048 163.295 11.4884C162.98 10.9287 162.542 10.4912 161.983 10.1759C161.431 9.85265 160.788 9.69106 160.055 9.69106C159.291 9.69106 158.613 9.86842 158.021 10.2231C157.438 10.57 156.981 11.039 156.65 11.6302C156.319 12.2136 156.149 12.8639 156.141 13.5813V16.5492C156.141 17.4478 156.307 18.2243 156.638 18.8785C156.977 19.5328 157.454 20.0373 158.069 20.3921C158.684 20.7468 159.413 20.9242 160.256 20.9242C160.816 20.9242 161.328 20.8453 161.793 20.6877C162.258 20.53 162.657 20.2935 162.988 19.9782C163.319 19.6629 163.571 19.2766 163.744 18.8194L168.403 19.1269C168.167 20.2462 167.682 21.2237 166.949 22.0593C166.224 22.887 165.286 23.5334 164.135 23.9985C162.992 24.4557 161.671 24.6843 160.173 24.6843ZM181.457 6.16741V9.95119H170.52V6.16741H181.457ZM173.003 1.81606H178.04V18.7485C178.04 19.2136 178.111 19.5762 178.253 19.8363C178.395 20.0886 178.592 20.2659 178.844 20.3684C179.104 20.4709 179.404 20.5221 179.743 20.5221C179.979 20.5221 180.216 20.5024 180.452 20.463C180.689 20.4157 180.87 20.3802 180.996 20.3566L181.788 24.1049C181.536 24.1837 181.181 24.2744 180.724 24.3769C180.267 24.4872 179.711 24.5542 179.057 24.5779C177.843 24.6252 176.779 24.4636 175.864 24.0931C174.958 23.7226 174.252 23.1471 173.748 22.3667C173.243 21.5863 172.995 20.601 173.003 19.4106V1.81606Z" fill="url(#paint0_linear_65_48)"/>
<defs>
<linearGradient id="paint0_linear_65_48" x1="121.772" y1="12.0017" x2="-2" y2="12.0017" gradientUnits="userSpaceOnUse">
<stop stop-color="#F87171"/>
<stop offset="1" stop-color="#D2E2E9"/>
</linearGradient>
</defs>
</svg>
