<svg width="296" height="228" viewBox="0 0 296 228" fill="none" xmlns="http://www.w3.org/2000/svg">
<path d="M270.565 40.5436C246.598 16.5762 189.612 -5.79538 157.652 14.9783C125.696 35.75 134.217 46.4022 92.6826 126.446C92.6826 126.446 80.9855 150.794 92.6825 192.87C99.6257 217.845 135.114 236.034 157.652 223.228C181.087 209.913 188.868 151.748 210.913 136.946C232.958 122.143 271.399 126.279 289.215 106.739C305.366 89.0265 287.516 57.4937 270.565 40.5436Z" fill="#ABB2C9"/>
<g clip-path="url(#clip0_27_1174)">
<path d="M190.789 121.449C191.195 121.468 191.539 121.153 191.558 120.747C191.568 120.53 191.481 120.319 191.322 120.172L191.272 119.971L191.292 119.923C191.717 118.916 192.876 118.446 193.881 118.872C194.358 119.075 194.737 119.457 194.936 119.936C195.532 121.374 196.29 122.815 196.477 124.335C196.559 125.007 196.525 125.688 196.375 126.349C197.774 123.29 198.501 119.965 198.506 116.6C198.506 115.756 198.459 114.912 198.366 114.073C198.288 113.385 198.181 112.702 198.043 112.024C197.293 108.344 195.682 104.895 193.343 101.96C192.211 101.342 191.295 100.39 190.72 99.2339C190.511 98.8183 190.364 98.3746 190.282 97.9167C190.41 97.9335 190.54 97.944 190.667 97.9524C190.707 97.9544 190.749 97.9566 190.789 97.9587L190.804 97.9593C191.206 97.9774 191.547 97.6655 191.565 97.2627C191.573 97.084 191.515 96.9087 191.402 96.7698C191.347 96.7019 191.292 96.6339 191.237 96.566C191.153 96.4611 191.067 96.3584 190.984 96.2535C190.974 96.2435 190.965 96.233 190.956 96.222C190.86 96.1025 190.764 95.985 190.667 95.8655C190.843 95.5921 191.08 95.3632 191.358 95.1964C192.324 94.6301 193.655 95.0223 194.352 95.8969C195.014 96.8207 195.229 97.9918 194.941 99.0912C194.702 100.021 194.307 100.903 193.772 101.7C193.825 101.767 193.879 101.832 193.931 101.9C194.888 103.132 195.722 104.456 196.421 105.851C196.251 104.288 196.454 102.706 197.013 101.237C197.58 99.8674 198.642 98.714 199.577 97.5301C200.268 96.6418 201.547 96.4829 202.434 97.1751C202.859 97.5072 203.136 97.995 203.203 98.5313L203.208 98.5837C203.069 98.6622 202.933 98.7455 202.8 98.8337C202.342 99.1404 202.219 99.7611 202.525 100.22C202.68 100.453 202.926 100.61 203.203 100.653L203.223 100.656C203.173 101.157 203.086 101.655 202.961 102.143C202.231 104.899 200.386 107.225 197.872 108.561C197.79 108.603 197.71 108.645 197.629 108.685C198.331 110.679 198.772 112.756 198.939 114.863C199.034 116.107 199.029 117.356 198.923 118.599L198.929 118.555C199.197 117.173 199.933 115.926 201.012 115.025C202.615 113.706 204.88 113.22 206.609 112.159C207.142 111.817 207.85 111.972 208.192 112.505C208.338 112.733 208.399 113.006 208.363 113.276L208.356 113.322C208.099 113.427 207.848 113.548 207.605 113.685C207.466 113.763 207.33 113.847 207.197 113.935C206.739 114.241 206.615 114.862 206.921 115.321C207.077 115.554 207.323 115.711 207.599 115.754L207.619 115.757C207.634 115.759 207.647 115.761 207.661 115.763C207.221 116.817 206.602 117.787 205.834 118.63C203.914 120.694 201.23 121.874 198.414 121.892H198.412C198.033 123.538 197.485 125.141 196.777 126.674H190.935C190.914 126.609 190.896 126.542 190.877 126.477C191.417 126.511 191.96 126.478 192.493 126.38C192.06 125.847 191.626 125.31 191.193 124.778C191.183 124.768 191.174 124.757 191.166 124.746C190.946 124.474 190.724 124.203 190.504 123.93L190.504 123.93C190.492 123.094 190.588 122.26 190.789 121.449L190.789 121.449Z" fill="#F2F2F2"/>
<path d="M173.118 67.7655C173.118 70.9867 174.727 74.2645 177.942 74.2645C181.158 74.2645 185.594 71.9315 184.596 66.9323C183.965 63.7737 182.156 61.9331 178.94 61.9331C175.725 61.9331 173.118 64.5443 173.118 67.7655V67.7655V67.7655Z" fill="#2F2E41"/>
<path d="M186.607 113.787C185.945 113.052 186.003 111.918 186.737 111.255C186.816 111.184 186.9 111.12 186.99 111.065L185.582 104.85L188.676 106.016L189.538 111.739C190.007 112.617 189.676 113.709 188.799 114.179C188.066 114.572 187.159 114.41 186.607 113.787V113.787Z" fill="#A0616A"/>
<path d="M180.04 91.7602L182.199 91.9804C182.199 91.9804 181.634 95.185 182.517 95.9068C183.401 96.6286 183.045 96.6252 183.039 97.1602C183.094 97.9368 183.475 98.6536 184.089 99.1319C184.795 99.6737 186.266 109.323 186.266 109.323L189.47 109.354C189.374 108.524 189.382 107.685 189.493 106.857C189.683 105.611 190.644 102.471 190.293 101.932C189.942 101.394 190.127 100.404 190.137 99.3341C190.147 98.2642 188.619 99.4464 188.636 97.6632C188.653 95.8801 186.694 84.6908 186.887 83.0876C187.081 81.4844 185.136 80.0391 185.136 80.0391L183.356 80.022L180.04 91.7602V91.7602Z" fill="#E6E6E6"/>
<path d="M157.116 76.7117C156.912 77.6277 157.488 78.5354 158.403 78.7393C158.5 78.7611 158.599 78.7741 158.699 78.7784L160.431 84.5614L162.44 82.1542L160.487 77.0315C160.465 76.0884 159.683 75.3419 158.742 75.3643C157.954 75.383 157.282 75.94 157.116 76.7117Z" fill="#A0616A"/>
<path d="M175.404 78.5952C175.404 78.5952 171.216 77.0222 168.946 85.6365L165.932 88.7636L163.4 84.18L163.735 83.0926L161.778 78.6481L158.423 80.5772L159.249 83.6285L159.109 85.137L159.911 86.0751L161.223 90.9241L162.044 92.5082C162.044 92.5082 163.08 94.5366 164.887 94.8707C165.369 94.9611 165.862 94.9752 166.348 94.9123C167.504 94.7311 168.576 94.1952 169.415 93.3784C171.65 91.382 173.763 89.2534 175.744 87.0041L175.404 78.5952H175.404Z" fill="#E6E6E6"/>
<path d="M181.021 93.0198L181.318 94.434L181.569 99.6505L171.45 98.2778L170.673 92.2373L171.747 90.4695L181.021 93.0198Z" fill="#A0616A"/>
<path d="M177.739 74.1801C180.384 74.1801 182.528 72.032 182.528 69.3822C182.528 66.7323 180.384 64.5842 177.739 64.5842C175.094 64.5842 172.949 66.7323 172.949 69.3822C172.949 72.032 175.094 74.1801 177.739 74.1801Z" fill="#A0616A"/>
<path d="M185.763 80.6017C184.973 78.7341 183.337 77.3587 181.364 76.9027L181.346 76.8991L180.398 75.6204L176.55 76.0069L175.847 77.4518L174.023 78.5391H174.019L174.015 78.5427L173.06 79.1134L169.89 82.8305L169.887 82.8341C168.946 83.4631 168.308 84.4544 168.124 85.5722C168.076 85.8913 168.06 86.2144 168.077 86.5367C168.181 88.5126 169.414 90.2718 169.584 90.5066L169.999 92.8437L170.082 93.3242L170.828 93.4325L181.342 94.9389L181.635 94.9822L181.721 94.9931L182.024 94.2092V94.202L184.956 86.5187L186.272 83.0906C186.275 82.2347 186.102 81.3874 185.763 80.6017Z" fill="#E6E6E6"/>
<path d="M182.751 70.6399C182.708 70.633 182.664 70.6239 182.621 70.617C181.874 70.4843 181.127 70.3538 180.382 70.2188L180.313 68.5274L179.411 70.0425C177.353 70.7268 175.427 70.3401 173.615 69.4864C173.017 69.2022 172.438 68.8819 171.879 68.5274C171.489 66.145 172.472 64.2675 174.997 64.0278C175.076 64.0204 175.132 63.9546 175.2 63.9202L175.203 63.918V63.9179C175.319 63.863 175.438 63.8104 175.557 63.7623C177.455 63.0191 179.611 63.4379 181.095 64.838C182.593 66.3654 183.217 68.5497 182.751 70.6399V70.6399Z" fill="#2F2E41"/>
<path d="M187.469 109.334C187.257 107.917 186.909 106.523 186.43 105.172V105.169C186.03 104.027 185.53 102.922 184.938 101.867C184.936 101.867 184.934 101.866 184.934 101.864V101.864C184.081 100.273 182.968 98.8375 181.642 97.6156L181.501 97.4675H181.465L171.311 97.2182H171.207L171.091 97.2146C171.091 97.2146 171.048 97.341 170.965 97.5794C170.962 97.5944 170.957 97.6089 170.951 97.6228C170.922 97.7167 170.886 97.8251 170.843 97.9443C170.817 98.0238 170.788 98.1068 170.76 98.1972C170.727 98.2947 170.691 98.3958 170.655 98.5042C170.374 99.3458 169.963 100.567 169.458 102.08C169.382 102.312 169.303 102.55 169.22 102.799C167.294 108.604 164.197 118.09 161.493 127.081H171.084C172.014 124.386 173.002 120.543 173.002 120.543C173.388 120.084 173.367 118.838 173.367 118.838L176.381 115.666L178.552 127.081H187.66L187.729 114.377V114.268C187.8 112.619 187.713 110.967 187.469 109.334V109.334Z" fill="#CCCCCC"/>
<path d="M180.916 63.7991V63.8031C180.915 64.0543 180.947 64.3044 181.011 64.5473C181.021 64.5899 181.033 64.6345 181.047 64.6771V64.6791C181.323 65.5583 181.993 66.2577 182.859 66.5689C182.922 66.5932 182.986 66.6135 183.051 66.6317C183.188 66.6714 183.327 66.6998 183.468 66.7169C183.595 66.7349 183.723 66.7437 183.851 66.7433C183.951 66.7437 184.051 66.7389 184.15 66.7291C184.383 66.7054 184.612 66.653 184.832 66.5729C184.867 66.5629 184.901 66.5507 184.933 66.5364C184.95 66.5306 184.966 66.5238 184.982 66.5162C186.479 65.8885 187.184 64.1643 186.558 62.665C186.539 62.6201 186.519 62.5757 186.498 62.5318L186.496 62.5298C186.352 62.228 186.157 61.9535 185.919 61.7187C185.389 61.1895 185.155 59.8632 184.35 59.8632C184.311 59.8625 184.273 59.8639 184.234 59.8673C183.694 59.8855 182.695 61.0536 182.27 61.3294C181.954 61.5292 181.68 61.7889 181.464 62.0938C181.238 62.4076 181.077 62.7633 180.991 63.1401C180.941 63.3562 180.916 63.5773 180.916 63.7991H180.916Z" fill="#2F2E41"/>
<path d="M184.502 62.7751C184.957 63.3066 185.671 63.5133 186.315 63.7899C188.621 64.8036 190.28 66.8927 190.746 69.3724C190.924 70.3672 190.901 71.3971 191.182 72.3669C191.461 73.3367 192.153 74.2883 193.146 74.4566C193.818 74.5715 194.492 74.3116 195.124 74.055C195.472 73.915 195.82 73.7744 196.167 73.6334C195.805 72.7218 195.442 71.8103 195.081 70.8988C195.662 71.759 196.338 72.5511 197.095 73.2601C198.341 72.7568 199.588 72.2536 200.836 71.7503C197.766 71.762 198.29 68.7758 197.603 65.7796C197.225 64.1332 194.01 63.0184 193.379 61.452C192.395 58.9961 189.609 57.805 187.158 58.7914C186.101 59.2165 185.231 60.005 184.703 61.0154C184.072 61.267 184.054 62.2502 184.502 62.7751V62.7751Z" fill="#2F2E41"/>
<path d="M171.46 97.9484C170.026 98.323 168.865 99.3763 168.351 100.769C168.17 101.163 168.174 101.617 168.364 102.007C168.513 102.285 168.844 102.41 169.139 102.301C169.435 102.141 169.672 101.888 169.813 101.582C170.019 101.188 170.197 100.78 170.344 100.361C170.585 99.728 171.099 98.6715 170.365 98.1767C169.748 97.7606 168.931 97.9222 168.236 97.8937C167.486 97.8629 166.652 97.575 166.385 96.7958C166.126 96.0381 166.734 95.3253 167.389 95.0372C168.189 94.7049 169.102 94.792 169.824 95.2696C170.528 95.7582 171.031 96.4864 171.238 97.3185C171.27 97.4528 171.188 97.5878 171.054 97.62C170.926 97.6506 170.796 97.5769 170.757 97.4514C170.573 96.6793 170.088 96.0134 169.41 95.6026C168.736 95.2133 167.9 95.246 167.258 95.6868C166.922 95.8966 166.766 96.3048 166.876 96.6861C167.045 97.0245 167.363 97.2633 167.735 97.3307C168.527 97.5225 169.355 97.2743 170.144 97.5277C170.879 97.7162 171.347 98.4368 171.222 99.1861C171.14 99.6356 171.007 100.074 170.825 100.494C170.671 100.925 170.491 101.346 170.286 101.756C169.973 102.349 169.408 102.991 168.662 102.817C167.813 102.619 167.611 101.625 167.793 100.894C168.286 99.2075 169.628 97.9052 171.327 97.4663C171.461 97.4343 171.596 97.5173 171.628 97.6517C171.658 97.7795 171.585 97.9091 171.46 97.9484V97.9484Z" fill="#CCCCCC"/>
<path d="M208.974 127.442H149.839C148.445 127.441 147.316 126.309 147.314 124.914V44.3597C147.316 42.9638 148.445 41.8326 149.839 41.8311H208.974C210.367 41.8326 211.496 42.9638 211.498 44.3597V124.914C211.496 126.309 210.367 127.441 208.974 127.442ZM149.839 42.5535C148.843 42.5547 148.037 43.3626 148.036 44.3597V124.914C148.037 125.911 148.843 126.719 149.839 126.72H208.974C209.969 126.719 210.776 125.911 210.777 124.914V44.3597C210.776 43.3626 209.969 42.5547 208.974 42.5535H149.839Z" fill="#FAFBF6"/>
<path d="M250.965 89.8744H231.854C229.265 89.8744 227.166 87.7719 227.166 85.1784C227.166 82.5849 229.265 80.4824 231.854 80.4824H250.965C253.553 80.4824 255.652 82.5849 255.652 85.1784C255.652 87.7719 253.553 89.8744 250.965 89.8744Z" fill="#6C63FF"/>
<path d="M185.666 83.2446L185.656 83.967L222.586 84.5015L222.597 83.779L185.666 83.2446Z" fill="#FAFBF6"/>
<path d="M184.116 85.5657C183.119 85.568 182.308 84.7598 182.306 83.7605C182.304 82.7613 183.111 81.9493 184.108 81.947C185.106 81.9447 185.916 82.7529 185.918 83.7522C185.92 84.445 185.526 85.0779 184.905 85.3821C184.659 85.5023 184.39 85.5651 184.116 85.5657V85.5657ZM184.114 82.6743C183.516 82.6742 183.031 83.1598 183.031 83.7587C183.031 84.3577 183.516 84.8433 184.114 84.8433C184.712 84.8433 185.196 84.3578 185.196 83.7588C185.196 83.5942 185.159 83.4317 185.087 83.2837V83.2835C184.905 82.911 184.528 82.6747 184.114 82.6743V82.6743Z" fill="#FAFBF6"/>
<path d="M250.965 127.081H231.854C229.265 127.081 227.166 124.978 227.166 122.385C227.166 119.791 229.265 117.689 231.854 117.689H250.965C253.553 117.689 255.652 119.791 255.652 122.385C255.652 124.978 253.553 127.081 250.965 127.081Z" fill="#6C63FF"/>
<path d="M185.666 120.451L185.656 121.174L222.586 121.708L222.597 120.986L185.666 120.451Z" fill="#FAFBF6"/>
<path d="M184.116 122.772C183.12 122.773 182.312 121.965 182.311 120.967C182.31 119.97 183.117 119.16 184.113 119.159C184.803 119.158 185.433 119.552 185.735 120.174C186.171 121.071 185.798 122.153 184.902 122.59C184.657 122.709 184.389 122.772 184.116 122.772ZM184.114 119.881C183.516 119.881 183.031 120.366 183.031 120.965C183.031 121.564 183.516 122.05 184.114 122.05C184.711 122.05 185.196 121.565 185.196 120.966C185.196 120.801 185.159 120.638 185.087 120.49C184.905 120.118 184.528 119.881 184.114 119.881Z" fill="#FAFBF6"/>
<path d="M136.65 127.037C137.563 126.303 137.709 124.965 136.976 124.05C136.905 123.961 136.827 123.878 136.743 123.802L140.177 113.785L137.645 112.152L133.652 124.08C132.935 125.006 133.104 126.339 134.028 127.057C134.801 127.658 135.885 127.65 136.65 127.037V127.037Z" fill="#FFB6B6"/>
<path d="M139.58 99.3974C138.974 101.968 138.068 104.213 138.191 105.292C138.312 106.367 137.001 107.4 137.417 108.25C137.833 109.102 136.553 109.194 136.899 110.565C137.247 111.939 137.472 112.233 137.179 112.46C136.883 112.685 135.322 117.93 135.322 117.93L136.238 118.267L138.91 119.243L145.189 108.897L145.17 96.1971L143.611 96.147C143.237 96.2876 142.822 96.4563 142.409 96.6596C141.146 97.2704 139.868 98.1732 139.58 99.3974Z" fill="#6C63FF"/>
<path d="M162.703 179.979H165.968L167.522 167.362H162.702L162.703 179.979Z" fill="#FFB6B6"/>
<path d="M167.055 180.274V178.056L166.196 178.109L162.702 178.316L161.893 178.366L161.275 185.793L161.242 186.191H163.56L163.635 185.796L163.972 183.999L164.841 185.796L165.032 186.191H171.179C171.94 186.187 172.555 185.569 172.559 184.806C172.818 183.592 167.706 180.968 167.055 180.274V180.274Z" fill="#2F2E41"/>
<path d="M124.448 176.419L127.288 178.033L134.855 167.827L130.663 165.445L124.448 176.419Z" fill="#FFB6B6"/>
<path d="M128.089 178.825L129.18 176.898L128.412 176.519L125.268 174.973L124.54 174.614L120.96 179.865L120.118 181.098L121.07 181.64L122.133 182.246L123.574 180.542L123.414 182.973L128.434 185.829H128.437L128.76 186.012C129.424 186.387 130.266 186.154 130.643 185.489C131.465 184.56 128.313 179.754 128.089 178.825Z" fill="#2F2E41"/>
<path d="M146.498 118.043C142.123 120.948 137.791 148.855 138.928 148.4L128.614 167.655L133.886 171.225L152.946 140.672L159.282 154.188L161.899 174.934L168.462 174.465C166.757 151.093 162.499 126.442 158.97 116.907L146.498 118.043V118.043Z" fill="#2F2E41"/>
<path d="M143.176 120.116L143.129 120.295C147.754 122.874 160.416 119.887 160.416 119.887L158.375 113.299L161.131 98.665C161.116 96.3026 159.192 94.3995 156.834 94.4145C156.737 94.4151 156.64 94.419 156.543 94.4262L153.219 91.9592L148.487 92.1228L145.321 95.6256L143.43 96.3026L141.961 96.8273C141.664 97.0953 141.339 97.4043 141.029 97.7451L143.353 111.602L144.342 115.745L143.176 120.116Z" fill="#6C63FF"/>
<path d="M150.857 91.4094C154.211 91.4094 156.929 88.686 156.929 85.3265C156.929 81.9671 154.211 79.2437 150.857 79.2437C147.504 79.2437 144.785 81.9671 144.785 85.3265C144.785 88.686 147.504 91.4094 150.857 91.4094Z" fill="#FFB6B6"/>
<path d="M142.874 83.2076C142.892 83.2145 142.908 83.2213 142.926 83.2282C142.96 83.2435 142.996 83.2565 143.032 83.2671C143.264 83.3523 143.505 83.4078 143.751 83.4325C143.855 83.4438 143.96 83.4494 144.066 83.4491C144.201 83.4496 144.336 83.4408 144.469 83.4229C144.618 83.4046 144.765 83.3746 144.91 83.3332C144.978 83.3148 145.045 83.293 145.112 83.2678C146.025 82.9426 146.734 82.2069 147.026 81.2804V81.2782C147.041 81.2335 147.054 81.188 147.065 81.142C147.132 80.8863 147.166 80.623 147.166 80.3585V80.354C147.168 79.7091 146.967 79.08 146.593 78.5557C146.367 78.2348 146.106 78.1812 146.252 77.8143C146.719 76.6438 144.808 75.6871 143.68 76.2017C143.64 76.1978 143.599 76.1962 143.558 76.1968C142.798 76.1949 142.517 77.3187 142.064 77.9513L142.077 77.9556C142.381 78.0621 142.541 78.3952 142.434 78.6996C142.375 78.8698 142.24 79.003 142.069 79.0603C141.768 79.1587 141.463 79.2456 141.155 79.3211C140.14 80.522 141.304 84.0355 142.874 83.2076Z" fill="#2F2E41"/>
<path d="M143.432 86.4278C143.721 87.7289 144.413 88.9051 145.41 89.788C146.438 90.6197 151.269 92.5901 151.677 90.9033C151.404 92.0816 151.569 92.5318 152.008 92.9531C152.083 92.8511 152.162 92.7536 152.244 92.6584C152.546 92.3103 152.907 92.0196 153.312 91.8002C153.323 92.5119 153.271 93.2232 153.159 93.926C153.34 94.0932 153.512 94.2695 153.675 94.4544C154.456 92.1211 156.169 89.3265 154.929 87.202C154.437 86.3588 154.847 86.2433 155.283 86.1466C156.044 85.9776 156.464 82.8489 156.645 82.0884C156.87 81.1349 156.958 80.0379 156.369 79.2549C155.779 78.472 154.287 78.4387 153.985 79.3716L153.357 78.5159C152.545 76.726 150.39 77.084 148.442 77.3154C146.466 77.6152 144.765 78.8722 143.896 80.6749C143.059 82.4752 142.895 84.5164 143.432 86.4278V86.4278Z" fill="#2F2E41"/>
<path d="M146.504 78.2522C146.588 80.4585 145.35 82.5023 143.358 83.4456C142.962 83.6252 142.617 83.0372 143.016 82.8562C144.797 82.0331 145.906 80.214 145.824 78.2505C145.801 77.8122 146.481 77.8152 146.504 78.2522V78.2522V78.2522Z" fill="#6C63FF"/>
<path d="M173.928 81.6174C172.8 81.9313 172.138 83.1025 172.452 84.2334C172.482 84.3429 172.521 84.4499 172.569 84.5532L165.467 92.4L167.15 94.9015L175.517 85.5199C176.541 84.9524 176.912 83.6611 176.345 82.6357C175.871 81.7776 174.872 81.3566 173.928 81.6174L173.928 81.6174Z" fill="#FFB6B6"/>
<path d="M153.741 107.074C153.741 107.074 158.778 107.98 160.348 105.856C161.917 103.732 163.634 102.028 163.946 100.99C164.258 99.9519 165.87 99.5228 165.822 98.5758C165.775 97.6288 166.989 98.0518 167.21 96.6531C167.431 95.2543 167.34 94.8938 167.7 94.8026C168.06 94.7113 171.559 90.5097 171.559 90.5097L168.78 87.8848L158.936 94.9094L153.741 107.074L153.741 107.074Z" fill="#6C63FF"/>
</g>
<defs>
<clipPath id="clip0_27_1174">
<rect width="255.652" height="186.413" fill="white" transform="translate(0 0.0651855)"/>
</clipPath>
</defs>
</svg>
