<svg width="274" height="218" viewBox="0 0 274 218" fill="none" xmlns="http://www.w3.org/2000/svg">
<path d="M159.631 20.186C123.367 39.5089 67.7655 88.0791 64.8278 129.101C62.673 159.191 70.5405 191.416 97.8482 204.198C139.392 223.643 154.357 218.764 196.096 204.198C226.101 193.726 242.718 149.077 254.968 115.523C267.218 81.9687 295.46 48.3864 243.783 11.1317C220.881 -5.37905 205.235 -4.11466 159.631 20.186Z" fill="#ABB2C9"/>
<g clip-path="url(#clip0_27_1279)">
<path d="M124.189 53.083C124.241 53.3142 124.276 53.5492 124.291 53.7859L142.754 64.4059L147.242 61.83L152.026 68.0747L144.526 73.4047C143.92 73.8353 143.19 74.0583 142.447 74.0402C141.703 74.0221 140.985 73.7639 140.401 73.3045L121.362 58.3289C120.503 58.646 119.568 58.6948 118.68 58.4687C117.792 58.2427 116.995 57.7526 116.393 57.0635C115.792 56.3744 115.415 55.5191 115.313 54.6113C115.211 53.7035 115.388 52.7862 115.822 51.9815C116.255 51.1767 116.924 50.5227 117.74 50.1063C118.555 49.6899 119.479 49.5309 120.387 49.6505C121.295 49.7701 122.145 50.1626 122.825 50.7757C123.504 51.3889 123.979 52.1937 124.189 53.083V53.083Z" fill="#FFB6B6"/>
<path d="M143.011 63.2334C143.069 62.9625 143.186 62.7073 143.352 62.4854C143.519 62.2635 143.731 62.08 143.975 61.9475L152.499 57.3167C153.634 56.4625 155.063 56.092 156.472 56.2865C157.88 56.4809 159.154 57.2245 160.014 58.354C160.874 59.4836 161.249 60.907 161.058 62.3121C160.866 63.7172 160.124 64.9893 158.993 65.8493L152.161 72.7693C151.966 72.9668 151.731 73.12 151.471 73.2186C151.212 73.3172 150.934 73.3589 150.656 73.3407C150.379 73.3225 150.109 73.2449 149.864 73.1132C149.62 72.9816 149.406 72.7989 149.239 72.5776L143.357 64.8018C143.19 64.5806 143.072 64.3259 143.012 64.0553C142.952 63.7846 142.952 63.5042 143.011 63.2334Z" fill="#3F3D56"/>
<path d="M158.239 36.3119C159.465 32.4147 162.254 28.8404 166.111 27.523C169.969 26.2055 175.617 28.2124 178.516 31.0939C183.821 36.3648 185.115 54.4723 181.471 60.1944C180.746 60.1562 178.245 60.1279 177.511 60.1005L176.473 56.6516V60.0665C170.747 59.89 164.786 60.0005 158.821 60.1148C158.286 56.0634 157.013 40.209 158.239 36.3119Z" fill="#2F2E41"/>
<path d="M156.598 199.894H151.375L148.891 179.807L156.599 179.807L156.598 199.894Z" fill="#FFB6B6"/>
<path d="M202.319 196.655L197.265 197.969L189.779 179.156L197.238 177.218L202.319 196.655Z" fill="#FFB6B6"/>
<path d="M173.537 76.5241L174.72 79.592L174.484 82.6599L151.323 90.6586L152.472 77.2321L155.075 74.1638L173.537 76.5241Z" fill="#FFB6B6"/>
<path d="M166.214 48.9158C170.782 48.9158 174.486 45.223 174.486 40.6677C174.486 36.1125 170.782 32.4197 166.214 32.4197C161.645 32.4197 157.941 36.1125 157.941 40.6677C157.941 45.223 161.645 48.9158 166.214 48.9158Z" fill="#FFB7B7"/>
<path d="M160.53 29.9273C162.119 28.9611 163.94 28.4385 165.801 28.414C167.662 28.3895 169.496 28.8641 171.111 29.7882C172.725 30.7122 174.061 32.0518 174.979 33.6668C175.896 35.2817 176.362 37.1129 176.326 38.9686C171.817 40.1178 167.012 40.5984 161.92 39.2454L160.756 36.4049L160.069 39.2475C158.512 40.3402 157.008 40.3382 155.559 39.2416C155.497 37.3911 155.924 35.5568 156.796 33.9223C157.669 32.2878 158.956 30.9102 160.53 29.9273Z" fill="#2F2E41"/>
<path d="M158.934 209.782H155.228L154.567 206.293L152.873 209.782H143.043C142.572 209.782 142.113 209.632 141.734 209.353C141.354 209.075 141.074 208.683 140.934 208.234C140.793 207.786 140.801 207.304 140.954 206.86C141.108 206.416 141.4 206.032 141.788 205.766L149.637 200.36V196.833L157.893 197.325L158.934 209.782Z" fill="#2F2E41"/>
<path d="M207.539 205.517L203.953 206.449L202.43 203.24L201.673 207.042L192.162 209.514C191.706 209.632 191.224 209.602 190.786 209.428C190.349 209.254 189.978 208.946 189.729 208.547C189.48 208.148 189.365 207.68 189.401 207.212C189.438 206.744 189.623 206.299 189.931 205.943L196.159 198.739L195.267 195.326L203.381 193.725L207.539 205.517Z" fill="#2F2E41"/>
<path d="M201.678 184.023L186.369 152.65L181.563 114.465C184.876 108.329 178.723 95.8434 178.723 95.8434V90.6013L154.884 95.0854V95.0854C150.008 108.345 147.644 122.392 147.911 136.512L148.872 187.271H148.57C148.07 187.271 147.591 187.469 147.237 187.822C146.884 188.174 146.685 188.652 146.685 189.151C146.685 189.65 146.884 190.128 147.237 190.48C147.591 190.833 148.07 191.031 148.57 191.031H157.997C158.497 191.031 158.977 190.833 159.33 190.48C159.684 190.128 159.882 189.65 159.882 189.151C159.882 188.652 159.684 188.174 159.33 187.822C158.977 187.469 158.497 187.271 157.997 187.271H157.754L164.521 122.697L172.39 154.563L191.405 183.903C190.92 183.94 190.469 184.164 190.146 184.527C189.822 184.889 189.653 185.363 189.672 185.847C189.692 186.332 189.899 186.79 190.25 187.126C190.602 187.462 191.07 187.648 191.556 187.647H200.983C201.421 187.648 201.846 187.496 202.184 187.217C202.522 186.939 202.752 186.552 202.835 186.122C202.917 185.693 202.847 185.248 202.635 184.865C202.424 184.482 202.086 184.184 201.678 184.023H201.678Z" fill="#2F2E41"/>
<path d="M180.878 99.0571H180.878C180.799 98.7503 180.626 98.4762 180.381 98.2739C180.137 98.0717 179.835 97.9517 179.518 97.9311C179.204 94.3492 177.128 71.3772 177.049 70.7032L177.046 70.6747L176.445 57.8702C176.423 57.4052 176.23 56.9645 175.903 56.6322C175.576 56.3 175.137 56.0996 174.672 56.0692L171.496 55.8623C171.453 55.8608 171.412 55.8425 171.381 55.8113C171.351 55.78 171.334 55.7383 171.334 55.6948C171.334 55.3452 171.265 54.999 171.131 54.676C170.997 54.353 170.8 54.0595 170.552 53.8123C170.304 53.565 170.01 53.3689 169.686 53.2351C169.362 53.1013 169.014 53.0325 168.664 53.0325H159.263C158.654 53.0327 158.066 53.2545 157.61 53.6563C157.153 54.0581 156.86 54.6121 156.784 55.2145C156.779 55.256 156.76 55.2944 156.728 55.322C156.697 55.3496 156.657 55.3644 156.615 55.3634L156.614 55.3634C155.545 55.3415 154.505 55.7021 153.68 56.3798C152.856 57.0574 152.303 58.0073 152.121 59.057C150.835 66.5128 148.26 83.4346 149.533 92.8421C149.977 96.117 149.775 101.043 149.607 103.783C149.591 104.047 149.627 104.313 149.713 104.564C149.8 104.815 149.935 105.046 150.111 105.245C149.736 105.353 149.418 105.601 149.223 105.939C149.029 106.276 148.973 106.675 149.068 107.053H149.068C149.166 107.439 149.414 107.771 149.757 107.976C150.1 108.181 150.511 108.241 150.899 108.143L179.784 100.883C180.172 100.785 180.505 100.538 180.71 100.196C180.915 99.8535 180.976 99.4438 180.878 99.0571Z" fill="#3F3D56"/>
<path d="M155.472 55.4913C155.468 54.8576 155.239 54.2458 154.826 53.7644C154.412 53.283 153.841 52.9631 153.214 52.8614L114.618 46.5421C114.248 46.481 113.87 46.4978 113.506 46.5914L104.461 48.9233L99.2714 50.2629L89.6938 52.7315C89.1156 52.8812 88.6037 53.218 88.2382 53.6891C87.8726 54.1602 87.6742 54.7389 87.6741 55.3345V86.8751C87.677 87.4899 87.89 88.0853 88.278 88.563C88.6661 89.0407 89.2059 89.3722 89.8084 89.5028L129.121 97.8427C129.305 97.8823 129.494 97.9018 129.682 97.901C129.957 97.9015 130.231 97.8599 130.493 97.7778L153.85 90.4235C154.401 90.252 154.882 89.9079 155.222 89.4422C155.561 88.9765 155.741 88.4141 155.735 87.8384L155.472 55.4913Z" fill="white"/>
<path d="M114.181 48.8584C114.153 48.8584 114.125 48.862 114.098 48.8691L90.2852 55.0093C90.213 55.0279 90.149 55.0699 90.1034 55.1287C90.0577 55.1875 90.033 55.2598 90.033 55.3341V86.8743C90.0332 86.9511 90.0598 87.0255 90.1083 87.0852C90.1567 87.145 90.2241 87.1864 90.2994 87.2027L129.612 95.5425C129.669 95.5544 129.728 95.5515 129.783 95.5342L153.14 88.1801C153.209 88.1587 153.269 88.1157 153.311 88.0575C153.354 87.9993 153.376 87.9291 153.375 87.8572L153.113 55.5102C153.113 55.4311 153.084 55.3547 153.032 55.2946C152.981 55.2345 152.909 55.1946 152.831 55.1819L114.236 48.8628C114.218 48.8599 114.199 48.8584 114.181 48.8584Z" fill="#6C63FF"/>
<path d="M155.472 55.4913C155.468 54.8576 155.239 54.2458 154.826 53.7644C154.412 53.283 153.841 52.9631 153.214 52.8614L114.618 46.5421C114.248 46.481 113.87 46.4978 113.506 46.5914L104.461 48.9233L99.2714 50.2629L89.6938 52.7315C89.1156 52.8812 88.6037 53.218 88.2382 53.6891C87.8726 54.1602 87.6742 54.7389 87.6741 55.3345V86.8751C87.677 87.4899 87.89 88.0853 88.278 88.563C88.6661 89.0407 89.2059 89.3722 89.8084 89.5028L129.121 97.8427C129.305 97.8823 129.494 97.9018 129.682 97.901C129.957 97.9015 130.231 97.8599 130.493 97.7778L153.85 90.4235C154.401 90.252 154.882 89.9079 155.222 89.4422C155.561 88.9765 155.741 88.4141 155.735 87.8384L155.472 55.4913ZM153.648 89.7828L130.291 97.1371C129.958 97.2406 129.604 97.2575 129.262 97.1863L89.9477 88.8465C89.496 88.7483 89.0913 88.4994 88.8005 88.1411C88.5097 87.7827 88.3501 87.3362 88.3481 86.8752V55.3345C88.3484 54.9217 88.4756 54.5189 88.7126 54.1805C88.9496 53.842 89.285 53.5841 89.6736 53.4416C89.7353 53.4185 89.7983 53.3991 89.8623 53.3834L99.9948 50.7714L105.987 49.2258L113.675 47.2433C113.84 47.1994 114.01 47.1775 114.18 47.1783C114.29 47.1783 114.4 47.1872 114.508 47.2052L153.104 53.5245C153.414 53.5753 153.709 53.6975 153.964 53.8814C154.219 54.0653 154.428 54.3059 154.573 54.5841C154.719 54.8661 154.796 55.1785 154.798 55.4958L155.061 87.8429C155.066 88.2748 154.931 88.6967 154.676 89.0461C154.422 89.3955 154.061 89.6539 153.648 89.7828V89.7828Z" fill="#3F3D56"/>
<path d="M154.573 54.5841C154.547 54.6013 154.518 54.6141 154.488 54.6222L143.135 57.6821L139.601 58.6342L129.55 61.3425C129.521 61.3495 129.492 61.3533 129.462 61.3537C129.442 61.3533 129.421 61.3518 129.401 61.3492L88.8714 53.9815L88.7366 53.9569C88.6487 53.9405 88.5709 53.8901 88.5203 53.8166C88.4696 53.7432 88.4501 53.6528 88.4662 53.5651C88.4822 53.4774 88.5324 53.3996 88.6059 53.3488C88.6793 53.298 88.7699 53.2782 88.8579 53.2938L89.6734 53.4416L129.449 60.6727L138.112 58.3385L142.958 57.0325L154.135 54.0196L154.312 53.9725C154.389 53.9524 154.471 53.9597 154.542 53.9933C154.614 54.0268 154.672 54.0845 154.706 54.1562C154.714 54.1733 154.721 54.1914 154.726 54.21C154.744 54.2804 154.739 54.3549 154.712 54.4224C154.684 54.4898 154.636 54.5466 154.573 54.5841Z" fill="#3F3D56"/>
<path d="M129.799 97.9794C129.71 97.9794 129.625 97.9444 129.562 97.882C129.499 97.8197 129.463 97.735 129.462 97.6464L129.125 61.0207C129.124 60.9316 129.159 60.8458 129.222 60.7823C129.284 60.7187 129.37 60.6825 129.459 60.6816H129.462C129.551 60.6816 129.636 60.7166 129.699 60.779C129.762 60.8413 129.798 60.926 129.799 61.0146L130.136 97.6403C130.137 97.7294 130.102 97.8152 130.039 97.8788C129.977 97.9424 129.891 97.9785 129.802 97.9794H129.799Z" fill="#3F3D56"/>
<path d="M143.135 93.5238L139.601 94.4758L138.112 58.3385L100.105 50.7983C100.068 50.7917 100.031 50.7827 99.9947 50.7714C99.7027 50.6885 99.4477 50.5092 99.2712 50.2629L104.461 48.9233L105.987 49.2257L142.05 56.3784C142.24 56.4157 142.419 56.4935 142.576 56.6064C142.732 56.7193 142.863 56.8647 142.958 57.0325C143.07 57.2274 143.133 93.2908 143.135 93.5238Z" fill="#3F3D56"/>
<path d="M141.552 72.9198C141.733 73.074 141.901 73.2421 142.055 73.4226L163.226 70.9573L165.285 66.22L172.862 68.3838L170.034 77.1235C169.806 77.8295 169.354 78.4426 168.746 78.8708C168.138 79.2989 167.408 79.5189 166.664 79.4979L142.424 78.8108C141.925 79.5765 141.203 80.1724 140.356 80.5193C139.508 80.8662 138.575 80.9475 137.68 80.7526C136.784 80.5576 135.97 80.0955 135.345 79.4279C134.72 78.7602 134.313 77.9185 134.179 77.0148C134.045 76.1111 134.191 75.1882 134.596 74.3689C135.001 73.5495 135.647 72.8725 136.447 72.428C137.247 71.9835 138.164 71.7924 139.076 71.8803C139.988 71.9681 140.852 72.3307 141.552 72.9198Z" fill="#FFB6B6"/>
<path d="M162.73 69.8638C162.615 69.6116 162.556 69.3376 162.556 69.0605C162.557 68.7833 162.618 68.5096 162.734 68.258L166.802 59.4701C167.202 58.1093 168.126 56.9621 169.373 56.2799C170.619 55.5978 172.087 55.4364 173.452 55.8312C174.818 56.2259 175.971 57.1446 176.659 58.3858C177.346 59.627 177.512 61.0894 177.12 62.4523L175.78 72.07C175.742 72.3445 175.645 72.6076 175.495 72.8412C175.346 73.0749 175.148 73.2737 174.914 73.4242C174.681 73.5746 174.418 73.6731 174.143 73.713C173.868 73.7529 173.587 73.7332 173.321 73.6552L163.947 70.9162C163.68 70.8384 163.433 70.7041 163.223 70.5224C163.013 70.3408 162.845 70.1162 162.73 69.8638Z" fill="#3F3D56"/>
<path d="M103.7 77.6775C103.658 77.6774 103.616 77.6727 103.575 77.6635L91.8858 75.0317C91.7396 74.9987 91.6126 74.9091 91.5326 74.7827C91.4526 74.6563 91.4262 74.5034 91.4592 74.3576C91.4922 74.2118 91.5818 74.0851 91.7085 74.0051C91.8351 73.9252 91.9884 73.8987 92.1347 73.9314L103.824 76.5631C103.96 76.5937 104.079 76.6731 104.16 76.7861C104.241 76.899 104.277 77.0377 104.261 77.1756C104.246 77.3135 104.18 77.4409 104.077 77.5335C103.973 77.626 103.839 77.6773 103.7 77.6775Z" fill="white"/>
</g>
<defs>
<clipPath id="clip0_27_1279">
<rect width="233.283" height="183.217" fill="white" transform="translate(0.913086 27.1099)"/>
</clipPath>
</defs>
</svg>
