<svg width="24" height="25" viewBox="0 0 24 25" fill="none" xmlns="http://www.w3.org/2000/svg">
<path d="M7 22.3867H4C3.46957 22.3867 2.96086 22.176 2.58579 21.8009C2.21071 21.4259 2 20.9172 2 20.3867V13.3867C2 12.8563 2.21071 12.3476 2.58579 11.9725C2.96086 11.5974 3.46957 11.3867 4 11.3867H7M14 9.38672V5.38672C14 4.59107 13.6839 3.82801 13.1213 3.2654C12.5587 2.70279 11.7956 2.38672 11 2.38672L7 11.3867V22.3867H18.28C18.7623 22.3922 19.2304 22.2231 19.5979 21.9107C19.9654 21.5983 20.2077 21.1636 20.28 20.6867L21.66 11.6867C21.7035 11.4001 21.6842 11.1074 21.6033 10.829C21.5225 10.5505 21.3821 10.293 21.1919 10.0742C21.0016 9.85545 20.7661 9.68065 20.5016 9.56194C20.2371 9.44322 19.9499 9.38344 19.66 9.38672H14Z" stroke="#848FCB" stroke-width="2" stroke-linecap="round" stroke-linejoin="round"/>
</svg>
