<svg width="284" height="259" viewBox="0 0 284 259" fill="none" xmlns="http://www.w3.org/2000/svg">
<path d="M183.824 80.6954C211.62 81.8476 225.455 72.5276 244.195 93.0733C266.519 117.548 268.712 141.297 258.27 165.262C247.828 189.228 229.028 209.727 196.07 224.737C150.215 245.622 115.548 248.506 66.6887 191.285C29.7714 148.049 5.75443 61.7192 51.9534 28.6008C83.4108 6.05005 102.077 7.57573 130.098 21.5641C158.119 35.5525 159.464 79.6856 183.824 80.6954Z" fill="#ABB2C9"/>
<g clip-path="url(#clip0_27_1234)">
<path d="M135.296 79.0343C138.398 79.0343 140.913 76.5237 140.913 73.4267C140.913 70.3297 138.398 67.8191 135.296 67.8191C132.193 67.8191 129.679 70.3297 129.679 73.4267C129.679 76.5237 132.193 79.0343 135.296 79.0343Z" fill="#6C63FF"/>
<path d="M138.179 71.0897C138.094 71.0092 137.982 70.9644 137.865 70.9644C137.749 70.9644 137.636 71.0092 137.552 71.0897C136.36 72.0387 135.289 73.1303 134.364 74.34C134.137 73.9013 133.91 73.4626 133.683 73.0239C133.421 72.5176 132.655 72.9649 132.917 73.4708C133.249 74.1125 133.582 74.7541 133.914 75.3958C133.954 75.4613 134.01 75.5154 134.077 75.553C134.144 75.5905 134.22 75.6103 134.297 75.6103C134.374 75.6103 134.449 75.5905 134.516 75.553C134.583 75.5154 134.64 75.4613 134.68 75.3958C135.665 74.0097 136.844 72.7707 138.179 71.7158C138.261 71.6324 138.308 71.52 138.308 71.4028C138.308 71.2856 138.261 71.1731 138.179 71.0897Z" fill="white"/>
<path d="M110.163 89.3279L101.693 76.0481L111.501 70.804L114.075 80.9359L132.213 90.7211C132.93 90.4638 133.705 90.4201 134.446 90.5953C135.186 90.7705 135.86 91.157 136.384 91.7077C136.908 92.2585 137.261 92.9496 137.399 93.6969C137.536 94.4441 137.453 95.2153 137.16 95.9162C136.866 96.6171 136.374 97.2176 135.745 97.6444C135.115 98.0713 134.374 98.306 133.614 98.3199C132.853 98.3339 132.104 98.1265 131.459 97.7231C130.814 97.3196 130.301 96.7376 129.981 96.0479L110.163 89.3279Z" fill="#A0616A"/>
<path d="M95.5044 60.1201C92.843 64.0212 102.301 78.201 102.301 78.201C102.762 77.2095 107.166 88.3437 107.904 87.686C110 85.8167 113.282 80.6097 115.107 80.3776C116.15 80.2448 112.687 72.8579 112.687 72.8579C112.687 72.8579 111.104 68.496 108.957 62.924C108.379 61.3375 107.408 59.9227 106.135 58.8114C104.862 57.7001 103.329 56.9284 101.677 56.5681C101.677 56.5681 98.1657 56.2191 95.5044 60.1201Z" fill="#3F3D56"/>
<path d="M95.6342 187.216L99.6568 187.216L101.57 171.726L95.6333 171.726L95.6342 187.216Z" fill="#A0616A"/>
<path d="M94.6079 185.905L95.7402 185.905L100.161 184.11L102.53 185.905H102.53C103.869 185.905 105.153 186.436 106.1 187.381C107.047 188.326 107.579 189.608 107.579 190.945V191.109L94.6081 191.109L94.6079 185.905Z" fill="#2F2E41"/>
<path d="M114.323 187.216L118.345 187.216L120.259 171.726L114.322 171.726L114.323 187.216Z" fill="#A0616A"/>
<path d="M113.297 185.905L114.429 185.905L118.849 184.11L121.219 185.905H121.219C122.558 185.905 123.842 186.436 124.789 187.381C125.736 188.326 126.267 189.608 126.268 190.945V191.109L113.297 191.109L113.297 185.905Z" fill="#2F2E41"/>
<path d="M116.064 102.53L89.8987 103.183C84.9294 105.878 84.854 111.71 86.4822 118.634C86.4822 118.634 85.9325 122.75 87.0319 123.847C88.1312 124.945 88.6808 124.945 88.1312 126.865C87.5815 128.786 90.4856 131.923 90.1329 132.275C89.7802 132.627 88.9557 134.548 88.9557 134.548L91.704 150.187C91.704 150.187 93.6278 177.351 94.1775 177.899C94.7271 178.448 95.2768 177.899 94.7271 179.271C94.1775 180.643 93.6278 180.094 94.1775 180.643C94.6644 181.167 95.1231 181.717 95.5516 182.289H102.196C102.196 182.289 102.697 179.546 102.697 179.271C102.697 178.997 103.247 177.351 103.247 177.076C103.247 176.802 102.761 176.317 102.761 176.317C102.593 175.759 102.48 175.186 102.422 174.607C102.422 174.058 100.773 152.931 100.773 152.931L104.071 125.494L112.041 152.382C112.041 152.382 112.041 175.979 112.591 176.528C113.141 177.076 113.141 176.802 112.866 177.899C112.591 178.997 111.492 178.723 112.316 179.546C113.141 180.369 113.416 178.997 113.141 180.369L112.866 181.741L121.111 181.858C121.111 181.858 122.21 179.546 121.661 178.723C121.111 177.899 121.144 178.124 121.814 176.777C122.485 175.43 122.76 175.156 122.485 174.881C122.21 174.607 122.21 173.148 122.21 173.148L120.836 146.895C120.836 146.895 120.561 119.183 120.561 118.36C120.541 117.936 120.619 117.514 120.79 117.125V116.008L119.737 112.049L116.064 102.53Z" fill="#2F2E41"/>
<path d="M100.346 48.2138C104.836 48.2138 108.476 44.5801 108.476 40.0976C108.476 35.6152 104.836 31.9814 100.346 31.9814C95.8563 31.9814 92.2166 35.6152 92.2166 40.0976C92.2166 44.5801 95.8563 48.2138 100.346 48.2138Z" fill="#A0616A"/>
<path d="M104.411 53.5782C106.162 54.6178 107.21 56.5277 107.812 58.4712C108.925 62.0695 109.595 65.7897 109.807 69.5498L110.443 80.8067L118.31 104.776C111.492 110.536 85.8623 106.085 85.8623 106.085C85.8623 106.085 85.0756 105.823 85.8623 105.038C86.6491 104.252 87.415 104.948 86.6282 104.163C85.8415 103.377 86.3839 104.252 86.6461 103.467C86.9083 102.681 86.6461 103.205 86.3839 102.943C86.1216 102.681 88.414 100.325 88.414 100.325L86.3161 86.5666L83.6936 58.8145C86.8406 54.8873 93.1695 52.5722 93.1695 52.5722L94.8048 49.6335L102.981 50.2866L104.411 53.5782Z" fill="#3F3D56"/>
<path d="M107.048 35.7858C107.68 36.2563 108.148 36.9128 108.386 37.6628C108.478 36.4371 108.484 35.2065 108.404 33.9799C108.308 33.118 107.7 32.9241 106.996 32.6995C106.36 32.4965 105.642 32.2673 105.448 31.4305C102.893 28.9486 98.4442 29.0738 95.3997 29.9395C93.7245 30.4159 92.7605 31.028 92.6743 31.3865L92.6564 31.4604L92.5884 31.4943C91.297 32.1389 91.0457 34.1744 91.0623 35.7684C91.0937 38.7717 92.1324 42.1827 92.7176 42.4598C92.7485 42.4744 92.7564 42.4687 92.7698 42.4575C93.6508 41.7546 94.7258 42.5109 95.1982 42.9221C95.4768 41.0555 96.3739 39.336 97.7463 38.0382C99.1186 36.7403 100.887 35.939 102.769 35.7622C103.384 35.7029 103.993 35.6009 104.594 35.4568C104.898 35.3781 105.211 35.3371 105.526 35.3346C106.067 35.3264 106.598 35.4839 107.048 35.7858Z" fill="#2F2E41"/>
<path d="M157.516 108.997L173.154 93.1428L177.274 80.4628L170.644 77.7854C167.359 81.093 163.978 91.2185 163.978 91.2185L153.305 105.52C153.219 105.552 153.134 105.585 153.051 105.625C152.559 105.857 152.136 106.211 151.822 106.654C151.508 107.096 151.313 107.612 151.257 108.152C151.201 108.692 151.285 109.237 151.502 109.734C151.719 110.232 152.06 110.665 152.494 110.993C152.927 111.32 153.438 111.53 153.976 111.603C154.515 111.675 155.063 111.608 155.568 111.408C156.073 111.207 156.517 110.88 156.858 110.457C157.2 110.035 157.426 109.532 157.516 108.997Z" fill="#FFB8B8"/>
<path d="M168.835 79.2361L177.22 81.6577L177.251 81.6517C180.333 81.0542 182.772 75.9407 184.274 71.7562C184.768 70.376 184.719 68.8599 184.137 67.5144C183.554 66.169 182.482 65.0945 181.136 64.5083C180.14 64.0825 179.045 63.9433 177.975 64.1063C176.904 64.2693 175.9 64.728 175.077 65.4307L170.896 69.0246L168.835 79.2361Z" fill="#6C63FF"/>
<path d="M161.661 186.746L157.152 186.745L155.007 169.381L161.662 169.381L161.661 186.746Z" fill="#FFB8B8"/>
<path d="M162.812 185.276L161.542 185.276L156.587 183.264L153.931 185.275H153.931C152.43 185.275 150.99 185.871 149.929 186.93C148.868 187.99 148.271 189.427 148.271 190.925V191.109L162.811 191.109L162.812 185.276Z" fill="#2F2E41"/>
<path d="M181.67 186.746L177.161 186.745L175.016 169.381L181.671 169.381L181.67 186.746Z" fill="#FFB8B8"/>
<path d="M182.821 185.276L181.551 185.276L176.596 183.264L173.94 185.275H173.94C172.439 185.275 170.999 185.871 169.938 186.93C168.877 187.99 168.28 189.427 168.28 190.925V191.109L182.82 191.109L182.821 185.276Z" fill="#2F2E41"/>
<path d="M188.546 111.95C188.546 111.95 189.073 118.258 187.756 124.304C186.44 130.349 186.44 147.375 186.44 147.375L183.544 180.551L174.856 179.763L172.486 124.304L164.062 142.965L164.851 145.594L163.799 146.251C163.799 146.251 164.588 151.376 164.062 151.376C163.535 151.376 162.219 152.165 162.219 152.165L163.272 179.237L154.32 178.974L151.161 140.863L154.584 119.047L154.847 114.841L156.032 114.89L156.635 113.133L157.743 110.11L188.546 111.95Z" fill="#2F2E41"/>
<path d="M189.001 113.275L189.048 113.209C191.554 109.707 187.785 101.29 187.217 100.07L189.611 99.2942L189.072 94.7188L188.816 92.6789L190.646 90.8521L190.651 90.8065L191.704 81.6071L193.236 75.497C193.813 73.1871 193.763 70.7656 193.093 68.481C192.423 66.1964 191.156 64.131 189.422 62.4968L185.883 59.1652L181.581 52.8113H174.645L172.266 57.2962C169.961 57.8283 167.915 59.1511 166.485 61.0341C165.056 62.9172 164.334 65.2412 164.444 67.6014L164.983 79.3641L162.873 94.0097L162.872 96.6602L160.497 99.295L161.015 101.883L159.208 102.657L158.41 106.374C158.08 106.81 155.9 109.711 155.9 110.505C155.9 110.624 155.988 110.739 156.177 110.867C157.662 111.871 165.873 113.918 169.507 112.466C173.378 110.921 188.766 113.239 188.921 113.263L189.001 113.275Z" fill="#6C63FF"/>
<path d="M177.217 50.7602C182.29 50.7602 186.403 46.6541 186.403 41.589C186.403 36.5238 182.29 32.4177 177.217 32.4177C172.143 32.4177 168.031 36.5238 168.031 41.589C168.031 46.6541 172.143 50.7602 177.217 50.7602Z" fill="#FFB8B8"/>
<path d="M176.337 50.9087C177.76 50.8942 179.179 50.7584 180.578 50.5028C181.964 50.1841 185.021 47.8242 185.854 46.4301C186.473 45.3942 186.844 43.792 187.047 42.6304C187.321 41.0931 187.268 39.5156 186.892 37.9999C186.516 36.4843 185.826 35.0643 184.865 33.832C184.495 33.3157 183.992 32.909 183.409 32.6547C183.358 32.6361 183.305 32.6198 183.251 32.6061C182.407 32.4073 181.641 31.961 181.052 31.3245C180.938 31.1956 180.814 31.0751 180.682 30.964C180.022 30.4359 179.245 30.0715 178.417 29.9004C177.078 29.5794 175.163 29.9817 172.725 31.0969C171.5 31.6573 170.141 31.5009 169.093 31.3021C169.034 31.2924 168.974 31.2981 168.918 31.3189C168.862 31.3396 168.813 31.3745 168.775 31.4202C168.342 31.8471 167.764 32.0948 167.156 32.1134C166.784 32.1393 166.406 32.6642 165.951 33.3477C165.848 33.5029 165.728 33.684 165.64 33.7945L165.623 33.587L165.418 33.8243C165.096 34.1972 164.874 34.6454 164.773 35.127C164.671 35.6087 164.694 36.1081 164.837 36.5789C164.981 37.0497 165.242 37.4765 165.596 37.8195C165.949 38.1625 166.384 38.4106 166.86 38.5407C167.237 38.6306 167.622 38.6818 168.01 38.6935C168.245 38.7085 168.488 38.724 168.721 38.7583C169.471 38.8916 170.174 39.2167 170.76 39.7019C171.347 40.1871 171.797 40.8158 172.067 41.5267C172.131 41.691 172.232 41.8384 172.362 41.9576C172.492 42.0768 172.648 42.1646 172.817 42.2143C172.986 42.2639 173.165 42.274 173.339 42.2438C173.513 42.2136 173.677 42.1439 173.82 42.0401C174.057 41.8456 174.338 41.7113 174.638 41.6487C174.939 41.586 175.25 41.5968 175.545 41.6802C175.802 41.8142 176.005 42.0324 176.12 42.298C176.259 42.5937 176.483 42.8414 176.763 43.0094C177.72 43.4709 177.841 45.6215 177.548 47.4244C177.266 49.1623 176.652 50.43 176.056 50.5073C175.597 50.5667 175.545 50.6007 175.514 50.6828L175.486 50.7564L175.539 50.8231C175.796 50.9086 176.068 50.9378 176.337 50.9087Z" fill="#2F2E41"/>
<path d="M168.716 80.2169L164.3 74.5999C159.802 75.8364 151.821 82.9383 151.821 82.9383L135.431 90.0391C134.884 89.9473 134.322 90.001 133.803 90.1948C133.283 90.3886 132.824 90.7157 132.471 91.143C132.118 91.5704 131.885 92.083 131.793 92.6293C131.702 93.1755 131.757 93.7361 131.951 94.2547C132.146 94.7732 132.474 95.2314 132.903 95.5831C133.331 95.9348 133.845 96.1675 134.392 96.258C134.939 96.3485 135.501 96.2934 136.02 96.0984C136.539 95.9033 136.998 95.5752 137.349 95.147L158.82 89.167L168.716 80.2169Z" fill="#FFB8B8"/>
<path d="M167.657 81.5011L174.624 73.7471L175.011 68.2528C175.083 67.1739 174.852 66.0964 174.342 65.1421C173.833 64.1878 173.067 63.3946 172.13 62.8523C170.855 62.1257 169.351 61.9097 167.922 62.2478C166.493 62.5859 165.247 63.4529 164.434 64.6737C161.972 68.3778 159.324 73.386 160.686 76.2096L160.7 76.2383L167.657 81.5011Z" fill="#6C63FF"/>
<path d="M103.44 110.646L85.3316 101.387C84.0436 100.728 83.6169 98.9815 84.3805 97.4929L96.1876 74.4771C96.9512 72.9885 98.6204 72.3132 99.9085 72.9718L118.017 82.2306C119.305 82.8892 119.732 84.6361 118.968 86.1246L107.161 109.141C106.397 110.629 104.728 111.304 103.44 110.646Z" fill="#E6E6E6"/>
<path d="M100.346 106.389L88.043 100.099C86.8366 99.4821 86.4369 97.8461 87.1521 96.452L96.9612 77.3308C97.6764 75.9367 99.2397 75.3044 100.446 75.9212L115.306 83.5189C116.512 84.1357 116.912 85.7716 116.196 87.1657L110.868 97.5534C107.682 103.763 105.72 109.137 100.346 106.389Z" fill="white"/>
<path d="M106.429 95.9474L95.5319 90.3757C95.3987 90.2809 95.304 90.1414 95.2653 89.9827C95.2265 89.8241 95.2462 89.6567 95.3208 89.5114C95.3954 89.366 95.5198 89.2522 95.6715 89.1909C95.8231 89.1296 95.9918 89.1247 96.1467 89.1773L107.044 94.749C107.177 94.8438 107.272 94.9833 107.311 95.142C107.349 95.3007 107.33 95.468 107.255 95.6133C107.18 95.7587 107.056 95.8725 106.904 95.9338C106.753 95.9951 106.584 96 106.429 95.9474Z" fill="#6C63FF"/>
<path d="M96.8042 94.0147L94.3173 92.7432C94.1841 92.6484 94.0894 92.5089 94.0507 92.3502C94.0119 92.1915 94.0316 92.0242 94.1062 91.8788C94.1808 91.7334 94.3052 91.6197 94.4569 91.5584C94.6085 91.497 94.7772 91.4922 94.9321 91.5447L97.419 92.8162C97.5522 92.911 97.6468 93.0505 97.6856 93.2092C97.7243 93.3679 97.7046 93.5352 97.6301 93.6806C97.5555 93.826 97.431 93.9397 97.2794 94.001C97.1277 94.0624 96.9591 94.0672 96.8042 94.0147Z" fill="#6C63FF"/>
<path d="M99.9938 98.6346L93.1024 95.1111C92.9692 95.0163 92.8746 94.8768 92.8358 94.7181C92.7971 94.5594 92.8168 94.3921 92.8913 94.2467C92.9659 94.1014 93.0904 93.9876 93.242 93.9263C93.3937 93.8649 93.5623 93.8601 93.7172 93.9126L100.609 97.4362C100.742 97.531 100.837 97.6705 100.875 97.8291C100.914 97.9878 100.894 98.1551 100.82 98.3005C100.745 98.4459 100.621 98.5597 100.469 98.621C100.317 98.6823 100.149 98.6872 99.9938 98.6346V98.6346Z" fill="#6C63FF"/>
<path d="M110.741 87.5412L99.8442 81.9694C99.7109 81.8746 99.6163 81.7352 99.5775 81.5765C99.5387 81.4178 99.5585 81.2505 99.633 81.1051C99.7076 80.9597 99.8321 80.846 99.9837 80.7847C100.135 80.7233 100.304 80.7185 100.459 80.771L111.356 86.3428C111.489 86.4376 111.584 86.577 111.623 86.7357C111.662 86.8944 111.642 87.0617 111.567 87.2071C111.493 87.3525 111.368 87.4662 111.217 87.5275C111.065 87.5889 110.896 87.5937 110.741 87.5412Z" fill="#6C63FF"/>
<path d="M101.116 85.6087L98.6296 84.3372C98.4963 84.2424 98.4017 84.1029 98.3629 83.9442C98.3241 83.7855 98.3439 83.6182 98.4184 83.4728C98.493 83.3274 98.6175 83.2137 98.7691 83.1523C98.9208 83.091 99.0894 83.0862 99.2444 83.1387L101.731 84.4102C101.864 84.505 101.959 84.6445 101.998 84.8032C102.037 84.9619 102.017 85.1292 101.942 85.2746C101.868 85.4199 101.743 85.5337 101.592 85.595C101.44 85.6564 101.271 85.6612 101.116 85.6087Z" fill="#6C63FF"/>
<path d="M104.306 90.2284L97.4149 86.7048C97.2817 86.61 97.1871 86.4706 97.1483 86.3119C97.1096 86.1532 97.1293 85.9859 97.2038 85.8405C97.2784 85.6951 97.4029 85.5814 97.5545 85.52C97.7062 85.4587 97.8748 85.4538 98.0297 85.5064L104.921 89.0299C105.054 89.1247 105.149 89.2642 105.188 89.4229C105.227 89.5816 105.207 89.7489 105.132 89.8943C105.058 90.0397 104.933 90.1534 104.782 90.2148C104.63 90.2761 104.461 90.2809 104.306 90.2284L104.306 90.2284Z" fill="#6C63FF"/>
<path d="M88.4344 90.6083L84.3435 75.4037L95.2756 73.3376L94.6877 83.774L109.052 98.5396C109.812 98.5085 110.565 98.6991 111.219 99.0879C111.873 99.4768 112.399 100.047 112.734 100.73C113.069 101.412 113.197 102.177 113.104 102.931C113.011 103.685 112.7 104.396 112.209 104.976C111.719 105.557 111.069 105.983 110.34 106.201C109.611 106.42 108.835 106.422 108.104 106.208C107.374 105.993 106.723 105.571 106.229 104.993C105.734 104.415 105.42 103.706 105.322 102.953L88.4344 90.6083Z" fill="#A0616A"/>
<path d="M83.2249 58.3561C79.5142 61.2807 84.2769 77.6396 84.2769 77.6396C85.0143 76.8317 85.8712 88.7721 86.7725 88.3655C89.3342 87.21 94.0293 83.2254 95.8394 83.5501C96.8746 83.7359 95.79 75.6522 95.79 75.6522C95.79 75.6522 95.5906 71.0171 95.2157 65.0586C95.141 63.3721 94.6401 61.7319 93.7596 60.2906C92.8792 58.8493 91.6478 57.6539 90.18 56.8155C90.18 56.8155 86.9357 55.4315 83.2249 58.3561Z" fill="#3F3D56"/>
<path d="M144.968 124.356L135.086 119.698C134.875 119.599 134.689 119.453 134.542 119.272C134.395 119.091 134.291 118.879 134.238 118.652C134.184 118.43 134.182 118.199 134.231 117.975C134.279 117.752 134.378 117.543 134.519 117.364C137.382 113.711 139.347 109.44 140.258 104.893C140.327 104.545 140.515 104.231 140.789 104.006C141.064 103.78 141.408 103.657 141.764 103.656C146.804 103.673 150.57 105.511 152.959 109.116C153.084 109.304 153.168 109.516 153.203 109.739C153.238 109.962 153.224 110.19 153.162 110.408C151.779 115.166 149.675 119.686 146.922 123.809C146.718 124.12 146.407 124.348 146.048 124.448C145.689 124.549 145.305 124.516 144.968 124.356Z" fill="#E6E6E6"/>
<path d="M147.875 117.822L140.319 114.26C140.131 114.172 139.986 114.012 139.916 113.817C139.846 113.621 139.857 113.406 139.945 113.219C140.034 113.031 140.194 112.886 140.39 112.816C140.585 112.746 140.801 112.757 140.989 112.845L148.544 116.407C148.638 116.451 148.721 116.513 148.79 116.589C148.859 116.665 148.913 116.754 148.948 116.851C148.982 116.947 148.998 117.05 148.993 117.153C148.988 117.255 148.963 117.356 148.919 117.449C148.875 117.542 148.813 117.625 148.737 117.694C148.66 117.763 148.571 117.817 148.474 117.851C148.377 117.886 148.275 117.901 148.172 117.896C148.069 117.891 147.968 117.866 147.875 117.822H147.875Z" fill="white"/>
<path d="M149.049 115.341L141.493 111.779C141.305 111.69 141.16 111.531 141.09 111.335C141.02 111.14 141.03 110.925 141.119 110.737C141.208 110.55 141.368 110.405 141.563 110.335C141.759 110.265 141.974 110.275 142.162 110.364L149.718 113.926C149.906 114.014 150.051 114.174 150.121 114.369C150.191 114.565 150.181 114.78 150.092 114.967C150.003 115.155 149.844 115.3 149.648 115.37C149.452 115.44 149.237 115.429 149.049 115.341V115.341Z" fill="white"/>
</g>
<defs>
<clipPath id="clip0_27_1234">
<rect width="224.283" height="181.606" fill="white" transform="translate(25.8147 9.98926)"/>
</clipPath>
</defs>
</svg>
